<svg width="83" height="64" viewBox="0 0 83 64" fill="none"
  xmlns="http://www.w3.org/2000/svg">
  <path d="M10.9104 20.1258C10.6702 20.8565 10.8404 21.6639 11.3075 22.2745L12.155 23.3822C12.6488 24.0295 13.4295 24.3632 14.257 24.2698C14.8909 24.1964 15.4581 23.8427 15.8451 23.3355L16.6926 22.2278C17.2932 21.4404 17.3332 20.366 16.756 19.5219C16.3223 18.8846 15.5782 18.5343 14.8075 18.5343H13.1025C12.1116 18.5343 11.2341 19.1549 10.9138 20.1258H10.9104Z" fill="#D40F7D"/>
  <path d="M0.00333658 5.54194C0.00333658 7.3937 0.930886 9.0753 2.37559 10.0896C1.11439 12.1782 0.387035 14.6239 0.387035 17.2364C0.387035 21.774 2.87941 25.9113 6.88655 28.0333L10.0362 29.7016C12.2783 38.3031 16.1654 46.2306 21.6039 53.2807L21.8775 53.6377C18.6711 55.0624 16.5024 58.7759 16.5024 62.1725C16.5024 63.0566 17.223 63.774 18.1072 63.774H38.4165C40.9122 63.774 43.0843 62.376 44.1954 60.324C44.0619 60.9446 43.9885 61.5685 43.9918 62.1825C43.9918 63.0633 44.7159 63.774 45.5967 63.774H67.0004C69.9632 63.774 72.6091 61.8955 73.59 59.1029L78.5881 44.8627C80.8736 38.3498 82.0313 31.55 82.0313 24.6501C82.0313 12.969 72.5256 3.46329 60.8445 3.46329H54.7321C53.7678 3.46329 53.0037 4.3141 53.1439 5.30505C53.2573 6.09913 53.978 6.66968 54.7821 6.66968H60.9213C70.8274 6.66968 78.9151 14.674 78.9251 24.58C78.9317 31.143 77.834 37.6091 75.6586 43.7983L70.6572 58.0385C70.1267 59.55 68.692 60.5676 67.0871 60.5676H58.7425C59.3865 58.3388 61.2683 56.2301 63.4937 56.2435C64.3746 56.2468 65.0786 55.5061 65.0786 54.6253V38.5133C65.0786 37.5524 64.2278 36.785 63.2368 36.9285C62.4394 37.0419 61.8688 37.7626 61.8688 38.5667V42.9275C61.8321 42.9275 61.7988 42.9208 61.7621 42.9208H44.9861C44.7025 38.0528 43.0309 33.4285 40.1115 29.4747C39.5843 28.7607 38.58 28.6105 37.866 29.1377C37.1587 29.6615 37.0019 30.6558 37.5157 31.3665C40.1515 35.02 41.8198 39.2773 41.8198 43.7783V57.1977C41.8198 59.0595 40.3117 60.5676 38.4499 60.5676H30.1787C30.8193 58.3555 32.6777 56.2568 34.8832 56.2368C35.2669 56.2335 35.6472 56.1234 35.9408 55.8731C36.6248 55.2892 36.6949 54.335 36.2044 53.6777L34.4628 51.3355C30.4089 45.8803 28.1735 39.1339 28.1735 32.3408C28.1735 31.3798 27.326 30.6158 26.335 30.7526C25.5343 30.866 24.9604 31.59 24.9637 32.3975C24.9771 39.8579 27.4328 47.2616 31.887 53.2473L32.1572 53.6143C29.4247 54.8055 27.4361 57.6548 26.8822 60.5709H20.009C20.653 58.3488 22.5214 56.2468 24.7369 56.2468C25.5143 56.2468 26.2049 55.6863 26.325 54.8622C26.3884 54.4284 26.255 53.988 25.9847 53.641L24.203 51.3321C19.4852 45.2163 15.9919 38.3998 13.7965 31.0395C13.8899 31.0429 13.9833 31.0495 14.0767 31.0495C15.021 31.0495 15.9618 30.8226 16.8227 30.3655L21.2035 28.0467C25.214 25.9247 27.703 21.7874 27.703 17.2497V17.0996C27.703 14.6106 27.039 12.225 25.7979 10.143C26.9723 9.33888 27.8131 8.09436 28.1067 6.67968H40.2916C41.2559 6.67968 42.02 5.82888 41.8798 4.83793C41.7664 4.04385 41.0457 3.4733 40.2416 3.4733H27.7531C26.9289 1.44137 24.9304 0.00333722 22.6048 0.00333722C20.1291 0.00333722 18.0238 1.63489 17.3098 3.87702C16.2121 3.60343 15.0677 3.46663 13.9066 3.4733C12.8522 3.47997 11.8246 3.61677 10.8403 3.85366C10.1196 1.62154 8.0243 0 5.55528 0C2.49237 0 0 2.49237 0 5.55528L0.00333658 5.54194ZM47.5252 60.5609C48.1691 58.3321 50.0443 56.2201 52.263 56.2301C53.1439 56.2335 53.8479 55.4961 53.8479 54.6119V46.1239H61.7621C61.7988 46.1239 61.8321 46.1239 61.8688 46.1172V53.2139C58.5557 54.0214 56.0867 57.2478 55.4594 60.5609H47.5219H47.5252ZM44.9461 58.2187C44.9995 57.885 45.0262 57.5414 45.0262 57.1911V46.1239H50.6415V53.2139C48.1058 53.8279 46.0605 55.8364 44.9461 58.2187ZM7.79408 4.91467C6.49618 5.58865 5.31505 6.46281 4.29742 7.50046C3.6101 7.0834 3.16301 6.32601 3.16301 5.48855C3.16301 4.19065 4.21734 3.13632 5.51525 3.13632C6.61296 3.13632 7.53717 3.8937 7.79408 4.91467ZM23.7559 7.53049C23.7025 7.47377 23.6492 7.41705 23.5958 7.36367C22.6082 6.38274 21.5004 5.5753 20.3026 4.94804C20.5462 3.91039 21.4804 3.13632 22.5915 3.13632C23.8894 3.13632 24.9437 4.19065 24.9437 5.48855C24.9437 6.34937 24.4733 7.1201 23.7559 7.53049ZM8.42802 25.1773C5.4652 23.6091 3.62678 20.5529 3.62678 17.1997C3.62678 11.4042 8.2712 6.65633 13.9833 6.61296C14.01 6.61296 14.0367 6.61296 14.0634 6.61296C18.0638 6.61296 21.7207 8.84841 23.6158 12.7388C24.2064 13.9499 24.5 15.2845 24.5 16.6325V18.1306C24.5 20.8999 22.9685 23.4423 20.5229 24.7369L15.3112 27.4961C14.5305 27.9099 13.5963 27.9099 12.8155 27.4961L8.43135 25.1739L8.42802 25.1773Z" fill="#D40F7D"/>
  <path d="M48.6496 6.14243C48.9466 5.84548 49.1201 5.43175 49.1201 5.00802C49.1201 4.58428 48.9499 4.17389 48.6496 3.87361C48.3527 3.57666 47.9389 3.40649 47.5152 3.40649C47.0915 3.40649 46.6811 3.57666 46.3808 3.87361C46.0838 4.17389 45.9103 4.58428 45.9103 5.00802C45.9103 5.43175 46.0805 5.84214 46.3808 6.14243C46.6777 6.43938 47.0915 6.61288 47.5152 6.61288C47.9389 6.61288 48.3493 6.44271 48.6496 6.14243Z" fill="#D40F7D"/>
</svg>
