<svg width="74" height="74" viewBox="0 0 74 74" fill="none"
  xmlns="http://www.w3.org/2000/svg">
  <path d="M30.3643 42.7784C30.3643 46.0093 33.1861 48.6301 36.6597 48.6301C40.1333 48.6301 42.9517 46.0093 42.9517 42.7784C42.9517 39.5475 39.5891 38.1296 36.6424 36.632C33.6923 35.1344 30.3331 33.72 30.3331 30.4891C30.3331 27.2581 33.1515 24.6339 36.6251 24.6339C40.0987 24.6339 42.9205 27.2547 42.9205 30.4891" stroke="#D40F7D" stroke-width="4" stroke-linecap="round" stroke-linejoin="round"/>
  <path d="M36.6285 24.6061V20.1619" stroke="#D40F7D" stroke-width="4" stroke-linecap="round" stroke-linejoin="round"/>
  <path d="M36.6285 53.1091V48.6613" stroke="#D40F7D" stroke-width="4" stroke-linecap="round" stroke-linejoin="round"/>
  <path d="M71.2883 36.6355C71.2883 55.7645 55.7819 71.2709 36.6355 71.2709C17.4891 71.2709 2 55.7645 2 36.6355C2 17.5064 17.5064 2 36.6355 2C55.7645 2 71.2883 17.5064 71.2883 36.6355Z" stroke="#D40F7D" stroke-width="4" stroke-linejoin="round"/>
  <path d="M36.6424 10.6597C50.9979 10.6597 62.632 22.2904 62.632 36.6389C62.632 50.9875 51.0013 62.6147 36.6424 62.6147C22.2835 62.6147 10.6632 50.984 10.6632 36.6389C10.6632 28.3224 14.5701 20.9211 20.6507 16.1648" stroke="#D40F7D" stroke-width="4" stroke-linecap="round" stroke-linejoin="round"/>
</svg>
