<svg width="107" height="64" viewBox="0 0 107 64" fill="none" xmlns="http://www.w3.org/2000/svg">
<path d="M103.423 0H33.1652C31.1913 0 29.5818 1.59406 29.5818 3.55649V9.17587H17.0634C13.7905 9.17587 10.9021 11.366 10.0417 14.5006L5.72943 30.1866L4.52146 31.3855C2.79723 33.0967 1.84907 35.3706 1.84907 37.7918V47.7112H1.73435C0.776072 47.7112 0 48.4814 0 49.4325V54.938C0 55.8891 0.776072 56.6593 1.73435 56.6593H9.41408C10.2273 60.8353 13.9355 64 18.376 64C22.8165 64 26.5248 60.8353 27.338 56.6593H31.883C32.4938 57.751 33.668 58.4945 35.0143 58.4945H49.8035C51.1499 58.4945 52.3241 57.751 52.9348 56.6593H79.6654C80.4786 60.8353 84.1869 64 88.6273 64C93.0678 64 96.7761 60.8353 97.5893 56.6593H101.571C102.529 56.6593 103.305 55.8891 103.305 54.938C103.305 53.9869 102.529 53.2167 101.571 53.2167H97.5893C97.4476 52.4933 97.2215 51.8035 96.9178 51.1538H103.417C105.39 51.1538 107 49.5597 107 47.5973V3.55649C107 1.59741 105.394 0 103.417 0H103.423ZM12.6432 18.1106C12.704 18.1173 12.7647 18.1207 12.8288 18.1207H22.1889V29.2456C22.1889 29.3092 22.1383 29.3594 22.0742 29.3594H9.55243L12.6432 18.1106ZM9.41408 53.2133H3.4687V51.1504H10.0856C9.78187 51.8001 9.5558 52.4933 9.41408 53.2133ZM18.376 60.554C15.2549 60.554 12.7141 58.0323 12.7141 54.9346C12.7141 51.837 15.2549 49.3153 18.376 49.3153C21.4972 49.3153 24.038 51.837 24.038 54.9346C24.038 58.0323 21.4972 60.554 18.376 60.554ZM23.9232 47.7078C23.9232 47.7078 23.8929 47.7078 23.8794 47.7078C22.3475 46.5558 20.441 45.8693 18.376 45.8693C16.311 45.8693 14.4046 46.5558 12.8727 47.7078C12.8592 47.7078 12.8423 47.7078 12.8288 47.7078H5.31778V45.6449H7.28157C8.23985 45.6449 9.01592 44.8747 9.01592 43.9236C9.01592 42.9725 8.23985 42.2023 7.28157 42.2023H5.31778V37.7885C5.31778 36.2882 5.90827 34.8783 6.97452 33.8168L8.00028 32.7987H22.0742C24.0481 32.7987 25.6576 31.2046 25.6576 29.2422V16.396C25.6576 15.4449 24.8815 14.6747 23.9232 14.6747H13.6724C14.3135 13.4289 15.6159 12.6118 17.0634 12.6118H29.5818V47.7045H23.9199L23.9232 47.7078ZM31.4343 51.2643V53.2133H27.338C27.1962 52.49 26.9702 51.8001 26.6665 51.1504H31.4376C31.4376 51.1873 31.4309 51.2275 31.4309 51.2643H31.4343ZM49.9216 54.9346C49.9216 54.9983 49.871 55.0485 49.8069 55.0485H35.0177C34.9536 55.0485 34.903 54.9983 34.903 54.9346C34.903 54.9346 34.903 54.9279 35.1324 54.9246V51.2643C34.903 51.2007 34.9536 51.1504 35.0177 51.1504H49.8069C49.871 51.1504 49.9216 51.2007 49.9216 51.2643V54.9346ZM79.6722 53.2133H53.3903V51.2643C53.3903 51.2241 53.387 51.1873 53.3836 51.1504H80.3436C80.04 51.8001 79.8139 52.4933 79.6722 53.2133ZM88.6341 60.554C85.5129 60.554 82.9722 58.0323 82.9722 54.9346C82.9722 51.837 85.5129 49.3153 88.6341 49.3153C91.7553 49.3153 94.296 51.837 94.296 54.9346C94.296 58.0323 91.7553 60.554 88.6341 60.554ZM103.538 33.0298H48.7643V36.4691H103.538V47.5939C103.538 47.6576 103.487 47.7078 103.423 47.7078H94.178C94.178 47.7078 94.1476 47.7078 94.1341 47.7078C92.6022 46.5558 90.6958 45.8693 88.6307 45.8693C86.5657 45.8693 84.6593 46.5558 83.1274 47.7078C83.1139 47.7078 83.1004 47.7078 83.0835 47.7078H33.0505V3.55649C33.0505 3.49286 33.1011 3.44262 33.1652 3.44262H103.423C103.487 3.44262 103.538 3.49286 103.538 3.55649V33.0298Z" fill="#D40F7D"/>
</svg>
