<svg xmlns="http://www.w3.org/2000/svg" width="56" height="71" viewBox="0 0 56 71" fill="none">
  <path d="M30.191 57.5642C27.1423 57.5642 24.5925 56.0676 23.1513 53.5178C21.1558 49.9703 21.5993 44.843 24.2876 40.4917C27.8075 34.7547 28.6389 33.0918 28.6389 33.0641C28.9161 32.4821 29.5258 32.1218 30.1632 32.1218C30.8284 32.1218 31.4104 32.4821 31.6876 33.0641C31.6876 33.0641 32.519 34.7547 36.0388 40.4917C36.0388 40.4917 36.0388 40.5471 36.0665 40.5471C38.6995 44.8984 39.1152 49.9703 37.1474 53.5178C35.7063 56.0676 33.1565 57.5642 30.1355 57.5642H30.191ZM30.1632 37.3322C29.4981 38.4962 28.528 40.1037 27.1977 42.2932C25.1745 45.619 24.7588 49.3605 26.1446 51.8549C26.976 53.3515 28.3618 54.1275 30.191 54.1552C31.9924 54.1552 33.3782 53.3515 34.2096 51.8826C35.5954 49.3883 35.1797 45.6467 33.1565 42.3209C33.1565 42.3209 33.1565 42.2932 33.1288 42.2655C31.8261 40.1037 30.8561 38.5239 30.191 37.3599L30.1632 37.3322Z" fill="#D40F7D"/>
  <path d="M48.0949 0H21.1281C17.83 0 14.9199 2.21721 14.0608 5.43215L12.481 11.3632C12.481 11.1415 12.3979 10.892 12.287 10.698L10.0698 6.84562C9.43236 5.73702 8.01889 5.37672 6.938 6.01417L5.02566 7.12277C3.36276 8.0928 2.97475 8.31452 2.91932 8.34223L2.78074 8.42538C2.72531 8.42538 2.6976 8.48081 2.64217 8.50852L1.14556 9.36769C0.0369534 10.0051 -0.323342 11.4186 0.314104 12.4995L2.53131 16.3519C2.72531 16.6845 3.03018 16.9339 3.41819 17.0171C3.77849 17.1002 4.13878 17.0725 4.47136 16.9062L4.85937 17.5991C3.30733 18.9848 2.39273 21.008 2.39273 23.0866V46.8662C2.39273 47.6699 3.03018 48.3074 3.83392 48.3074C4.63765 48.3074 5.2751 47.6699 5.2751 46.8662V23.0866C5.2751 21.5069 6.13427 20.038 7.49231 19.262L13.9776 15.5204C14.3102 15.3264 14.5596 15.0216 14.6428 14.6336L16.9154 6.18046C17.442 4.24041 19.1881 2.91008 21.1835 2.91008H48.1503C50.5892 2.91008 52.5847 4.90557 52.5847 7.34449V63.6892C52.5847 66.1282 50.5892 68.1236 48.1503 68.1236H9.65408C7.21516 68.1236 5.21967 66.1282 5.21967 63.6892V51.6609C5.21967 50.8571 4.58222 50.2197 3.77849 50.2197C2.97475 50.2197 2.3373 50.8571 2.3373 51.6609V63.6892C2.3373 67.7079 5.60768 71.006 9.65408 71.006H48.0949C52.1136 71.006 55.4117 67.7356 55.4117 63.6892V7.31678C55.4117 3.29809 52.1413 0 48.0949 0ZM9.29379 14.0793L9.62637 14.6336L7.24287 16.0193L6.91029 15.465C8.24061 14.689 8.93349 14.301 9.29379 14.0793ZM7.90803 11.5295L6.71628 9.45084L7.88032 8.78568L9.07207 10.8643L7.90803 11.5295ZM5.41368 12.9706L4.24964 13.6358L3.05789 11.5572L4.22193 10.892L5.41368 12.9706ZM12.0376 13.0261L11.8159 12.6104C12.0099 12.4995 12.1762 12.3332 12.287 12.1392L12.0653 12.9984L12.0376 13.0261Z" fill="#D40F7D"/>
  <path d="M18.8832 15.6867H37.0089C41.1661 15.6867 44.7968 12.8875 45.8777 8.86882L46.2934 7.28906C46.4043 6.84562 46.2934 6.40218 46.044 6.04188C45.7668 5.68158 45.3511 5.48758 44.9076 5.48758H21.1281C20.2967 5.48758 19.5761 6.04188 19.3544 6.84562L17.4697 13.8575C17.3589 14.301 17.4697 14.7444 17.7192 15.1047C17.9963 15.465 18.412 15.659 18.8555 15.659L18.8832 15.6867ZM20.7678 12.7766L21.9596 8.34223H43.023C42.2193 10.9752 39.7804 12.7766 37.0089 12.7766H20.7678Z" fill="#D40F7D"/>
</svg>
