<svg width="258" height="136" viewBox="0 0 258 136" fill="none" xmlns="http://www.w3.org/2000/svg">
<path d="M0.0743408 6.90013H4.43128V8.33459C5.57002 7.17218 6.93157 6.57861 8.4664 6.57861C9.13479 6.57861 9.72892 6.75174 10.224 7.09798C10.7191 7.44423 11.1152 7.96361 11.3628 8.6561C12.6005 7.27111 14.0363 6.57861 15.7197 6.57861C16.7099 6.57861 17.5021 6.94959 18.0715 7.66682C18.6656 8.38405 18.9379 9.39806 18.9379 10.7089V24.0641H14.6057V11.154C14.6057 10.6099 14.5067 10.2142 14.3334 9.99163C14.1354 9.76904 13.8631 9.64538 13.4917 9.64538C13.2442 9.64538 12.9471 9.71958 12.6253 9.84324C12.3035 9.99163 11.9817 10.1895 11.6846 10.4368V24.0641H7.35241V11.154C7.35241 10.6099 7.25338 10.2142 7.0801 9.99163C6.90681 9.76904 6.60975 9.64538 6.23842 9.64538C5.99086 9.64538 5.6938 9.71958 5.37198 9.84324C5.05016 9.99163 4.72834 10.1895 4.43128 10.4368V24.0641H0.0743408V6.90013Z" fill="#D40F7D"/>
<path d="M23.3442 23.7426C22.7501 23.3469 22.3045 22.8275 21.9827 22.1845C21.6856 21.5414 21.5123 20.8737 21.5123 20.1812C21.5123 18.8457 21.8341 17.7575 22.5025 16.9166C23.1709 16.0757 23.9384 15.4079 24.8543 14.938C25.7702 14.4681 27.008 13.9487 28.5181 13.4046V11.797C28.5181 11.1787 28.4438 10.7088 28.2705 10.412C28.0972 10.1153 27.8002 9.94214 27.3546 9.94214C26.909 9.94214 26.6119 10.0905 26.4386 10.3626C26.2654 10.6346 26.1416 11.0303 26.1168 11.5497L26.0178 12.7369L21.8094 12.5637C21.8837 10.5357 22.4035 9.02706 23.3937 8.06251C24.3592 7.09796 25.8198 6.62805 27.7507 6.62805C29.434 6.62805 30.6966 7.09796 31.563 8.01304C32.4047 8.95286 32.8503 10.2142 32.8503 11.8465V19.8349C32.8503 21.1705 32.9493 22.6049 33.1473 24.0888H29.137C29.0627 23.52 28.9389 22.7039 28.7409 21.6156C28.4933 22.4071 28.0972 23.0748 27.5279 23.5942C26.9585 24.1136 26.2654 24.3856 25.3989 24.3856C24.6067 24.3856 23.9136 24.1878 23.3195 23.7921L23.3442 23.7426ZM27.8744 20.8737C28.1468 20.6758 28.3696 20.4532 28.5428 20.1812V15.4574C27.6021 16.0015 26.909 16.5456 26.4139 17.1144C25.9188 17.6833 25.6712 18.4005 25.6712 19.2166C25.6712 19.8349 25.795 20.3048 26.0178 20.6511C26.2654 20.9973 26.5872 21.1457 27.0328 21.1457C27.3298 21.1457 27.6021 21.0468 27.8744 20.849V20.8737Z" fill="#D40F7D"/>
<path d="M37.2815 23.0998C36.6131 22.3331 36.2913 21.1459 36.2913 19.5631V9.81869H34.6079V6.87558H36.2913V1.73132H40.8463V6.90031H43.3465V9.84342H40.8463V19.1427C40.8463 20.1567 41.3414 20.6513 42.3563 20.6513C42.9009 20.6513 43.3218 20.6018 43.6436 20.5276V24.0396C42.6039 24.188 41.6632 24.2869 40.871 24.2869C39.1381 24.2869 37.9499 23.8912 37.2815 23.1245V23.0998Z" fill="#D40F7D"/>
<path d="M47.0598 22.8029C46.0696 21.7641 45.5992 20.2802 45.5992 18.3511V12.5885C45.5992 10.6594 46.0944 9.17552 47.0846 8.13678C48.0748 7.09803 49.5106 6.60339 51.3672 6.60339C53.2239 6.60339 54.6844 7.12277 55.5756 8.13678C56.4668 9.17552 56.9124 10.6842 56.9124 12.7122V15.7048H50.0552V19.0189C50.0552 19.7608 50.179 20.2802 50.4018 20.6264C50.6246 20.9727 50.9711 21.1211 51.392 21.1211C52.2832 21.1211 52.7288 20.478 52.7288 19.192V17.5349H56.8877V19.0189C56.8877 20.7501 56.4173 22.0609 55.4519 22.976C54.5112 23.8911 53.1249 24.3362 51.3425 24.3362C49.4611 24.3362 48.0253 23.8169 47.0598 22.8029ZM52.7288 13.5778V11.9208C52.7288 11.1788 52.6298 10.6347 52.407 10.3132C52.1842 9.99168 51.8376 9.81855 51.3672 9.81855C50.8969 9.81855 50.5751 9.99168 50.377 10.3627C50.179 10.7336 50.0552 11.3519 50.0552 12.267V13.6026H52.7288V13.5778Z" fill="#D40F7D"/>
<path d="M59.7841 0H64.24V24.0395H59.7841V0Z" fill="#D40F7D"/>
<path d="M68.795 23.7426C68.2009 23.3469 67.7553 22.8275 67.4335 22.1845C67.1364 21.5414 66.9631 20.8737 66.9631 20.1812C66.9631 18.8457 67.285 17.7575 67.9534 16.9166C68.6217 16.0757 69.3892 15.4079 70.3051 14.938C71.2211 14.4681 72.4588 13.9487 73.9689 13.4046V11.797C73.9689 11.1787 73.8946 10.7088 73.7213 10.412C73.5481 10.1153 73.251 9.94214 72.8054 9.94214C72.3598 9.94214 72.0627 10.0905 71.8894 10.3626C71.7162 10.6346 71.5924 11.0303 71.5676 11.5497L71.4686 12.7369L67.2602 12.5637C67.3345 10.5357 67.8543 9.02706 68.8445 8.06251C69.81 7.09796 71.2706 6.62805 73.2015 6.62805C74.8848 6.62805 76.1474 7.09796 77.0138 8.01304C77.8555 8.95286 78.3011 10.2142 78.3011 11.8465V19.8349C78.3011 21.1705 78.4001 22.6049 78.5981 24.0888H74.5878C74.5135 23.52 74.3897 22.7039 74.1917 21.6156C73.9441 22.4071 73.5481 23.0748 72.9787 23.5942C72.4093 24.1136 71.7162 24.3856 70.8497 24.3856C70.0575 24.3856 69.3644 24.1878 68.7703 23.7921L68.795 23.7426ZM73.3253 20.8737C73.5976 20.6758 73.8204 20.4532 73.9936 20.1812V15.4574C73.0529 16.0015 72.3598 16.5456 71.8647 17.1144C71.3696 17.6833 71.122 18.4005 71.122 19.2166C71.122 19.8349 71.2458 20.3048 71.4686 20.6511C71.7162 20.9973 72.038 21.1457 72.4836 21.1457C72.7806 21.1457 73.0529 21.0468 73.3253 20.849V20.8737Z" fill="#D40F7D"/>
<path d="M82.5837 23.2727C81.6182 22.5555 80.8756 21.4425 80.3557 19.9339L83.4996 18.6231C84.0938 20.379 84.9355 21.2694 86.0247 21.2694C86.4455 21.2694 86.7426 21.1705 86.9654 20.9973C87.1634 20.7995 87.2872 20.5522 87.2872 20.2059C87.2872 19.7607 87.1387 19.3403 86.8664 18.9941C86.5693 18.6478 85.9999 18.1037 85.1583 17.3617L83.5492 16.0015C82.6084 15.1853 81.8905 14.4434 81.445 13.7509C80.9994 13.0584 80.7518 12.2175 80.7518 11.2529C80.7518 10.3379 80.9746 9.54643 81.445 8.8292C81.8905 8.1367 82.5094 7.5926 83.3016 7.19689C84.0938 6.80118 84.9354 6.62805 85.8761 6.62805C87.2624 6.62805 88.4012 7.02376 89.3171 7.79046C90.2083 8.58188 90.8272 9.67009 91.1738 11.0798L88.2527 12.3906C88.0794 11.6734 87.7823 11.0798 87.3862 10.5604C86.9901 10.0658 86.5198 9.79375 85.9999 9.79375C85.6534 9.79375 85.3563 9.89268 85.1335 10.1153C84.9107 10.3379 84.8117 10.5852 84.8117 10.9314C84.8117 11.2777 84.985 11.6239 85.3068 12.0196C85.6534 12.4153 86.1732 12.91 86.8911 13.5283L88.5002 14.9627C89.4409 15.7542 90.1588 16.5209 90.6787 17.2381C91.1986 17.9553 91.4709 18.8209 91.4709 19.7855C91.4709 20.75 91.2481 21.5662 90.7777 22.2587C90.3074 22.9512 89.6885 23.4705 88.8963 23.8415C88.1041 24.2125 87.2377 24.3856 86.3217 24.3856C84.8364 24.3856 83.5987 24.0146 82.6332 23.2974L82.5837 23.2727Z" fill="#D40F7D"/>
<path d="M101.002 0.717163H105.507V4.08072H101.002V0.717163ZM101.026 6.90016H105.507V24.0642H101.026V6.90016Z" fill="#D40F7D"/>
<path d="M108.626 6.90018H113.082V8.63142C114.468 7.29589 115.855 6.60339 117.241 6.60339C118.231 6.60339 118.999 6.97437 119.519 7.6916C120.038 8.43356 120.311 9.37338 120.311 10.511V24.0395H115.83V11.2283C115.83 10.7584 115.756 10.4121 115.582 10.1648C115.434 9.94221 115.162 9.81855 114.79 9.81855C114.345 9.81855 113.775 10.0659 113.107 10.5358V24.0395H108.651V6.90018H108.626Z" fill="#D40F7D"/>
<path d="M124.594 23.2727C123.628 22.5555 122.885 21.4425 122.366 19.9339L125.51 18.6231C126.104 20.379 126.945 21.2694 128.035 21.2694C128.455 21.2694 128.752 21.1705 128.975 20.9973C129.173 20.7995 129.297 20.5522 129.297 20.2059C129.297 19.7607 129.149 19.3403 128.876 18.9941C128.579 18.6478 128.01 18.1037 127.168 17.3617L125.559 16.0015C124.618 15.1853 123.9 14.4434 123.455 13.7509C123.009 13.0584 122.762 12.2175 122.762 11.2529C122.762 10.3379 122.984 9.54643 123.455 8.8292C123.9 8.1367 124.519 7.5926 125.311 7.19689C126.104 6.80118 126.945 6.62805 127.886 6.62805C129.272 6.62805 130.411 7.02376 131.327 7.79046C132.218 8.58188 132.837 9.67009 133.184 11.0798L130.263 12.3906C130.089 11.6734 129.792 11.0798 129.396 10.5604C129 10.0658 128.53 9.79375 128.01 9.79375C127.663 9.79375 127.366 9.89268 127.143 10.1153C126.921 10.3379 126.822 10.5852 126.822 10.9314C126.822 11.2777 126.995 11.6239 127.317 12.0196C127.663 12.4153 128.183 12.91 128.901 13.5283L130.51 14.9627C131.451 15.7542 132.169 16.5209 132.689 17.2381C133.208 17.9553 133.481 18.8209 133.481 19.7855C133.481 20.75 133.258 21.5662 132.788 22.2587C132.317 22.9512 131.698 23.4705 130.906 23.8415C130.114 24.2125 129.248 24.3856 128.332 24.3856C126.846 24.3856 125.609 24.0146 124.643 23.2974L124.594 23.2727Z" fill="#D40F7D"/>
<path d="M136.699 22.8523C135.709 21.863 135.189 20.4285 135.189 18.5489V12.3659C135.189 10.4863 135.684 9.05181 136.699 8.06253C137.689 7.07325 139.125 6.57861 140.981 6.57861C142.838 6.57861 144.274 7.07325 145.264 8.06253C146.254 9.05181 146.774 10.4863 146.774 12.3659V18.5489C146.774 20.4285 146.279 21.863 145.264 22.8523C144.274 23.8416 142.838 24.3362 140.981 24.3362C139.125 24.3362 137.689 23.8416 136.699 22.8523ZM142.071 20.7006C142.269 20.3049 142.343 19.6866 142.343 18.8704V12.0691C142.343 11.253 142.244 10.6347 142.071 10.2389C141.897 9.84324 141.526 9.62065 141.006 9.62065C140.486 9.62065 140.115 9.84324 139.917 10.2637C139.719 10.6841 139.62 11.3024 139.62 12.0938V18.8952C139.62 19.6866 139.719 20.2801 139.917 20.7006C140.115 21.121 140.486 21.3189 141.006 21.3189C141.526 21.3189 141.873 21.121 142.071 20.7006Z" fill="#D40F7D"/>
<path d="M149.547 6.90018H154.003V8.63142C155.389 7.29589 156.775 6.60339 158.162 6.60339C159.152 6.60339 159.919 6.97437 160.439 7.6916C160.959 8.43356 161.231 9.37338 161.231 10.511V24.0395H156.751V11.2283C156.751 10.7584 156.676 10.4121 156.503 10.1648C156.355 9.94221 156.082 9.81855 155.711 9.81855C155.265 9.81855 154.696 10.0659 154.028 10.5358V24.0395H149.572V6.90018H149.547Z" fill="#D40F7D"/>
<path d="M165.316 22.8523C164.326 21.863 163.806 20.4285 163.806 18.5489V12.3659C163.806 10.4863 164.301 9.05181 165.316 8.06253C166.306 7.07325 167.742 6.57861 169.599 6.57861C171.455 6.57861 172.891 7.07325 173.881 8.06253C174.872 9.05181 175.392 10.4863 175.392 12.3659V18.5489C175.392 20.4285 174.896 21.863 173.881 22.8523C172.891 23.8416 171.455 24.3362 169.599 24.3362C167.742 24.3362 166.306 23.8416 165.316 22.8523ZM170.713 20.7006C170.911 20.3049 170.985 19.6866 170.985 18.8704V12.0691C170.985 11.253 170.886 10.6347 170.713 10.2389C170.539 9.84324 170.168 9.62065 169.648 9.62065C169.128 9.62065 168.757 9.84324 168.559 10.2637C168.361 10.6841 168.262 11.3024 168.262 12.0938V18.8952C168.262 19.6866 168.361 20.2801 168.559 20.7006C168.757 21.121 169.128 21.3189 169.648 21.3189C170.168 21.3189 170.515 21.121 170.713 20.7006Z" fill="#D40F7D"/>
<path d="M178.238 6.90013H182.719V9.67011C183.313 8.63137 183.883 7.88941 184.452 7.4195C185.021 6.94959 185.665 6.70227 186.432 6.70227C186.606 6.70227 186.828 6.70227 187.125 6.75173V11.3272C186.606 11.0798 186.086 10.9809 185.516 10.9809C184.427 10.9809 183.486 11.525 182.719 12.638V24.0641H178.238V6.90013Z" fill="#D40F7D"/>
<path d="M189.205 0.717163H193.71V4.08072H189.205V0.717163ZM189.23 6.90016H193.71V24.0642H189.23V6.90016Z" fill="#D40F7D"/>
<path d="M198.142 23.2727C197.176 22.5555 196.434 21.4425 195.914 19.9339L199.058 18.6231C199.652 20.379 200.493 21.2694 201.583 21.2694C202.003 21.2694 202.301 21.1705 202.523 20.9973C202.721 20.7995 202.845 20.5522 202.845 20.2059C202.845 19.7607 202.697 19.3403 202.424 18.9941C202.127 18.6478 201.558 18.1037 200.716 17.3617L199.107 16.0015C198.166 15.1853 197.449 14.4434 197.003 13.7509C196.557 13.0584 196.31 12.2175 196.31 11.2529C196.31 10.3379 196.533 9.54643 197.003 8.8292C197.449 8.1367 198.067 7.5926 198.86 7.19689C199.652 6.80118 200.493 6.62805 201.434 6.62805C202.82 6.62805 203.959 7.02376 204.875 7.79046C205.766 8.58188 206.385 9.67009 206.732 11.0798L203.811 12.3906C203.637 11.6734 203.34 11.0798 202.944 10.5604C202.548 10.0658 202.078 9.79375 201.558 9.79375C201.211 9.79375 200.914 9.89268 200.691 10.1153C200.469 10.3379 200.37 10.5852 200.37 10.9314C200.37 11.2777 200.543 11.6239 200.865 12.0196C201.211 12.4153 201.731 12.91 202.449 13.5283L204.058 14.9627C204.999 15.7542 205.717 16.5209 206.237 17.2381C206.757 17.9553 207.029 18.8209 207.029 19.7855C207.029 20.75 206.806 21.5662 206.336 22.2587C205.865 22.9512 205.246 23.4705 204.454 23.8415C203.662 24.2125 202.796 24.3856 201.88 24.3856C200.394 24.3856 199.157 24.0146 198.191 23.2974L198.142 23.2727Z" fill="#D40F7D"/>
<path d="M210.47 23.7426C209.876 23.3469 209.43 22.8275 209.108 22.1845C208.811 21.5414 208.638 20.8737 208.638 20.1812C208.638 18.8457 208.96 17.7575 209.628 16.9166C210.296 16.0757 211.064 15.4079 211.98 14.938C212.896 14.4681 214.133 13.9487 215.644 13.4046V11.797C215.644 11.1787 215.569 10.7088 215.396 10.412C215.223 10.1153 214.926 9.94214 214.48 9.94214C214.034 9.94214 213.737 10.0905 213.564 10.3626C213.391 10.6346 213.267 11.0303 213.242 11.5497L213.143 12.7369L208.935 12.5637C209.009 10.5357 209.529 9.02706 210.519 8.06251C211.485 7.09796 212.945 6.62805 214.876 6.62805C216.56 6.62805 217.822 7.09796 218.688 8.01304C219.53 8.95286 219.976 10.2142 219.976 11.8465V19.8349C219.976 21.1705 220.075 22.6049 220.273 24.0888H216.262C216.188 23.52 216.064 22.7039 215.866 21.6156C215.619 22.4071 215.223 23.0748 214.653 23.5942C214.084 24.1136 213.391 24.3856 212.524 24.3856C211.732 24.3856 211.039 24.1878 210.445 23.7921L210.47 23.7426ZM215 20.8737C215.272 20.6758 215.495 20.4532 215.668 20.1812V15.4574C214.728 16.0015 214.034 16.5456 213.539 17.1144C213.044 17.6833 212.797 18.4005 212.797 19.2166C212.797 19.8349 212.92 20.3048 213.143 20.6511C213.391 20.9973 213.713 21.1457 214.158 21.1457C214.455 21.1457 214.728 21.0468 215 20.849V20.8737Z" fill="#D40F7D"/>
<path d="M222.946 6.90018H227.402V8.63142C228.789 7.29589 230.175 6.60339 231.561 6.60339C232.551 6.60339 233.319 6.97437 233.839 7.6916C234.359 8.43356 234.631 9.37338 234.631 10.511V24.0395H230.15V11.2283C230.15 10.7584 230.076 10.4121 229.903 10.1648C229.754 9.94221 229.482 9.81855 229.11 9.81855C228.665 9.81855 228.096 10.0659 227.427 10.5358V24.0395H222.971V6.90018H222.946Z" fill="#D40F7D"/>
<path d="M239.136 23.0998C238.468 22.3331 238.146 21.1459 238.146 19.5631V9.81869H236.463V6.87558H238.146V1.73132H242.701V6.90031H245.202V9.84342H242.701V19.1427C242.701 20.1567 243.196 20.6513 244.211 20.6513C244.756 20.6513 245.177 20.6018 245.499 20.5276V24.0396C244.459 24.188 243.518 24.2869 242.726 24.2869C240.993 24.2869 239.805 23.8912 239.136 23.1245V23.0998Z" fill="#D40F7D"/>
<path d="M249.113 23.2727C248.147 22.5555 247.405 21.4425 246.885 19.9339L250.029 18.6231C250.623 20.379 251.465 21.2694 252.554 21.2694C252.975 21.2694 253.272 21.1705 253.495 20.9973C253.693 20.7995 253.816 20.5522 253.816 20.2059C253.816 19.7607 253.668 19.3403 253.396 18.9941C253.098 18.6478 252.529 18.1037 251.687 17.3617L250.078 16.0015C249.138 15.1853 248.42 14.4434 247.974 13.7509C247.529 13.0584 247.281 12.2175 247.281 11.2529C247.281 10.3379 247.504 9.54643 247.974 8.8292C248.42 8.1367 249.039 7.5926 249.831 7.19689C250.623 6.80118 251.465 6.62805 252.405 6.62805C253.792 6.62805 254.93 7.02376 255.846 7.79046C256.738 8.58188 257.356 9.67009 257.703 11.0798L254.782 12.3906C254.609 11.6734 254.311 11.0798 253.915 10.5604C253.519 10.0658 253.049 9.79375 252.529 9.79375C252.183 9.79375 251.885 9.89268 251.663 10.1153C251.44 10.3379 251.341 10.5852 251.341 10.9314C251.341 11.2777 251.514 11.6239 251.836 12.0196C252.183 12.4153 252.702 12.91 253.42 13.5283L255.029 14.9627C255.97 15.7542 256.688 16.5209 257.208 17.2381C257.728 17.9553 258 18.8209 258 19.7855C258 20.75 257.777 21.5662 257.307 22.2587C256.837 22.9512 256.218 23.4705 255.425 23.8415C254.633 24.2125 253.767 24.3856 252.851 24.3856C251.366 24.3856 250.128 24.0146 249.162 23.2974L249.113 23.2727Z" fill="#D40F7D"/>
<path d="M0.346558 35.6388H6.5849C9.18421 35.6388 11.1399 36.1087 12.4272 37.0732C13.7392 38.0131 14.3828 39.6701 14.3828 41.9949C14.3828 43.553 14.16 44.8144 13.7392 45.7789C13.2936 46.7435 12.5262 47.4607 11.4122 47.9553L14.7294 59.6783H9.70407L6.98098 48.7962H5.1986V59.6783H0.346558V35.6388ZM6.68392 45.8531C7.82267 45.8531 8.63959 45.5811 9.10994 45.0122C9.58029 44.4434 9.80309 43.553 9.80309 42.3659C9.80309 41.1788 9.60505 40.3131 9.18421 39.7443C8.76337 39.1755 8.02071 38.9034 6.93147 38.9034H5.24811V45.8531H6.70868H6.68392Z" fill="#D40F7D"/>
<path d="M18.7646 57.9966C17.6754 56.6611 17.1307 54.7072 17.1307 52.1104V43.1574C17.1307 40.5605 17.6754 38.6067 18.7646 37.3206C19.8538 36.0099 21.6857 35.3668 24.2355 35.3668C26.7853 35.3668 28.5925 36.0346 29.6817 37.3454C30.7709 38.6562 31.3403 40.61 31.3403 43.1821V52.1846C31.3403 54.7567 30.7957 56.7105 29.6817 58.0461C28.5925 59.3816 26.7606 60.0494 24.2355 60.0494C21.7105 60.0494 19.8538 59.3816 18.7646 58.0461V57.9966ZM25.9189 55.6471C26.2159 55.0782 26.3397 54.3115 26.3397 53.3223V41.9455C26.3397 40.9563 26.1912 40.1896 25.9189 39.6455C25.6466 39.1014 25.0772 38.8293 24.2355 38.8293C23.3938 38.8293 22.8492 39.1014 22.5522 39.6455C22.2551 40.1896 22.1313 40.9563 22.1313 41.9455V53.3223C22.1313 54.3363 22.2798 55.103 22.5522 55.6718C22.8245 56.2159 23.3938 56.5127 24.2355 56.5127C25.0772 56.5127 25.6218 56.2406 25.9189 55.6718V55.6471Z" fill="#D40F7D"/>
<path d="M35.8209 58.1696C34.7069 56.9578 34.1128 55.0781 34.0138 52.506L38.2222 51.7888C38.2717 53.3222 38.4698 54.4351 38.8658 55.1523C39.2619 55.8696 39.8313 56.2405 40.5987 56.2405C41.1681 56.2405 41.5889 56.0674 41.8365 55.6964C42.084 55.3255 42.2326 54.8555 42.2326 54.2867C42.2326 53.3469 42.0098 52.5307 41.5889 51.863C41.1681 51.1952 40.4997 50.478 39.5837 49.6866L37.0835 47.5101C36.0932 46.6693 35.3258 45.7789 34.806 44.8391C34.2861 43.8993 34.0138 42.7616 34.0138 41.4261C34.0138 39.4722 34.5832 37.9636 35.7467 36.9001C36.9102 35.8366 38.4945 35.3173 40.5492 35.3173C42.7277 35.3173 44.2377 35.9356 45.1042 37.1969C45.9459 38.4582 46.441 40.0411 46.5647 41.9949L42.3068 42.6132C42.2573 41.3519 42.1335 40.4121 41.886 39.8185C41.6384 39.2249 41.1433 38.9034 40.4254 38.9034C39.8808 38.9034 39.4847 39.1013 39.1877 39.5217C38.8906 39.9421 38.7421 40.4121 38.7421 40.9562C38.7421 41.7476 38.9154 42.4153 39.2619 42.9595C39.6085 43.5036 40.1531 44.0971 40.9205 44.7649L43.3466 46.8918C44.4853 47.9059 45.4012 48.9693 46.0449 50.0823C46.6885 51.1952 47.0351 52.506 47.0351 54.0147C47.0351 55.1523 46.7875 56.1911 46.2677 57.0814C45.7478 57.9718 45.0299 58.689 44.0892 59.2084C43.1485 59.7277 42.0593 59.9751 40.8463 59.9751C38.6183 59.9751 36.9597 59.3568 35.8457 58.1449L35.8209 58.1696Z" fill="#D40F7D"/>
<path d="M49.6097 35.6388H60.106V39.0271H54.4865V45.4079H58.8187V48.8209H54.4865V56.3642H60.1555V59.6783H49.6097V35.6388Z" fill="#D40F7D"/>
<path d="M70.0823 35.6388H73.4985L78.8457 48.1285V35.6388H82.9055V59.6783H79.6131L74.2659 46.3725V59.6783H70.0823V35.6388Z" fill="#D40F7D"/>
<path d="M86.5199 35.6388H97.0162V39.0271H91.3967V45.4079H95.7289V48.8209H91.3967V56.3642H97.0657V59.6783H86.5199V35.6388Z" fill="#D40F7D"/>
<path d="M102.759 46.7929L98.1797 35.6388H102.809L105.656 42.5885L108.032 35.6388H112.191L107.834 47.9553L112.612 59.6783H108.032L104.888 52.0856L102.116 59.6783H97.9817L102.735 46.7929H102.759Z" fill="#D40F7D"/>
<path d="M116.919 39.2497H113.206V35.6388H125.51V39.2497H121.846V59.6783H116.919V39.2497Z" fill="#D40F7D"/>
<path d="M136.253 57.8729C135.263 56.4384 134.743 54.3857 134.743 51.7146V43.6767C134.743 40.9562 135.263 38.8787 136.328 37.469C137.392 36.0593 139.199 35.342 141.774 35.342C144.348 35.342 146.007 35.9356 147.071 37.1475C148.111 38.3593 148.656 40.0906 148.656 42.3659V43.7509H143.903V42.0691C143.903 40.9562 143.779 40.14 143.531 39.6207C143.284 39.1013 142.714 38.8293 141.848 38.8293C140.982 38.8293 140.387 39.126 140.115 39.7196C139.868 40.3132 139.719 41.1788 139.719 42.2917V52.976C139.719 54.1136 139.868 54.9792 140.189 55.5728C140.511 56.1664 141.105 56.4879 141.972 56.4879C142.838 56.4879 143.432 56.1664 143.779 55.5234C144.126 54.8803 144.299 53.99 144.299 52.8276V50.2802H141.947V47.3123H148.73V59.6536H145.512L145.19 57.5266C144.447 59.1837 143.135 60.0246 141.229 60.0246C138.902 60.0246 137.219 59.3073 136.229 57.8729H136.253Z" fill="#D40F7D"/>
<path d="M152.097 35.6388H162.593V39.0271H156.974V45.4079H161.306V48.8209H156.974V56.3642H162.643V59.6783H152.097V35.6388Z" fill="#D40F7D"/>
<path d="M165.143 35.6388H168.559L173.906 48.1285V35.6388H177.966V59.6783H174.673L169.326 46.3725V59.6783H165.143V35.6388Z" fill="#D40F7D"/>
<path d="M180.194 35.6141H181.209L181.778 38.5572L182.397 35.6141H183.363L183.462 40.2885H182.769L182.694 37.1228L182.1 40.2885H181.506L180.887 37.0981L180.813 40.2885H180.12L180.194 35.6141Z" fill="#D40F7D"/>
<path d="M184.155 35.6141H185.294C185.69 35.6141 185.987 35.6636 186.21 35.7625C186.432 35.8615 186.581 36.0098 186.68 36.2324C186.779 36.4303 186.828 36.7271 186.828 37.0733V38.7798C186.828 39.1261 186.779 39.4229 186.68 39.6455C186.581 39.868 186.432 40.0164 186.21 40.1401C185.987 40.239 185.69 40.2885 185.294 40.2885H184.13V35.6141H184.155ZM185.294 39.6207C185.467 39.6207 185.591 39.6207 185.665 39.5465C185.739 39.4971 185.789 39.4229 185.813 39.3239C185.813 39.225 185.838 39.0766 185.838 38.9035V36.9744C185.838 36.8013 185.838 36.6529 185.813 36.5787C185.789 36.4798 185.739 36.4303 185.665 36.3808C185.591 36.3314 185.467 36.3066 185.294 36.3066H185.096V39.6455H185.294V39.6207Z" fill="#D40F7D"/>
<path d="M0.346558 71.228H10.4962V74.5916H5.1986V81.0714H9.67931V84.4844H5.1986V95.2923H0.346558V71.2528V71.228Z" fill="#D40F7D"/>
<path d="M13.046 71.228H17.9228V95.2675H13.046V71.228Z" fill="#D40F7D"/>
<path d="M21.5619 71.228H27.6765C30.0035 71.228 31.8354 71.6732 33.1226 72.5883C34.4099 73.4786 35.0535 75.1109 35.0535 77.4605C35.0535 78.8949 34.7565 80.0079 34.1376 80.824C33.5435 81.6402 32.677 82.1596 31.5383 82.3574C32.9493 82.5553 33.9891 83.1489 34.707 84.1381C35.4249 85.1274 35.7714 86.4877 35.7714 88.1942C35.7714 92.8933 33.4444 95.2675 28.7657 95.2675H21.5866V71.228H21.5619ZM27.6765 80.9477C28.8647 80.9477 29.6816 80.6756 30.1025 80.1563C30.5481 79.6122 30.7461 78.7713 30.7461 77.6089C30.7461 76.5454 30.4738 75.7787 29.9044 75.3088C29.3598 74.8389 28.4934 74.6163 27.3299 74.6163H26.4139V80.9724H27.6517L27.6765 80.9477ZM27.825 91.8298C29.0132 91.8298 29.8549 91.533 30.3253 90.9394C30.8204 90.3459 31.0432 89.406 31.0432 88.12C31.0432 86.735 30.7956 85.7457 30.2758 85.1274C29.7559 84.5091 28.9142 84.2123 27.7012 84.2123H26.3892V91.805H27.7755L27.825 91.8298Z" fill="#D40F7D"/>
<path d="M38.6431 71.228H49.1393V74.6163H43.5199V80.9972H47.852V84.4102H43.5199V91.9534H49.1888V95.2675H38.6431V71.228Z" fill="#D40F7D"/>
<path d="M51.6891 71.228H57.9274C60.5267 71.228 62.4824 71.6979 63.7697 72.6625C65.0817 73.6023 65.7253 75.2593 65.7253 77.5842C65.7253 79.1423 65.5025 80.4036 65.0817 81.3681C64.6361 82.3327 63.8687 83.0499 62.7547 83.5446L66.0719 95.2675H61.0466L58.3235 84.3854H56.5411V95.2675H51.6643V71.228H51.6891ZM58.0017 81.4671C59.1404 81.4671 59.9573 81.195 60.4277 80.6262C60.898 80.0574 61.1208 79.167 61.1208 77.9799C61.1208 76.7927 60.9228 75.9271 60.502 75.3583C60.0811 74.7894 59.3385 74.5174 58.2492 74.5174H56.5659V81.4671H58.0264H58.0017Z" fill="#D40F7D"/>
<path d="M69.9586 93.487C68.9683 92.0526 68.4485 89.9998 68.4485 87.3288V79.2909C68.4485 76.5703 68.9683 74.4929 70.0328 73.0831C71.0973 71.6734 72.9044 70.9562 75.479 70.9562C78.0536 70.9562 79.7122 71.5497 80.7766 72.7616C81.8164 73.9735 82.361 75.7047 82.361 77.9801V79.3651H77.608V77.6833C77.608 76.5703 77.4842 75.7542 77.2366 75.2348C76.9891 74.7154 76.4197 74.4434 75.5533 74.4434C74.6868 74.4434 74.0927 74.7402 73.8204 75.3337C73.5728 75.9273 73.4243 76.7929 73.4243 77.9059V88.5901C73.4243 89.7278 73.5728 90.5934 73.8947 91.1869C74.2165 91.7805 74.8106 92.102 75.677 92.102C76.5435 92.102 77.1376 91.7805 77.4842 91.1375C77.8308 90.4945 78.004 89.6041 78.004 88.4417V85.8943H75.6523V82.9265H82.4352V95.2677H79.2171L78.8952 93.1408C78.1526 94.7978 76.8405 95.6387 74.9344 95.6387C72.6074 95.6387 70.924 94.9215 69.9338 93.487H69.9586Z" fill="#D40F7D"/>
<path d="M85.8268 71.228H90.7036V91.9534H96.3726V95.2675H85.8268V71.228Z" fill="#D40F7D"/>
<path d="M102.165 71.228H107.611L112.241 95.2675H107.735L106.844 89.9749H103.032L102.116 95.2675H97.5112L102.165 71.228ZM106.349 86.9576L104.888 77.2874L103.453 86.9576H106.324H106.349Z" fill="#D40F7D"/>
<path d="M115.706 93.7836C114.592 92.5718 113.998 90.6921 113.899 88.12L118.108 87.4028C118.157 88.9362 118.355 90.0491 118.751 90.7663C119.147 91.4836 119.717 91.8545 120.484 91.8545C121.054 91.8545 121.474 91.6814 121.722 91.3104C121.97 90.9395 122.118 90.4696 122.118 89.9007C122.118 88.9609 121.895 88.1447 121.474 87.477C121.054 86.8092 120.385 86.092 119.469 85.3006L116.969 83.1242C115.979 82.2833 115.211 81.3929 114.691 80.4531C114.172 79.5133 113.899 78.3756 113.899 77.0401C113.899 75.0862 114.469 73.5776 115.632 72.5141C116.796 71.4506 118.38 70.9313 120.435 70.9313C122.613 70.9313 124.123 71.5496 124.99 72.8109C125.831 74.0722 126.326 75.6551 126.45 77.6089L122.192 78.2272C122.143 76.9659 122.019 76.0261 121.771 75.4325C121.524 74.8389 121.029 74.5174 120.311 74.5174C119.766 74.5174 119.37 74.7153 119.073 75.1357C118.776 75.5562 118.628 76.0261 118.628 76.5702C118.628 77.3616 118.801 78.0294 119.147 78.5735C119.494 79.1176 120.039 79.7111 120.806 80.3789L123.232 82.5059C124.371 83.5199 125.287 84.5833 125.93 85.6963C126.574 86.8092 126.921 88.12 126.921 89.6287C126.921 90.7663 126.673 91.8051 126.153 92.6954C125.633 93.5858 124.915 94.303 123.975 94.8224C123.034 95.3418 121.945 95.5891 120.732 95.5891C118.504 95.5891 116.845 94.9708 115.731 93.7589L115.706 93.7836Z" fill="#D40F7D"/>
<path d="M128.084 71.228H129.099L129.668 74.1711L130.287 71.228H131.253L131.352 75.9024H130.659L130.584 72.7367L129.99 75.9024H129.396L128.777 72.7119L128.703 75.9024H128.01L128.084 71.228Z" fill="#D40F7D"/>
<path d="M132.045 71.228H133.184C133.58 71.228 133.877 71.2775 134.1 71.3764C134.323 71.4753 134.471 71.6237 134.57 71.8463C134.669 72.0442 134.719 72.341 134.719 72.6872V74.3937C134.719 74.74 134.669 75.0368 134.57 75.2593C134.471 75.4819 134.323 75.6303 134.1 75.754C133.877 75.8529 133.58 75.9024 133.184 75.9024H132.02V71.228H132.045ZM133.184 75.2346C133.357 75.2346 133.481 75.2346 133.555 75.1604C133.629 75.111 133.679 75.0368 133.704 74.9378C133.704 74.8389 133.728 74.6905 133.728 74.5174V72.5883C133.728 72.4152 133.728 72.2668 133.704 72.1926C133.679 72.0936 133.629 72.0442 133.555 71.9947C133.481 71.9453 133.357 71.9205 133.184 71.9205H132.986V75.2593H133.184V75.2346Z" fill="#D40F7D"/>
<path d="M9.92688 133.874C8.98618 133.009 8.19401 132.118 7.59989 131.203C7.47611 131.203 7.30282 131.228 7.10478 131.228C4.55498 131.228 2.72309 130.56 1.63385 129.225C0.544617 127.889 0 125.935 0 123.338V114.385C0 111.789 0.544617 109.835 1.63385 108.549C2.72309 107.238 4.55498 106.595 7.10478 106.595C9.65458 106.595 11.4617 107.263 12.5509 108.573C13.6402 109.884 14.2096 111.838 14.2096 114.41V123.413C14.2096 125.193 13.962 126.677 13.4421 127.864C12.9223 129.052 12.1054 129.917 10.9666 130.486C11.9568 131.599 12.7737 132.316 13.3926 132.687L12.4024 135.704C11.6845 135.383 10.8676 134.789 9.90213 133.924L9.92688 133.874ZM8.78814 126.875C9.06045 126.306 9.20898 125.54 9.20898 124.55V113.174C9.20898 112.184 9.06045 111.418 8.78814 110.873C8.51583 110.329 7.94646 110.057 7.10478 110.057C6.2631 110.057 5.66897 110.329 5.39666 110.849C5.12435 111.393 5.00058 112.16 5.00058 113.174V124.55C5.00058 125.564 5.14911 126.356 5.42142 126.9C5.69373 127.444 6.2631 127.741 7.10478 127.741C7.94646 127.741 8.51583 127.469 8.78814 126.9V126.875Z" fill="#D40F7D"/>
<path d="M17.7991 130.09C17.2793 129.348 17.007 128.409 17.007 127.271V113.742H21.4877V126.653C21.4877 127.122 21.5619 127.493 21.7352 127.716C21.9085 127.939 22.1808 128.062 22.5769 128.062C22.973 128.062 23.5176 127.84 24.1612 127.419V113.742H28.642V130.906H24.1612V129.299C22.7997 130.56 21.4382 131.203 20.0519 131.203C19.0616 131.203 18.2942 130.832 17.7744 130.115L17.7991 130.09Z" fill="#D40F7D"/>
<path d="M31.7858 107.559H36.2912V110.923H31.7858V107.559ZM31.8105 113.742H36.2912V130.906H31.8105V113.742Z" fill="#D40F7D"/>
<path d="M40.5245 129.645C39.5343 128.606 39.064 127.122 39.064 125.193V119.431C39.064 117.502 39.5591 116.018 40.5493 114.979C41.5395 113.94 42.9753 113.446 44.832 113.446C46.6886 113.446 48.1492 113.965 49.0404 114.979C49.9315 116.018 50.3771 117.526 50.3771 119.554V122.547H43.5199V125.861C43.5199 126.603 43.6437 127.122 43.8665 127.469C44.0893 127.815 44.4359 127.963 44.8567 127.963C45.7479 127.963 46.1935 127.32 46.1935 126.034V124.377H50.3524V125.861C50.3524 127.592 49.882 128.903 48.9166 129.818C47.9511 130.733 46.5896 131.179 44.8072 131.179C42.9258 131.179 41.49 130.659 40.5245 129.645ZM45.1538 106.001H49.7335L46.0697 111.962H43.3466L45.1538 106.001ZM46.1935 120.42V118.763C46.1935 118.021 46.0945 117.477 45.8717 117.155C45.6489 116.834 45.3023 116.661 44.832 116.661C44.3616 116.661 44.0398 116.834 43.8417 117.205C43.6437 117.551 43.5199 118.194 43.5199 119.109V120.445H46.1935V120.42Z" fill="#D40F7D"/>
<path d="M54.6102 129.942C53.9418 129.175 53.62 127.988 53.62 126.405V116.661H51.9366V113.718H53.62V108.549H58.175V113.718H60.6753V116.661H58.175V125.96C58.175 126.974 58.6701 127.469 59.6851 127.469C60.2297 127.469 60.6505 127.419 60.9723 127.345V130.857C59.9326 131.005 58.9919 131.104 58.1997 131.104C56.4669 131.104 55.2786 130.709 54.6102 129.942Z" fill="#D40F7D"/>
<path d="M63.8687 130.09C63.3488 129.348 63.0765 128.409 63.0765 127.271V113.742H67.5573V126.653C67.5573 127.122 67.6315 127.493 67.8048 127.716C67.9781 127.939 68.2504 128.062 68.6465 128.062C69.0426 128.062 69.5872 127.84 70.2308 127.419V113.742H74.7115V130.906H70.2308V129.299C68.8693 130.56 67.5077 131.203 66.1214 131.203C65.1312 131.203 64.3638 130.832 63.844 130.115L63.8687 130.09Z" fill="#D40F7D"/>
<path d="M77.5337 125.515V119.233C77.5337 117.477 77.8803 116.067 78.5487 115.028C79.2171 113.99 80.232 113.446 81.5688 113.446C82.7076 113.446 83.7968 113.891 84.8365 114.806V106.842H89.3172V130.882H84.8365V129.596C83.7968 130.634 82.7076 131.178 81.5688 131.178C78.8705 131.178 77.5337 129.299 77.5337 125.515ZM84.8365 127.716V116.784C84.3167 116.488 83.8463 116.339 83.4007 116.339C82.9303 116.339 82.5838 116.537 82.361 116.958C82.1382 117.378 82.0392 117.897 82.0392 118.565V125.836C82.0392 127.419 82.4848 128.211 83.4007 128.211C83.8463 128.211 84.3167 128.037 84.8365 127.716Z" fill="#D40F7D"/>
<path d="M93.5008 129.645C92.5106 128.606 92.0403 127.122 92.0403 125.193V119.431C92.0403 117.502 92.5354 116.018 93.5256 114.979C94.5158 113.94 95.9516 113.446 97.8083 113.446C99.6649 113.446 101.125 113.965 102.017 114.979C102.908 116.018 103.353 117.526 103.353 119.554V122.547H96.4962V125.861C96.4962 126.603 96.62 127.122 96.8428 127.469C97.0656 127.815 97.4122 127.963 97.833 127.963C98.7242 127.963 99.1698 127.32 99.1698 126.034V124.377H103.329V125.861C103.329 127.592 102.858 128.903 101.893 129.818C100.927 130.733 99.5659 131.179 97.7835 131.179C95.9021 131.179 94.4663 130.659 93.5008 129.645ZM99.1451 120.42V118.763C99.1451 118.021 99.046 117.477 98.8232 117.155C98.6004 116.834 98.2539 116.661 97.7835 116.661C97.3132 116.661 96.9913 116.834 96.7933 117.205C96.5953 117.551 96.4715 118.194 96.4715 119.109V120.445H99.1451V120.42Z" fill="#D40F7D"/>
<path d="M104.888 106.842H105.903L106.473 109.785L107.092 106.842H108.057L108.156 111.517H107.463L107.389 108.351L106.795 111.517H106.2L105.582 108.326L105.507 111.517H104.814L104.888 106.842Z" fill="#D40F7D"/>
<path d="M108.849 106.842H109.988C110.384 106.842 110.681 106.892 110.904 106.991C111.127 107.089 111.275 107.238 111.374 107.46C111.473 107.658 111.523 107.955 111.523 108.301V110.008C111.523 110.354 111.473 110.651 111.374 110.873C111.275 111.096 111.127 111.244 110.904 111.368C110.681 111.467 110.384 111.517 109.988 111.517H108.824V106.842H108.849ZM109.988 110.849C110.161 110.849 110.285 110.849 110.359 110.775C110.433 110.725 110.483 110.651 110.508 110.552C110.508 110.453 110.532 110.305 110.532 110.132V108.202C110.532 108.029 110.532 107.881 110.508 107.807C110.483 107.708 110.433 107.658 110.359 107.609C110.285 107.559 110.161 107.535 109.988 107.535H109.79V110.873H109.988V110.849Z" fill="#D40F7D"/>
</svg>
