<svg width="259" height="137" viewBox="0 0 259 137" fill="none" xmlns="http://www.w3.org/2000/svg">
<path d="M0.0993652 6.92701H4.47319V8.36703C5.61635 7.20012 6.98317 6.60425 8.52395 6.60425C9.19493 6.60425 9.79136 6.77804 10.2884 7.12563C10.7854 7.47322 11.183 7.99461 11.4315 8.68979C12.6741 7.29943 14.1155 6.60425 15.8054 6.60425C16.7994 6.60425 17.5947 6.97667 18.1662 7.69667C18.7627 8.41668 19.036 9.43462 19.036 10.7505V24.1575H14.6871V11.1974C14.6871 10.6512 14.5877 10.2539 14.4137 10.0305C14.2149 9.80704 13.9415 9.6829 13.5688 9.6829C13.3202 9.6829 13.022 9.75739 12.699 9.88153C12.3759 10.0305 12.0528 10.2291 11.7546 10.4774V24.1575H7.40564V11.1974C7.40564 10.6512 7.30623 10.2539 7.13228 10.0305C6.95832 9.80704 6.6601 9.6829 6.28733 9.6829C6.03882 9.6829 5.7406 9.75739 5.41754 9.88153C5.09447 10.0305 4.7714 10.2291 4.47319 10.4774V24.1575H0.0993652V6.92701Z" fill="#D40F7D"/>
<path d="M23.4348 23.8348C22.8384 23.4376 22.3911 22.9162 22.068 22.2707C21.7698 21.6251 21.5958 20.9548 21.5958 20.2596C21.5958 18.9189 21.9189 17.8265 22.5899 16.9823C23.2609 16.1382 24.0312 15.4678 24.9507 14.9961C25.8702 14.5244 27.1128 14.003 28.6287 13.4568V11.843C28.6287 11.2223 28.5542 10.7505 28.3802 10.4526C28.2063 10.1547 27.908 9.98086 27.4607 9.98086C27.0134 9.98086 26.7152 10.1298 26.5412 10.4029C26.3673 10.676 26.243 11.0733 26.2182 11.5947L26.1188 12.7864L21.894 12.6126C21.9686 10.5767 22.4905 9.06223 23.4845 8.09395C24.4537 7.12566 25.9199 6.65393 27.8583 6.65393C29.5482 6.65393 30.8156 7.12566 31.6854 8.04429C32.5304 8.98775 32.9777 10.254 32.9777 11.8926V19.912C32.9777 21.2527 33.0771 22.6927 33.2759 24.1824H29.25C29.1755 23.6114 29.0512 22.792 28.8524 21.6996C28.6039 22.4941 28.2063 23.1645 27.6347 23.6858C27.0631 24.2072 26.3673 24.4803 25.4975 24.4803C24.7022 24.4803 24.0064 24.2817 23.41 23.8845L23.4348 23.8348ZM27.9826 20.9548C28.256 20.7562 28.4796 20.5327 28.6536 20.2596V15.5175C27.7092 16.0637 27.0134 16.6099 26.5164 17.1809C26.0194 17.752 25.7708 18.472 25.7708 19.2913C25.7708 19.912 25.8951 20.3837 26.1188 20.7313C26.3673 21.0789 26.6903 21.2279 27.1377 21.2279C27.4359 21.2279 27.7092 21.1286 27.9826 20.93V20.9548Z" fill="#D40F7D"/>
<path d="M37.4508 23.1892C36.7798 22.4195 36.4567 21.2278 36.4567 19.6388V9.85663H34.7668V6.90211H36.4567V1.73792H41.0294V6.92694H43.5393V9.88145H41.0294V19.2167C41.0294 20.2347 41.5264 20.7312 42.5453 20.7312C43.092 20.7312 43.5145 20.6816 43.8376 20.6071V24.1326C42.7938 24.2816 41.8495 24.3809 41.0542 24.3809C39.3146 24.3809 38.1218 23.9837 37.4508 23.214V23.1892Z" fill="#D40F7D"/>
<path d="M47.2423 22.8913C46.2483 21.8485 45.7761 20.3588 45.7761 18.4223V12.6374C45.7761 10.7008 46.2731 9.21113 47.2672 8.16836C48.2612 7.12559 49.7026 6.62903 51.5665 6.62903C53.4303 6.62903 54.8965 7.15041 55.7912 8.16836C56.6858 9.21113 57.1332 10.7256 57.1332 12.7615V15.7657H50.2494V19.0926C50.2494 19.8374 50.3736 20.3588 50.5973 20.7064C50.8209 21.054 51.1688 21.203 51.5913 21.203C52.486 21.203 52.9333 20.5575 52.9333 19.2664V17.6029H57.1083V19.0926C57.1083 20.8306 56.6361 22.1464 55.6669 23.0651C54.7226 23.9837 53.3309 24.4306 51.5416 24.4306C49.6529 24.4306 48.2115 23.9092 47.2423 22.8913ZM52.9333 13.6305V11.967C52.9333 11.2222 52.8339 10.676 52.6102 10.3532C52.3866 10.0304 52.0386 9.85665 51.5665 9.85665C51.0943 9.85665 50.7712 10.0304 50.5724 10.4029C50.3736 10.7753 50.2494 11.396 50.2494 12.3146V13.6553H52.9333V13.6305Z" fill="#D40F7D"/>
<path d="M60.0408 0H64.514V24.1327H60.0408V0Z" fill="#D40F7D"/>
<path d="M69.0616 23.8348C68.4652 23.4376 68.0179 22.9162 67.6948 22.2707C67.3966 21.6251 67.2227 20.9548 67.2227 20.2596C67.2227 18.9189 67.5457 17.8265 68.2167 16.9823C68.8877 16.1382 69.6581 15.4678 70.5776 14.9961C71.4971 14.5244 72.7396 14.003 74.2556 13.4568V11.843C74.2556 11.2223 74.181 10.7505 74.0071 10.4526C73.8331 10.1547 73.5349 9.98086 73.0876 9.98086C72.6402 9.98086 72.342 10.1298 72.1681 10.4029C71.9941 10.676 71.8698 11.0733 71.845 11.5947L71.7456 12.7864L67.5209 12.6126C67.5954 10.5767 68.1173 9.06223 69.1114 8.09395C70.0806 7.12566 71.5468 6.65393 73.4852 6.65393C75.1751 6.65393 76.4425 7.12566 77.3123 8.04429C78.1572 8.98775 78.6045 10.254 78.6045 11.8926V19.912C78.6045 21.2527 78.7039 22.6927 78.9028 24.1824H74.8768C74.8023 23.6114 74.678 22.792 74.4792 21.6996C74.2307 22.4941 73.8331 23.1645 73.2615 23.6858C72.6899 24.2072 71.9941 24.4803 71.1243 24.4803C70.3291 24.4803 69.6332 24.2817 69.0368 23.8845L69.0616 23.8348ZM73.6094 20.9548C73.8828 20.7562 74.1065 20.5327 74.2804 20.2596V15.5175C73.3361 16.0637 72.6402 16.6099 72.1432 17.1809C71.6462 17.752 71.3977 18.472 71.3977 19.2913C71.3977 19.912 71.5219 20.3837 71.7456 20.7313C71.9941 21.0789 72.3172 21.2279 72.7645 21.2279C73.0627 21.2279 73.3361 21.1286 73.6094 20.93V20.9548Z" fill="#D40F7D"/>
<path d="M82.9038 23.3631C81.9346 22.6431 81.1891 21.5258 80.6672 20.0113L83.8233 18.6954C84.4198 20.4582 85.2647 21.352 86.3582 21.352C86.7806 21.352 87.0789 21.2527 87.3025 21.0789C87.5013 20.8803 87.6256 20.632 87.6256 20.2844C87.6256 19.8375 87.4765 19.4155 87.2031 19.0679C86.9049 18.7203 86.3333 18.1741 85.4884 17.4292L83.873 16.0637C82.9287 15.2444 82.208 14.4995 81.7607 13.8044C81.3134 13.1092 81.0649 12.265 81.0649 11.2967C81.0649 10.3781 81.2885 9.58362 81.7607 8.86361C82.208 8.16843 82.8293 7.62222 83.6245 7.22497C84.4198 6.82773 85.2647 6.65393 86.2091 6.65393C87.6007 6.65393 88.7439 7.05118 89.6634 7.82084C90.558 8.61533 91.1793 9.70776 91.5272 11.1229L88.5948 12.4388C88.4208 11.7188 88.1226 11.1229 87.725 10.6016C87.3274 10.105 86.8552 9.8319 86.3333 9.8319C85.9854 9.8319 85.6872 9.93121 85.4635 10.1547C85.2399 10.3781 85.1405 10.6264 85.1405 10.974C85.1405 11.3216 85.3144 11.6692 85.6375 12.0664C85.9854 12.4637 86.5073 12.9602 87.228 13.5809L88.8433 15.0209C89.7876 15.8154 90.5083 16.5851 91.0302 17.3051C91.5521 18.0251 91.8255 18.8941 91.8255 19.8624C91.8255 20.8306 91.6018 21.65 91.1296 22.3451C90.6574 23.0403 90.0362 23.5617 89.2409 23.9341C88.4457 24.3065 87.5759 24.4803 86.6564 24.4803C85.1653 24.4803 83.9227 24.1079 82.9535 23.3879L82.9038 23.3631Z" fill="#D40F7D"/>
<path d="M101.393 0.719971H105.916V4.09656H101.393V0.719971ZM101.418 6.92694H105.916V24.1575H101.418V6.92694Z" fill="#D40F7D"/>
<path d="M109.047 6.92696H113.521V8.66491C114.912 7.32421 116.304 6.62903 117.696 6.62903C118.69 6.62903 119.46 7.00145 119.982 7.72145C120.504 8.46629 120.777 9.40975 120.777 10.5518V24.1327H116.279V11.2718C116.279 10.8001 116.205 10.4525 116.031 10.2042C115.881 9.98079 115.608 9.85665 115.235 9.85665C114.788 9.85665 114.216 10.1049 113.545 10.5767V24.1327H109.072V6.92696H109.047Z" fill="#D40F7D"/>
<path d="M125.076 23.3631C124.107 22.6431 123.362 21.5258 122.84 20.0113L125.996 18.6954C126.592 20.4582 127.437 21.352 128.531 21.352C128.953 21.352 129.251 21.2527 129.475 21.0789C129.674 20.8803 129.798 20.632 129.798 20.2844C129.798 19.8375 129.649 19.4155 129.376 19.0679C129.078 18.7203 128.506 18.1741 127.661 17.4292L126.046 16.0637C125.101 15.2444 124.381 14.4995 123.933 13.8044C123.486 13.1092 123.237 12.265 123.237 11.2967C123.237 10.3781 123.461 9.58362 123.933 8.86361C124.381 8.16843 125.002 7.62222 125.797 7.22497C126.592 6.82773 127.437 6.65393 128.382 6.65393C129.773 6.65393 130.917 7.05118 131.836 7.82084C132.731 8.61533 133.352 9.70776 133.7 11.1229L130.767 12.4388C130.593 11.7188 130.295 11.1229 129.898 10.6016C129.5 10.105 129.028 9.8319 128.506 9.8319C128.158 9.8319 127.86 9.93121 127.636 10.1547C127.412 10.3781 127.313 10.6264 127.313 10.974C127.313 11.3216 127.487 11.6692 127.81 12.0664C128.158 12.4637 128.68 12.9602 129.401 13.5809L131.016 15.0209C131.96 15.8154 132.681 16.5851 133.203 17.3051C133.725 18.0251 133.998 18.8941 133.998 19.8624C133.998 20.8306 133.774 21.65 133.302 22.3451C132.83 23.0403 132.209 23.5617 131.414 23.9341C130.618 24.3065 129.748 24.4803 128.829 24.4803C127.338 24.4803 126.095 24.1079 125.126 23.3879L125.076 23.3631Z" fill="#D40F7D"/>
<path d="M137.229 22.941C136.235 21.9479 135.713 20.5079 135.713 18.6209V12.414C135.713 10.5271 136.21 9.08703 137.229 8.09392C138.223 7.10081 139.664 6.60425 141.528 6.60425C143.392 6.60425 144.833 7.10081 145.827 8.09392C146.821 9.08703 147.343 10.5271 147.343 12.414V18.6209C147.343 20.5079 146.846 21.9479 145.827 22.941C144.833 23.9341 143.392 24.4307 141.528 24.4307C139.664 24.4307 138.223 23.9341 137.229 22.941ZM142.621 20.781C142.82 20.3837 142.895 19.763 142.895 18.9437V12.116C142.895 11.2967 142.795 10.676 142.621 10.2788C142.447 9.88153 142.075 9.65807 141.553 9.65807C141.031 9.65807 140.658 9.88153 140.459 10.3036C140.261 10.7257 140.161 11.3464 140.161 12.1409V18.9685C140.161 19.763 140.261 20.3589 140.459 20.781C140.658 21.203 141.031 21.4017 141.553 21.4017C142.075 21.4017 142.423 21.203 142.621 20.781Z" fill="#D40F7D"/>
<path d="M150.127 6.92696H154.6V8.66491C155.991 7.32421 157.383 6.62903 158.775 6.62903C159.769 6.62903 160.539 7.00145 161.061 7.72145C161.583 8.46629 161.856 9.40975 161.856 10.5518V24.1327H157.358V11.2718C157.358 10.8001 157.284 10.4525 157.11 10.2042C156.961 9.98079 156.687 9.85665 156.315 9.85665C155.867 9.85665 155.296 10.1049 154.625 10.5767V24.1327H150.151V6.92696H150.127Z" fill="#D40F7D"/>
<path d="M165.982 22.941C164.988 21.9479 164.466 20.5079 164.466 18.6209V12.414C164.466 10.5271 164.963 9.08703 165.982 8.09392C166.976 7.10081 168.417 6.60425 170.281 6.60425C172.145 6.60425 173.586 7.10081 174.58 8.09392C175.574 9.08703 176.096 10.5271 176.096 12.414V18.6209C176.096 20.5079 175.599 21.9479 174.58 22.941C173.586 23.9341 172.145 24.4307 170.281 24.4307C168.417 24.4307 166.976 23.9341 165.982 22.941ZM171.374 20.781C171.573 20.3837 171.648 19.763 171.648 18.9437V12.116C171.648 11.2967 171.548 10.676 171.374 10.2788C171.201 9.88153 170.828 9.65807 170.306 9.65807C169.784 9.65807 169.411 9.88153 169.212 10.3036C169.014 10.7257 168.914 11.3464 168.914 12.1409V18.9685C168.914 19.763 169.014 20.3589 169.212 20.781C169.411 21.203 169.784 21.4017 170.306 21.4017C170.828 21.4017 171.176 21.203 171.374 20.781Z" fill="#D40F7D"/>
<path d="M178.929 6.92702H183.427V9.70774C184.024 8.66497 184.595 7.92013 185.167 7.4484C185.738 6.97667 186.385 6.72839 187.155 6.72839C187.329 6.72839 187.553 6.72839 187.851 6.77805V11.3712C187.329 11.1229 186.807 11.0236 186.235 11.0236C185.142 11.0236 184.198 11.5698 183.427 12.6871V24.1576H178.929V6.92702Z" fill="#D40F7D"/>
<path d="M189.938 0.719971H194.461V4.09656H189.938V0.719971ZM189.963 6.92694H194.461V24.1575H189.963V6.92694Z" fill="#D40F7D"/>
<path d="M198.91 23.3631C197.94 22.6431 197.195 21.5258 196.673 20.0113L199.829 18.6954C200.426 20.4582 201.27 21.352 202.364 21.352C202.786 21.352 203.085 21.2527 203.308 21.0789C203.507 20.8803 203.631 20.632 203.631 20.2844C203.631 19.8375 203.482 19.4155 203.209 19.0679C202.911 18.7203 202.339 18.1741 201.494 17.4292L199.879 16.0637C198.934 15.2444 198.214 14.4995 197.766 13.8044C197.319 13.1092 197.071 12.265 197.071 11.2967C197.071 10.3781 197.294 9.58362 197.766 8.86361C198.214 8.16843 198.835 7.62222 199.63 7.22497C200.426 6.82773 201.27 6.65393 202.215 6.65393C203.606 6.65393 204.75 7.05118 205.669 7.82084C206.564 8.61533 207.185 9.70776 207.533 11.1229L204.601 12.4388C204.427 11.7188 204.128 11.1229 203.731 10.6016C203.333 10.105 202.861 9.8319 202.339 9.8319C201.991 9.8319 201.693 9.93121 201.469 10.1547C201.246 10.3781 201.146 10.6264 201.146 10.974C201.146 11.3216 201.32 11.6692 201.643 12.0664C201.991 12.4637 202.513 12.9602 203.234 13.5809L204.849 15.0209C205.793 15.8154 206.514 16.5851 207.036 17.3051C207.558 18.0251 207.831 18.8941 207.831 19.8624C207.831 20.8306 207.608 21.65 207.135 22.3451C206.663 23.0403 206.042 23.5617 205.247 23.9341C204.451 24.3065 203.582 24.4803 202.662 24.4803C201.171 24.4803 199.928 24.1079 198.959 23.3879L198.91 23.3631Z" fill="#D40F7D"/>
<path d="M211.286 23.8348C210.689 23.4376 210.242 22.9162 209.919 22.2707C209.62 21.6251 209.447 20.9548 209.447 20.2596C209.447 18.9189 209.77 17.8265 210.441 16.9823C211.112 16.1382 211.882 15.4678 212.801 14.9961C213.721 14.5244 214.964 14.003 216.479 13.4568V11.843C216.479 11.2223 216.405 10.7505 216.231 10.4526C216.057 10.1547 215.759 9.98086 215.311 9.98086C214.864 9.98086 214.566 10.1298 214.392 10.4029C214.218 10.676 214.094 11.0733 214.069 11.5947L213.969 12.7864L209.745 12.6126C209.819 10.5767 210.341 9.06223 211.335 8.09395C212.304 7.12566 213.771 6.65393 215.709 6.65393C217.399 6.65393 218.666 7.12566 219.536 8.04429C220.381 8.98775 220.828 10.254 220.828 11.8926V19.912C220.828 21.2527 220.928 22.6927 221.127 24.1824H217.101C217.026 23.6114 216.902 22.792 216.703 21.6996C216.455 22.4941 216.057 23.1645 215.485 23.6858C214.914 24.2072 214.218 24.4803 213.348 24.4803C212.553 24.4803 211.857 24.2817 211.261 23.8845L211.286 23.8348ZM215.833 20.9548C216.107 20.7562 216.33 20.5327 216.504 20.2596V15.5175C215.56 16.0637 214.864 16.6099 214.367 17.1809C213.87 17.752 213.622 18.472 213.622 19.2913C213.622 19.912 213.746 20.3837 213.969 20.7313C214.218 21.0789 214.541 21.2279 214.988 21.2279C215.287 21.2279 215.56 21.1286 215.833 20.93V20.9548Z" fill="#D40F7D"/>
<path d="M223.811 6.92696H228.284V8.66491C229.676 7.32421 231.067 6.62903 232.459 6.62903C233.453 6.62903 234.223 7.00145 234.745 7.72145C235.267 8.46629 235.54 9.40975 235.54 10.5518V24.1327H231.042V11.2718C231.042 10.8001 230.968 10.4525 230.794 10.2042C230.645 9.98079 230.371 9.85665 229.999 9.85665C229.551 9.85665 228.98 10.1049 228.309 10.5767V24.1327H223.835V6.92696H223.811Z" fill="#D40F7D"/>
<path d="M240.063 23.1892C239.392 22.4195 239.069 21.2278 239.069 19.6388V9.85663H237.379V6.90211H239.069V1.73792H243.642V6.92694H246.152V9.88145H243.642V19.2167C243.642 20.2347 244.139 20.7312 245.158 20.7312C245.705 20.7312 246.127 20.6816 246.45 20.6071V24.1326C245.406 24.2816 244.462 24.3809 243.667 24.3809C241.927 24.3809 240.734 23.9837 240.063 23.214V23.1892Z" fill="#D40F7D"/>
<path d="M250.078 23.3631C249.109 22.6431 248.364 21.5258 247.842 20.0113L250.998 18.6954C251.594 20.4582 252.439 21.352 253.533 21.352C253.955 21.352 254.253 21.2527 254.477 21.0789C254.676 20.8803 254.8 20.632 254.8 20.2844C254.8 19.8375 254.651 19.4155 254.378 19.0679C254.079 18.7203 253.508 18.1741 252.663 17.4292L251.048 16.0637C250.103 15.2444 249.383 14.4995 248.935 13.8044C248.488 13.1092 248.239 12.265 248.239 11.2967C248.239 10.3781 248.463 9.58362 248.935 8.86361C249.383 8.16843 250.004 7.62222 250.799 7.22497C251.594 6.82773 252.439 6.65393 253.384 6.65393C254.775 6.65393 255.918 7.05118 256.838 7.82084C257.733 8.61533 258.354 9.70776 258.702 11.1229L255.769 12.4388C255.595 11.7188 255.297 11.1229 254.9 10.6016C254.502 10.105 254.03 9.8319 253.508 9.8319C253.16 9.8319 252.862 9.93121 252.638 10.1547C252.414 10.3781 252.315 10.6264 252.315 10.974C252.315 11.3216 252.489 11.6692 252.812 12.0664C253.16 12.4637 253.682 12.9602 254.403 13.5809L256.018 15.0209C256.962 15.8154 257.683 16.5851 258.205 17.3051C258.727 18.0251 259 18.8941 259 19.8624C259 20.8306 258.776 21.65 258.304 22.3451C257.832 23.0403 257.211 23.5617 256.415 23.9341C255.62 24.3065 254.75 24.4803 253.831 24.4803C252.34 24.4803 251.097 24.1079 250.128 23.3879L250.078 23.3631Z" fill="#D40F7D"/>
<path d="M0.347778 35.777H6.6103C9.21968 35.777 11.1829 36.2487 12.4752 37.217C13.7923 38.1605 14.4384 39.8239 14.4384 42.1577C14.4384 43.7219 14.2148 44.9881 13.7923 45.9564C13.345 46.9247 12.5746 47.6447 11.4563 48.1413L14.7864 59.9097H9.74156L7.00792 48.9854H5.21863V59.9097H0.347778V35.777ZM6.7097 46.0309C7.85286 46.0309 8.67295 45.7578 9.14513 45.1867C9.6173 44.6157 9.84096 43.7219 9.84096 42.5302C9.84096 41.3384 9.64215 40.4694 9.21968 39.8984C8.79721 39.3274 8.05167 39.0543 6.95822 39.0543H5.26833V46.0309H6.73456H6.7097Z" fill="#D40F7D"/>
<path d="M18.8372 58.2214C17.7437 56.8807 17.197 54.9193 17.197 52.3124V43.3247C17.197 40.7178 17.7437 38.7564 18.8372 37.4653C19.9307 36.1494 21.7697 35.5039 24.3293 35.5039C26.889 35.5039 28.7032 36.1743 29.7966 37.4901C30.8901 38.806 31.4617 40.7674 31.4617 43.3495V52.3869C31.4617 54.969 30.9149 56.9304 29.7966 58.2711C28.7032 59.6118 26.8642 60.2821 24.3293 60.2821C21.7945 60.2821 19.9307 59.6118 18.8372 58.2711V58.2214ZM26.0192 55.8628C26.3174 55.2917 26.4417 54.5221 26.4417 53.5289V42.1081C26.4417 41.115 26.2926 40.3453 26.0192 39.7991C25.7459 39.2529 25.1743 38.9798 24.3293 38.9798C23.4844 38.9798 22.9377 39.2529 22.6395 39.7991C22.3412 40.3453 22.217 41.115 22.217 42.1081V53.5289C22.217 54.5469 22.3661 55.3165 22.6395 55.8876C22.9128 56.4338 23.4844 56.7317 24.3293 56.7317C25.1743 56.7317 25.721 56.4586 26.0192 55.8876V55.8628Z" fill="#D40F7D"/>
<path d="M35.9598 58.395C34.8415 57.1785 34.245 55.2916 34.1456 52.7095L38.3703 51.9895C38.42 53.5288 38.6189 54.646 39.0165 55.366C39.4141 56.0861 39.9857 56.4585 40.7561 56.4585C41.3276 56.4585 41.7501 56.2847 41.9986 55.9123C42.2471 55.5398 42.3963 55.0681 42.3963 54.4971C42.3963 53.5536 42.1726 52.7343 41.7501 52.0639C41.3276 51.3936 40.6567 50.6736 39.7372 49.8791L37.2272 47.6942C36.2331 46.8501 35.4627 45.9563 34.9409 45.0128C34.419 44.0694 34.1456 42.9273 34.1456 41.5866C34.1456 39.6252 34.7172 38.1107 35.8852 37.0431C37.0532 35.9755 38.6437 35.4541 40.7064 35.4541C42.8933 35.4541 44.4092 36.0748 45.279 37.341C46.1239 38.6072 46.621 40.1962 46.7452 42.1576L42.4708 42.7783C42.4211 41.5121 42.2968 40.5686 42.0483 39.9728C41.7998 39.3769 41.3028 39.0541 40.5821 39.0541C40.0354 39.0541 39.6378 39.2528 39.3395 39.6748C39.0413 40.0969 38.8922 40.5686 38.8922 41.1149C38.8922 41.9093 39.0662 42.5797 39.4141 43.1259C39.762 43.6721 40.3087 44.268 41.0791 44.9383L43.5146 47.0735C44.6577 48.0915 45.5772 49.1591 46.2234 50.2763C46.8695 51.3936 47.2174 52.7095 47.2174 54.224C47.2174 55.366 46.9689 56.4088 46.447 57.3026C45.9251 58.1964 45.2044 58.9164 44.2601 59.4378C43.3157 59.9592 42.2223 60.2075 41.0046 60.2075C38.768 60.2075 37.1029 59.5868 35.9846 58.3702L35.9598 58.395Z" fill="#D40F7D"/>
<path d="M49.802 35.777H60.3389V39.1784H54.6977V45.584H59.0467V49.0102H54.6977V56.5827H60.3886V59.9097H49.802V35.777Z" fill="#D40F7D"/>
<path d="M70.354 35.777H73.7835L79.1514 48.315V35.777H83.227V59.9097H79.9217L74.5539 46.5523V59.9097H70.354V35.777Z" fill="#D40F7D"/>
<path d="M86.8801 35.777H97.4171V39.1784H91.7758V45.584H96.1248V49.0102H91.7758V56.5827H97.4668V59.9097H86.8801V35.777Z" fill="#D40F7D"/>
<path d="M103.158 46.9743L98.5601 35.777H103.207L106.065 42.7536L108.451 35.777H112.626L108.252 48.1413L113.048 59.9097H108.451L105.295 52.2875L102.511 59.9097H98.3613L103.133 46.9743H103.158Z" fill="#D40F7D"/>
<path d="M117.373 39.4018H113.645V35.777H125.996V39.4018H122.318V59.9097H117.373V39.4018Z" fill="#D40F7D"/>
<path d="M136.781 58.0972C135.787 56.6572 135.265 54.5965 135.265 51.915V43.846C135.265 41.1149 135.787 39.0294 136.856 37.6142C137.924 36.199 139.739 35.479 142.323 35.479C144.908 35.479 146.573 36.0749 147.641 37.2914C148.685 38.508 149.232 40.246 149.232 42.5301V43.9205H144.46V42.2322C144.46 41.1149 144.336 40.2956 144.088 39.7742C143.839 39.2528 143.267 38.9797 142.398 38.9797C141.528 38.9797 140.931 39.2777 140.658 39.8735C140.41 40.4694 140.26 41.3384 140.26 42.4556V53.1813C140.26 54.3233 140.41 55.1923 140.733 55.7882C141.056 56.3841 141.652 56.7068 142.522 56.7068C143.392 56.7068 143.988 56.3841 144.336 55.7385C144.684 55.093 144.858 54.1992 144.858 53.0323V50.475H142.497V47.4957H149.306V59.8848H146.076L145.753 57.7496C145.007 59.4131 143.69 60.2572 141.776 60.2572C139.44 60.2572 137.751 59.5372 136.756 58.0972H136.781Z" fill="#D40F7D"/>
<path d="M152.686 35.777H163.223V39.1784H157.582V45.584H161.931V49.0102H157.582V56.5827H163.273V59.9097H152.686V35.777Z" fill="#D40F7D"/>
<path d="M165.783 35.777H169.212L174.58 48.315V35.777H178.656V59.9097H175.35L169.983 46.5523V59.9097H165.783V35.777Z" fill="#D40F7D"/>
<path d="M180.892 35.7521H181.911L182.483 38.7066L183.104 35.7521H184.073L184.173 40.4445H183.477L183.402 37.2666L182.806 40.4445H182.21L181.588 37.2417L181.514 40.4445H180.818L180.892 35.7521Z" fill="#D40F7D"/>
<path d="M185.092 40.1219C184.893 39.8488 184.769 39.4764 184.769 38.955V37.2667C184.769 36.7453 184.869 36.348 185.067 36.0998C185.266 35.8267 185.639 35.7025 186.136 35.7025C186.633 35.7025 186.956 35.8267 187.155 36.0501C187.354 36.2736 187.453 36.6211 187.453 37.068V37.4653H186.534V37.0432C186.534 36.8943 186.534 36.7949 186.534 36.6956C186.534 36.6211 186.484 36.5467 186.434 36.497C186.384 36.4474 186.285 36.4225 186.186 36.4225C186.012 36.4225 185.912 36.4722 185.863 36.5963C185.813 36.7205 185.788 36.8694 185.788 37.0929V39.2281C185.788 39.4515 185.813 39.6005 185.887 39.7246C185.937 39.8239 186.061 39.8736 186.211 39.8736C186.36 39.8736 186.484 39.8239 186.534 39.6998C186.583 39.6005 186.608 39.4267 186.608 39.2032V38.7563H187.528V39.1536C187.528 39.6005 187.428 39.9481 187.229 40.1964C187.031 40.4446 186.683 40.5688 186.211 40.5688C185.738 40.5688 185.366 40.4446 185.142 40.1715L185.092 40.1219Z" fill="#D40F7D"/>
<path d="M0.347778 71.5043H10.5368V74.8809H5.21863V81.3858H9.71671V84.812H5.21863V95.6618H0.347778V71.5291V71.5043Z" fill="#D40F7D"/>
<path d="M13.0966 71.5043H17.9923V95.637H13.0966V71.5043Z" fill="#D40F7D"/>
<path d="M21.6454 71.5043H27.7837C30.1197 71.5043 31.9587 71.9512 33.2509 72.8698C34.5432 73.7636 35.1893 75.4022 35.1893 77.7609C35.1893 79.2009 34.8911 80.3182 34.2698 81.1375C33.6734 81.9568 32.8036 82.4782 31.6605 82.6768C33.077 82.8754 34.1207 83.4713 34.8414 84.4644C35.5621 85.4575 35.91 86.8231 35.91 88.5362C35.91 93.2535 33.574 95.637 28.8771 95.637H21.6702V71.5043H21.6454ZM27.7837 81.2616C28.9765 81.2616 29.7966 80.9885 30.2191 80.4671C30.6664 79.9209 30.8652 79.0768 30.8652 77.9099C30.8652 76.8423 30.5918 76.0726 30.0203 75.6009C29.4735 75.1291 28.6037 74.9057 27.4357 74.9057H26.5162V81.2865H27.7588L27.7837 81.2616ZM27.9328 92.1859C29.1256 92.1859 29.9706 91.8879 30.4427 91.2921C30.9398 90.6962 31.1634 89.7528 31.1634 88.4617C31.1634 87.0713 30.9149 86.0782 30.393 85.4575C29.8712 84.8368 29.0262 84.5389 27.8085 84.5389H26.4914V92.161H27.8831L27.9328 92.1859Z" fill="#D40F7D"/>
<path d="M38.7928 71.5043H49.3298V74.9057H43.6885V81.3113H48.0375V84.7375H43.6885V92.31H49.3795V95.637H38.7928V71.5043Z" fill="#D40F7D"/>
<path d="M51.8895 71.5043H58.152C60.7614 71.5043 62.7246 71.976 64.0169 72.9443C65.334 73.8877 65.9801 75.5512 65.9801 77.885C65.9801 79.4492 65.7565 80.7154 65.334 81.6837C64.8867 82.652 64.1163 83.372 62.998 83.8685L66.3281 95.637H61.2833L58.5496 84.7127H56.7603V95.637H51.8646V71.5043H51.8895ZM58.2514 81.783C59.3946 81.783 60.2147 81.5099 60.6868 80.9389C61.159 80.3678 61.3827 79.474 61.3827 78.2823C61.3827 77.0905 61.1839 76.2216 60.7614 75.6505C60.3389 75.0795 59.5934 74.8064 58.4999 74.8064H56.81V81.783H58.2763H58.2514Z" fill="#D40F7D"/>
<path d="M70.2546 93.8494C69.2605 92.4094 68.7386 90.3487 68.7386 87.6672V79.5982C68.7386 76.8671 69.2605 74.7816 70.3291 73.3664C71.3977 71.9512 73.2119 71.2312 75.7964 71.2312C78.3809 71.2312 80.046 71.8271 81.1146 73.0436C82.1583 74.2602 82.7051 75.9982 82.7051 78.2823V79.6727H77.9336V77.9844C77.9336 76.8671 77.8094 76.0478 77.5608 75.5264C77.3123 75.005 76.7408 74.7319 75.871 74.7319C75.0012 74.7319 74.4047 75.0299 74.1314 75.6257C73.8829 76.2216 73.7338 77.0906 73.7338 78.2078V88.9335C73.7338 90.0755 73.8829 90.9445 74.2059 91.5404C74.529 92.1363 75.1254 92.459 75.9952 92.459C76.865 92.459 77.4614 92.1363 77.8094 91.4907C78.1573 90.8452 78.3312 89.9514 78.3312 88.7845V86.2272H75.9704V83.2479H82.7796V95.637H79.549L79.2259 93.5018C78.4803 95.1653 77.1632 96.0094 75.2497 96.0094C72.9137 96.0094 71.2238 95.2894 70.2297 93.8494H70.2546Z" fill="#D40F7D"/>
<path d="M86.1594 71.5043H91.0551V92.31H96.7461V95.637H86.1594V71.5043Z" fill="#D40F7D"/>
<path d="M102.561 71.5043H108.028L112.676 95.637H108.153L107.258 90.3238H103.431L102.511 95.637H97.8892L102.561 71.5043ZM106.761 87.2948L105.295 77.5871L103.853 87.2948H106.736H106.761Z" fill="#D40F7D"/>
<path d="M116.155 94.1472C115.037 92.9307 114.44 91.0438 114.341 88.4617L118.565 87.7417C118.615 89.281 118.814 90.3982 119.212 91.1182C119.609 91.8383 120.181 92.2107 120.951 92.2107C121.523 92.2107 121.945 92.0369 122.194 91.6645C122.442 91.292 122.591 90.8203 122.591 90.2493C122.591 89.3058 122.368 88.4865 121.945 87.8161C121.523 87.1458 120.852 86.4258 119.932 85.6313L117.422 83.4464C116.428 82.6023 115.658 81.7085 115.136 80.765C114.614 79.8216 114.341 78.6795 114.341 77.3388C114.341 75.3774 114.912 73.8629 116.08 72.7953C117.248 71.7277 118.839 71.2063 120.901 71.2063C123.088 71.2063 124.604 71.827 125.474 73.0932C126.319 74.3594 126.816 75.9484 126.94 77.9098L122.666 78.5305C122.616 77.2643 122.492 76.3208 122.243 75.725C121.995 75.1291 121.498 74.8063 120.777 74.8063C120.23 74.8063 119.833 75.005 119.535 75.427C119.236 75.8491 119.087 76.3208 119.087 76.8671C119.087 77.6615 119.261 78.3319 119.609 78.8781C119.957 79.4243 120.504 80.0202 121.274 80.6905L123.71 82.8257C124.853 83.8437 125.772 84.9113 126.418 86.0285C127.065 87.1458 127.412 88.4617 127.412 89.9762C127.412 91.1182 127.164 92.161 126.642 93.0548C126.12 93.9486 125.4 94.6686 124.455 95.19C123.511 95.7114 122.417 95.9597 121.2 95.9597C118.963 95.9597 117.298 95.339 116.18 94.1224L116.155 94.1472Z" fill="#D40F7D"/>
<path d="M128.58 71.5043H129.599L130.171 74.4588L130.792 71.5043H131.761L131.861 76.1967H131.165L131.09 73.0188L130.494 76.1967H129.898L129.276 72.9939L129.202 76.1967H128.506L128.58 71.5043Z" fill="#D40F7D"/>
<path d="M132.557 71.5043H133.7C134.097 71.5043 134.396 71.5539 134.619 71.6532C134.843 71.7525 134.992 71.9015 135.091 72.125C135.191 72.3236 135.241 72.6215 135.241 72.9691V74.6822C135.241 75.0298 135.191 75.3278 135.091 75.5512C134.992 75.7747 134.843 75.9236 134.619 76.0478C134.396 76.1471 134.097 76.1967 133.7 76.1967H132.532V71.5043H132.557ZM133.7 75.5264C133.874 75.5264 133.998 75.5264 134.073 75.4519C134.147 75.4022 134.197 75.3278 134.222 75.2285C134.222 75.1291 134.246 74.9802 134.246 74.8064V72.8698C134.246 72.696 134.246 72.547 134.222 72.4726C134.197 72.3732 134.147 72.3236 134.073 72.2739C133.998 72.2243 133.874 72.1994 133.7 72.1994H133.501V75.5512H133.7V75.5264Z" fill="#D40F7D"/>
<path d="M9.96536 134.368C9.02101 133.499 8.22577 132.606 7.62934 131.687C7.50508 131.687 7.33113 131.712 7.13232 131.712C4.57263 131.712 2.73364 131.041 1.64018 129.701C0.546728 128.36 0 126.399 0 123.792V114.804C0 112.197 0.546728 110.236 1.64018 108.945C2.73364 107.629 4.57263 106.983 7.13232 106.983C9.692 106.983 11.5061 107.654 12.5996 108.97C13.6931 110.285 14.2646 112.247 14.2646 114.829V123.866C14.2646 125.654 14.0161 127.143 13.4942 128.335C12.9724 129.527 12.1523 130.396 11.0091 130.967C12.0032 132.084 12.8233 132.804 13.4445 133.177L12.4505 136.206C11.7298 135.883 10.9097 135.287 9.94051 134.418L9.96536 134.368ZM8.8222 127.367C9.09557 126.796 9.24467 126.026 9.24467 125.033V113.612C9.24467 112.619 9.09557 111.85 8.8222 111.303C8.54884 110.757 7.97726 110.484 7.13232 110.484C6.28737 110.484 5.69094 110.757 5.41758 111.278C5.14421 111.825 5.01996 112.594 5.01996 113.612V125.033C5.01996 126.051 5.16907 126.821 5.44243 127.392C5.71579 127.938 6.28737 128.236 7.13232 128.236C7.97726 128.236 8.54884 127.963 8.8222 127.392V127.367Z" fill="#D40F7D"/>
<path d="M17.8681 130.595C17.3462 129.85 17.0729 128.906 17.0729 127.764V114.183H21.571V127.143C21.571 127.615 21.6455 127.988 21.8195 128.211C21.9934 128.435 22.2668 128.559 22.6644 128.559C23.062 128.559 23.6088 128.335 24.2549 127.913V114.183H28.753V131.414H24.2549V129.8C22.8881 131.066 21.5213 131.712 20.1296 131.712C19.1355 131.712 18.3651 131.339 17.8433 130.619L17.8681 130.595Z" fill="#D40F7D"/>
<path d="M31.9091 107.976H36.432V111.353H31.9091V107.976ZM31.9339 114.183H36.432V131.414H31.9339V114.183Z" fill="#D40F7D"/>
<path d="M40.6814 130.148C39.6874 129.105 39.2152 127.615 39.2152 125.679V119.894C39.2152 117.957 39.7122 116.468 40.7063 115.425C41.7003 114.382 43.1417 113.885 45.0056 113.885C46.8694 113.885 48.3356 114.407 49.2303 115.425C50.1249 116.468 50.5722 117.982 50.5722 120.018V123.022H43.6884V126.349C43.6884 127.094 43.8127 127.615 44.0364 127.963C44.26 128.31 44.6079 128.459 45.0304 128.459C45.9251 128.459 46.3724 127.814 46.3724 126.523V124.859H50.5474V126.349C50.5474 128.087 50.0752 129.403 49.106 130.321C48.1368 131.24 46.77 131.687 44.9807 131.687C43.092 131.687 41.6506 131.166 40.6814 130.148ZM45.3286 106.412H49.9261L46.2481 112.396H43.5145L45.3286 106.412ZM46.3724 120.887V119.223C46.3724 118.479 46.273 117.932 46.0493 117.61C45.8256 117.287 45.4777 117.113 45.0056 117.113C44.5334 117.113 44.2103 117.287 44.0115 117.659C43.8127 118.007 43.6884 118.652 43.6884 119.571V120.912H46.3724V120.887Z" fill="#D40F7D"/>
<path d="M54.8219 130.446C54.1509 129.676 53.8278 128.484 53.8278 126.895V117.113H52.1379V114.159H53.8278V108.969H58.4005V114.159H60.9104V117.113H58.4005V126.448C58.4005 127.466 58.8975 127.963 59.9164 127.963C60.4631 127.963 60.8856 127.913 61.2087 127.839V131.364C60.1649 131.513 59.2206 131.612 58.4253 131.612C56.6857 131.612 55.4929 131.215 54.8219 130.446Z" fill="#D40F7D"/>
<path d="M64.1412 130.595C63.6193 129.85 63.3459 128.906 63.3459 127.764V114.183H67.844V127.143C67.844 127.615 67.9186 127.988 68.0925 128.211C68.2665 128.435 68.5399 128.559 68.9375 128.559C69.3351 128.559 69.8818 128.335 70.528 127.913V114.183H75.026V131.414H70.528V129.8C69.1611 131.066 67.7943 131.712 66.4027 131.712C65.4086 131.712 64.6382 131.339 64.1163 130.619L64.1412 130.595Z" fill="#D40F7D"/>
<path d="M77.8342 126.002V119.695C77.8342 117.932 78.1821 116.517 78.8531 115.474C79.5241 114.432 80.543 113.886 81.885 113.886C83.0281 113.886 84.1216 114.332 85.1654 115.251V107.256H89.6634V131.389H85.1654V130.098C84.1216 131.141 83.0281 131.687 81.885 131.687C79.1762 131.687 77.8342 129.8 77.8342 126.002ZM85.1654 128.211V117.237C84.6435 116.939 84.1713 116.79 83.724 116.79C83.2518 116.79 82.9039 116.989 82.6802 117.411C82.4566 117.833 82.3572 118.355 82.3572 119.025V126.324C82.3572 127.913 82.8045 128.708 83.724 128.708C84.1713 128.708 84.6435 128.534 85.1654 128.211Z" fill="#D40F7D"/>
<path d="M93.8632 130.148C92.8691 129.105 92.397 127.615 92.397 125.679V119.894C92.397 117.957 92.894 116.467 93.8881 115.425C94.8821 114.382 96.3235 113.885 98.1873 113.885C100.051 113.885 101.517 114.407 102.412 115.425C103.307 116.467 103.754 117.982 103.754 120.018V123.022H96.8702V126.349C96.8702 127.094 96.9945 127.615 97.2181 127.963C97.4418 128.31 97.7897 128.459 98.2122 128.459C99.1068 128.459 99.5541 127.814 99.5541 126.523V124.859H103.729V126.349C103.729 128.087 103.257 129.403 102.288 130.321C101.319 131.24 99.9518 131.687 98.1625 131.687C96.2738 131.687 94.8324 131.166 93.8632 130.148ZM99.5541 120.887V119.223C99.5541 118.479 99.4547 117.932 99.2311 117.61C99.0074 117.287 98.6595 117.113 98.1873 117.113C97.7151 117.113 97.3921 117.287 97.1933 117.659C96.9945 118.007 96.8702 118.652 96.8702 119.571V120.912H99.5541V120.887Z" fill="#D40F7D"/>
<path d="M105.295 107.256H106.314L106.885 110.211L107.507 107.256H108.476L108.575 111.949H107.879L107.805 108.771L107.208 111.949H106.612L105.991 108.746L105.916 111.949H105.22L105.295 107.256Z" fill="#D40F7D"/>
<path d="M109.271 107.256H110.414C110.812 107.256 111.11 107.306 111.334 107.405C111.557 107.505 111.706 107.654 111.806 107.877C111.905 108.076 111.955 108.374 111.955 108.721V110.434C111.955 110.782 111.905 111.08 111.806 111.303C111.706 111.527 111.557 111.676 111.334 111.8C111.11 111.899 110.812 111.949 110.414 111.949H109.246V107.256H109.271ZM110.414 111.279C110.588 111.279 110.712 111.279 110.787 111.204C110.862 111.154 110.911 111.08 110.936 110.981C110.936 110.881 110.961 110.732 110.961 110.559V108.622C110.961 108.448 110.961 108.299 110.936 108.225C110.911 108.125 110.862 108.076 110.787 108.026C110.712 107.976 110.588 107.952 110.414 107.952H110.215V111.303H110.414V111.279Z" fill="#D40F7D"/>
</svg>
