<svg xmlns="http://www.w3.org/2000/svg" width="163" height="201" viewBox="0 0 163 201" fill="none">
  <path d="M48.0238 122.799C28.568 122.867 13.1398 123.277 9.72651 124.096C4.19696 125.393 3.85563 131.128 3.7191 132.152C3.58257 136.043 0.0327289 184.648 8.49773 192.977C13.0716 197.551 25.1547 198.165 26.1104 198.165C28.4314 198.165 152.949 178.573 154.587 177.89C155.065 177.685 158.82 176.456 159.298 169.834C160.799 156.25 159.571 134.131 159.571 134.131C159.571 134.131 159.844 125.939 150.286 124.574C144.893 123.823 104.275 123.004 67.9575 122.867" stroke="#D40F7D" stroke-width="4" stroke-linecap="round" stroke-linejoin="round"/>
  <path d="M27.2028 132.083C27.2028 132.083 29.8651 133.244 31.0257 135.292C32.1862 137.408 37.2379 158.707 32.8688 184.307C32.5275 185.877 31.2987 188.335 30.343 188.881" stroke="#D40F7D" stroke-width="4" stroke-linecap="round" stroke-linejoin="round"/>
  <path d="M95.4686 132.766C95.4686 132.766 98.131 134.131 99.2915 136.589C101.271 144.235 102.022 153.041 101.271 170.381" stroke="#D40F7D" stroke-width="4" stroke-linecap="round" stroke-linejoin="round"/>
  <path d="M140.183 133.653C141.002 134.268 142.026 135.292 142.641 136.589C143.255 137.886 143.596 140.48 143.665 144.713" stroke="#D40F7D" stroke-width="3.5" stroke-linecap="round" stroke-linejoin="round"/>
  <path d="M58.1955 123.823C58.761 123.823 59.2195 123.365 59.2195 122.799C59.2195 122.234 58.761 121.775 58.1955 121.775C57.63 121.775 57.1715 122.234 57.1715 122.799C57.1715 123.365 57.63 123.823 58.1955 123.823Z" fill="#D40F7D" stroke="#D40F7D" stroke-width="2" stroke-miterlimit="10"/>
  <path d="M148.648 44.0201C148.784 63.0663 148.716 96.1753 148.648 115.495" stroke="#D40F7D" stroke-width="4" stroke-linecap="round" stroke-linejoin="round"/>
  <path d="M97.3801 114.129C97.1753 76.7195 97.1753 17.6693 98.4041 12.0715C99.9742 8.18035 145.917 8.52168 147.692 12.0715C148.034 12.6859 148.307 17.6693 148.443 25.4517" stroke="#D40F7D" stroke-width="4" stroke-linecap="round" stroke-linejoin="round"/>
  <path d="M109.736 21.3557C109.736 21.3557 108.644 58.5608 109.463 95.9023" stroke="#D40F7D" stroke-width="4" stroke-linecap="round" stroke-linejoin="round"/>
  <path d="M148.443 35.8281C149.009 35.8281 149.467 35.3697 149.467 34.8041C149.467 34.2386 149.009 33.7802 148.443 33.7802C147.878 33.7802 147.419 34.2386 147.419 34.8041C147.419 35.3697 147.878 35.8281 148.443 35.8281Z" fill="#D40F7D" stroke="#D40F7D" stroke-width="2" stroke-miterlimit="10"/>
  <path d="M34.3022 113.174C34.0974 75.7638 34.0974 11.2523 35.3262 5.65451C36.8963 1.76335 82.8394 2.10468 84.6143 5.65451C84.9557 6.26891 85.2287 11.2523 85.3653 19.0347L85.57 33.3705C85.7066 52.0755 85.7066 92.5573 85.57 113.378" stroke="#D40F7D" stroke-width="4" stroke-linecap="round" stroke-linejoin="round"/>
  <path d="M46.1123 64.2268C46.1123 71.9409 46.2488 80.0646 46.3854 88.12" stroke="#D40F7D" stroke-width="4" stroke-linecap="round" stroke-linejoin="round"/>
  <path d="M46.6584 13.6416C46.6584 13.6416 46.2488 26.8853 46.1123 45.4536" stroke="#D40F7D" stroke-width="4" stroke-linecap="round" stroke-linejoin="round"/>
  <path d="M45.9759 55.6936C46.5414 55.6936 46.9999 55.2351 46.9999 54.6696C46.9999 54.1041 46.5414 53.6456 45.9759 53.6456C45.4104 53.6456 44.9519 54.1041 44.9519 54.6696C44.9519 55.2351 45.4104 55.6936 45.9759 55.6936Z" fill="#D40F7D" stroke="#D40F7D" stroke-width="2" stroke-miterlimit="10"/>
</svg>
