<svg width="226" height="132" viewBox="0 0 226 132" fill="none" xmlns="http://www.w3.org/2000/svg">
<path d="M10.7765 27.3831C9.83294 26.5142 9.03836 25.6205 8.44243 24.7019C8.31828 24.7019 8.14447 24.7267 7.94582 24.7267C5.38828 24.7267 3.55082 24.0564 2.45827 22.7158C1.36573 21.3752 0.819458 19.414 0.819458 16.8072V7.8202C0.819458 5.21347 1.36573 3.25221 2.45827 1.96126C3.55082 0.645477 5.38828 0 7.94582 0C10.5034 0 12.316 0.670303 13.4085 1.98608C14.5011 3.30186 15.0722 5.26312 15.0722 7.84503V16.8817C15.0722 18.6692 14.8239 20.1587 14.3024 21.3504C13.781 22.542 12.9616 23.4109 11.8194 23.9819C12.8126 25.0991 13.632 25.8191 14.2528 26.1915L13.2596 29.2202C12.5395 28.8975 11.7201 28.3017 10.7517 27.4328L10.7765 27.3831ZM9.65913 20.3573C9.93226 19.7863 10.0812 19.0167 10.0812 18.0237V6.62855C10.0812 5.63551 9.93226 4.8659 9.65913 4.31973C9.38599 3.77356 8.81489 3.50047 7.97065 3.50047C7.12641 3.50047 6.53048 3.77356 6.25734 4.2949C5.98421 4.84108 5.86006 5.61068 5.86006 6.62855V18.0485C5.86006 19.0664 6.00904 19.836 6.28218 20.407C6.55531 20.9532 7.12641 21.2511 7.97065 21.2511C8.81489 21.2511 9.38599 20.978 9.65913 20.407V20.3573Z" fill="#D40F7D"/>
<path d="M18.6974 23.6095C18.176 22.8648 17.9028 21.9214 17.9028 20.7794V7.17471H22.3972V20.1339C22.3972 20.6056 22.4716 20.978 22.6455 21.2014C22.8193 21.4497 23.0924 21.549 23.4897 21.549C23.887 21.549 24.4333 21.3256 25.0789 20.9035V7.17471H29.5732V24.404H25.0789V22.7903C23.7132 24.0564 22.3475 24.7019 20.957 24.7019C19.9638 24.7019 19.194 24.3295 18.6726 23.6095H18.6974Z" fill="#D40F7D"/>
<path d="M32.7267 0.993042H37.2458V4.36938H32.7267V0.993042ZM32.7515 7.17472H37.2458V24.404H32.7515V7.17472Z" fill="#D40F7D"/>
<path d="M41.4919 23.1627C40.4986 22.12 40.0269 20.6304 40.0269 18.694V12.9095C40.0269 10.9731 40.5235 9.48355 41.5167 8.44086C42.5099 7.39816 43.9501 6.90164 45.8124 6.90164C47.6747 6.90164 49.1397 7.42299 50.0336 8.44086C50.9275 9.48355 51.3744 10.9979 51.3744 13.0337V16.0376H44.4963V19.3643C44.4963 20.1091 44.6205 20.6304 44.844 20.978C45.0674 21.3256 45.4151 21.4745 45.8372 21.4745C46.7311 21.4745 47.178 20.829 47.178 19.5381V17.8747H51.3496V19.3643C51.3496 21.1021 50.8778 22.4179 49.9094 23.3365C48.9658 24.255 47.5753 24.7019 45.7875 24.7019C43.9004 24.7019 42.4602 24.1806 41.4919 23.1627ZM47.178 13.8778V12.2144C47.178 11.4696 47.0787 10.9235 46.8553 10.6007C46.6318 10.278 46.2841 10.1042 45.8124 10.1042C45.3406 10.1042 45.0178 10.278 44.8191 10.6504C44.6205 11.0228 44.4963 11.6434 44.4963 12.562V13.9026H47.178V13.8778Z" fill="#D40F7D"/>
<path d="M55.6204 23.4606C54.95 22.691 54.6272 21.4994 54.6272 19.9105V10.129H52.9387V7.17474H54.6272V2.01093H59.196V7.19957H61.7039V10.1539H59.196V19.4884C59.196 20.5063 59.6926 21.0028 60.7107 21.0028C61.257 21.0028 61.6791 20.9532 62.0019 20.8787V24.404C60.959 24.553 60.0154 24.6523 59.2208 24.6523C57.4827 24.6523 56.2908 24.255 55.6204 23.4854V23.4606Z" fill="#D40F7D"/>
<path d="M63.6655 21.3752L69.8235 3.64944H63.9635V0.273102H74.6903V2.95431L68.4082 21.0773H74.7648V24.404H63.6904V21.3752H63.6655Z" fill="#D40F7D"/>
<path d="M78.241 23.2123C77.2478 22.2193 76.7263 20.7794 76.7263 18.8926V12.6861C76.7263 10.7993 77.2229 9.3594 78.241 8.36636C79.2342 7.37332 80.6744 6.8768 82.5367 6.8768C84.399 6.8768 85.8391 7.37332 86.8323 8.36636C87.8256 9.3594 88.347 10.7993 88.347 12.6861V18.8926C88.347 20.7794 87.8504 22.2193 86.8323 23.2123C85.8391 24.2054 84.399 24.7019 82.5367 24.7019C80.6744 24.7019 79.2342 24.2054 78.241 23.2123ZM83.6292 21.0525C83.8279 20.6552 83.9023 20.0346 83.9023 19.2153V12.3882C83.9023 11.5689 83.803 10.9483 83.6292 10.5511C83.4554 10.1538 83.0829 9.9304 82.5615 9.9304C82.0401 9.9304 81.6676 10.1538 81.469 10.5759C81.2703 10.9979 81.171 11.6186 81.171 12.413V19.2402C81.171 20.0346 81.2703 20.6304 81.469 21.0525C81.6676 21.4745 82.0401 21.6731 82.5615 21.6731C83.0829 21.6731 83.4306 21.4745 83.6292 21.0525Z" fill="#D40F7D"/>
<path d="M91.1281 7.17471H95.5975V8.91253C96.9881 7.57193 98.3786 6.8768 99.7691 6.8768C100.762 6.8768 101.532 7.24919 102.053 7.96915C102.575 8.71393 102.848 9.65732 102.848 10.7993V24.3792H98.3537V11.5193C98.3537 11.0476 98.2792 10.7 98.1054 10.4517C97.9564 10.2283 97.6833 10.1042 97.3108 10.1042C96.8639 10.1042 96.2928 10.3524 95.6224 10.8241V24.3792H91.1529V7.17471H91.1281Z" fill="#D40F7D"/>
<path d="M106.92 23.1627C105.927 22.12 105.455 20.6304 105.455 18.694V12.9095C105.455 10.9731 105.952 9.48355 106.945 8.44086C107.938 7.39816 109.379 6.90164 111.241 6.90164C113.103 6.90164 114.568 7.42299 115.462 8.44086C116.356 9.48355 116.803 10.9979 116.803 13.0337V16.0376H109.925V19.3643C109.925 20.1091 110.049 20.6304 110.272 20.978C110.496 21.3256 110.844 21.4745 111.266 21.4745C112.16 21.4745 112.607 20.829 112.607 19.5381V17.8747H116.778V19.3643C116.778 21.1021 116.306 22.4179 115.338 23.3365C114.394 24.255 113.004 24.7019 111.216 24.7019C109.329 24.7019 107.889 24.1806 106.92 23.1627ZM112.607 13.8778V12.2144C112.607 11.4696 112.507 10.9235 112.284 10.6007C112.06 10.278 111.713 10.1042 111.241 10.1042C110.769 10.1042 110.446 10.278 110.248 10.6504C110.049 11.0228 109.925 11.6434 109.925 12.562V13.9026H112.607V13.8778Z" fill="#D40F7D"/>
<path d="M119.211 5.93341C118.864 5.70997 118.615 5.41206 118.442 5.03967C118.268 4.66728 118.193 4.29489 118.193 3.87285C118.193 3.4508 118.268 3.07841 118.442 2.70602C118.615 2.33363 118.864 2.03572 119.211 1.81229C119.559 1.58885 119.981 1.46472 120.503 1.46472C121.024 1.46472 121.446 1.58885 121.794 1.81229C122.141 2.03572 122.39 2.33363 122.564 2.70602C122.737 3.07841 122.812 3.47563 122.812 3.87285C122.812 4.27006 122.737 4.66728 122.564 5.03967C122.39 5.41206 122.141 5.70997 121.794 5.93341C121.446 6.15684 121.024 6.28097 120.503 6.28097C119.981 6.28097 119.559 6.15684 119.211 5.93341ZM121.595 5.68515C121.893 5.48654 122.117 5.23828 122.241 4.91554C122.39 4.5928 122.464 4.24524 122.464 3.87285C122.464 3.50046 122.39 3.15289 122.241 2.83015C122.092 2.50741 121.893 2.25915 121.595 2.06055C121.297 1.86194 120.95 1.76263 120.503 1.76263C120.056 1.76263 119.708 1.86194 119.41 2.06055C119.112 2.25915 118.889 2.50741 118.764 2.83015C118.64 3.15289 118.566 3.50046 118.566 3.87285C118.566 4.24524 118.64 4.5928 118.764 4.91554C118.913 5.23828 119.112 5.48654 119.41 5.68515C119.708 5.88375 120.08 5.98306 120.503 5.98306C120.925 5.98306 121.297 5.88375 121.595 5.68515ZM119.559 2.35846H120.503C120.85 2.35846 121.123 2.40811 121.297 2.55707C121.471 2.6812 121.545 2.87981 121.545 3.17772C121.545 3.37633 121.521 3.52528 121.446 3.62459C121.372 3.74872 121.272 3.82319 121.123 3.89767L121.645 5.31276H120.9L120.478 4.04663H120.279V5.31276H119.559V2.35846ZM120.403 3.69906C120.577 3.69906 120.701 3.64941 120.751 3.57493C120.825 3.50046 120.85 3.37633 120.85 3.20254C120.85 2.92946 120.726 2.7805 120.478 2.7805H120.254V3.67424H120.403V3.69906Z" fill="#D40F7D"/>
<path d="M1.19189 36.0226H8.8397C13.0112 36.0226 15.097 38.3314 15.097 42.9739C15.097 45.4068 14.5011 47.1446 13.3092 48.1625C12.1173 49.1804 10.4537 49.7017 8.34309 49.7017H6.08351V60.1535H1.19189V36.0226ZM7.84648 46.2509C8.88936 46.2509 9.60944 46.0026 9.95707 45.5061C10.3047 45.0096 10.5033 44.1407 10.5033 42.8746C10.5033 42.0553 10.4537 41.4098 10.3295 40.963C10.2054 40.4913 9.95707 40.1437 9.55978 39.8706C9.16249 39.6224 8.59139 39.4734 7.82165 39.4734H6.08351V46.2261H7.84648V46.2509Z" fill="#D40F7D"/>
<path d="M17.6793 36.0226H22.5709V60.1535H17.6793V36.0226Z" fill="#D40F7D"/>
<path d="M26.2211 36.0226H29.6477L35.0111 48.5597V36.0226H39.0833V60.1535H35.7808L30.4174 46.7971V60.1535H26.2211V36.0226Z" fill="#D40F7D"/>
<path d="M42.7334 36.0226H47.625V46.2013L51.9952 36.0226H56.7627L52.2435 46.8716L57.1351 60.1535H52.169L48.4444 49.379L47.6498 50.6948V60.1783H42.7582V36.0474L42.7334 36.0226Z" fill="#D40F7D"/>
<path d="M66.6204 36.0226H70.047L75.4104 48.5597V36.0226H79.4826V60.1535H76.1801L70.8167 46.7971V60.1535H66.6204V36.0226Z" fill="#D40F7D"/>
<path d="M83.1326 36.0226H93.6607V39.4237H88.0242V45.8289H92.3695V49.2549H88.0242V56.8268H93.7104V60.1535H83.1326V36.0226Z" fill="#D40F7D"/>
<path d="M99.3967 47.2191L94.803 36.0226H99.4463L102.302 42.9987L104.686 36.0226H108.857L104.487 48.3859L109.279 60.1535H104.686L101.532 52.5319L98.7511 60.1535H94.6044L99.3718 47.2191H99.3967Z" fill="#D40F7D"/>
<path d="M113.6 39.6472H109.875V36.0226H122.216V39.6472H118.541V60.1535H113.6V39.6472Z" fill="#D40F7D"/>
<path d="M132.992 58.3412C131.999 56.9013 131.478 54.8407 131.478 52.1595V44.091C131.478 41.3602 131.999 39.2748 133.067 37.8597C134.135 36.4446 135.947 35.7247 138.53 35.7247C141.112 35.7247 142.776 36.3205 143.843 37.537C144.886 38.7534 145.432 40.4913 145.432 42.7753V44.1655H140.665V42.4774C140.665 41.3602 140.541 40.5409 140.292 40.0196C140.044 39.4982 139.473 39.2251 138.604 39.2251C137.735 39.2251 137.139 39.5231 136.866 40.1189C136.618 40.7147 136.469 41.5836 136.469 42.7008V53.4256C136.469 54.5676 136.618 55.4365 136.94 56.0324C137.263 56.6282 137.859 56.9509 138.728 56.9509C139.597 56.9509 140.193 56.6282 140.541 55.9827C140.888 55.3372 141.062 54.4435 141.062 53.2767V50.7196H138.703V47.7405H145.507V60.1287H142.279L141.956 57.9936C141.211 59.657 139.895 60.501 137.983 60.501C135.649 60.501 133.961 59.7811 132.967 58.3412H132.992Z" fill="#D40F7D"/>
<path d="M148.884 36.0226H159.412V39.4237H153.776V45.8289H158.121V49.2549H153.776V56.8268H159.462V60.1535H148.884V36.0226Z" fill="#D40F7D"/>
<path d="M161.969 36.0226H165.396L170.759 48.5597V36.0226H174.832V60.1535H171.529L166.166 46.7971V60.1535H161.969V36.0226Z" fill="#D40F7D"/>
<path d="M177.936 40.4416C177.588 40.2181 177.34 39.9202 177.166 39.5478C176.992 39.1755 176.917 38.8031 176.917 38.381C176.917 37.959 176.992 37.5866 177.166 37.2142C177.34 36.8418 177.588 36.5439 177.936 36.3205C178.283 36.097 178.705 35.9729 179.227 35.9729C179.748 35.9729 180.17 36.097 180.518 36.3205C180.866 36.5439 181.114 36.8418 181.288 37.2142C181.461 37.5866 181.536 37.9838 181.536 38.381C181.536 38.7782 181.461 39.1755 181.288 39.5478C181.114 39.9202 180.866 40.2181 180.518 40.4416C180.17 40.665 179.748 40.7892 179.227 40.7892C178.705 40.7892 178.283 40.665 177.936 40.4416ZM180.319 40.1933C180.617 39.9947 180.841 39.7465 180.965 39.4237C181.089 39.101 181.188 38.7534 181.188 38.381C181.188 38.0086 181.114 37.6611 180.965 37.3383C180.816 37.0156 180.617 36.7673 180.319 36.5687C180.021 36.3701 179.674 36.2708 179.227 36.2708C178.78 36.2708 178.432 36.3701 178.134 36.5687C177.836 36.7673 177.613 37.0156 177.489 37.3383C177.34 37.6611 177.29 38.0086 177.29 38.381C177.29 38.7534 177.364 39.101 177.489 39.4237C177.613 39.7465 177.836 39.9947 178.134 40.1933C178.432 40.3919 178.805 40.4912 179.227 40.4912C179.649 40.4912 180.021 40.3919 180.319 40.1933ZM178.283 36.8666H179.227C179.574 36.8666 179.847 36.9411 180.021 37.0652C180.195 37.1894 180.27 37.4128 180.27 37.6859C180.27 37.8845 180.245 38.0335 180.17 38.1328C180.096 38.2569 179.996 38.3314 179.847 38.4058L180.369 39.8209H179.624L179.202 38.5548H179.003V39.8209H178.283V36.8666ZM179.127 38.2072C179.301 38.2072 179.425 38.1576 179.475 38.0831C179.525 38.0086 179.574 37.8845 179.574 37.7355C179.574 37.4376 179.45 37.3135 179.202 37.3135H178.978V38.2072H179.127Z" fill="#D40F7D"/>
<path d="M1.19189 71.772H11.3724V75.1484H6.05868V81.6528H10.553V85.0788H6.05868V95.9278H1.19189V71.7969V71.772Z" fill="#D40F7D"/>
<path d="M13.905 71.772H18.7966V95.9029H13.905V71.772Z" fill="#D40F7D"/>
<path d="M22.4716 71.772H28.6047C30.9388 71.772 32.7762 72.2189 34.0674 73.1375C35.3586 74.0312 36.0042 75.6697 36.0042 78.0282C36.0042 79.4681 35.7062 80.5853 35.0855 81.4045C34.4895 82.2238 33.6205 82.7451 32.4783 82.9437C33.8936 83.1424 34.9365 83.7382 35.6566 84.7312C36.3767 85.7243 36.7243 87.0897 36.7243 88.8027C36.7243 93.5196 34.3902 95.9029 29.6972 95.9029H22.4964V71.772H22.4716ZM28.6047 81.5038C29.7966 81.5038 30.616 81.2308 31.0381 80.7094C31.485 80.1632 31.6837 79.3191 31.6837 78.1523C31.6837 77.0848 31.4105 76.3152 30.8394 75.8435C30.2932 75.3718 29.4241 75.1484 28.2571 75.1484H27.3383V81.5287H28.5799L28.6047 81.5038ZM28.7537 92.4521C29.9455 92.4521 30.7898 92.1542 31.2616 91.5584C31.7582 90.9626 31.9817 90.0192 31.9817 88.7282C31.9817 87.338 31.7333 86.3449 31.2119 85.7243C30.6905 85.1036 29.8462 84.8057 28.6295 84.8057H27.3135V92.4273H28.704L28.7537 92.4521Z" fill="#D40F7D"/>
<path d="M39.6047 71.772H50.1329V75.1732H44.4964V81.5783H48.8417V85.0043H44.4964V92.5762H50.1825V95.9029H39.6047V71.772Z" fill="#D40F7D"/>
<path d="M52.6904 71.772H58.9477C61.5549 71.772 63.5165 72.2437 64.8077 73.2119C66.1237 74.1553 66.7693 75.8187 66.7693 78.1523C66.7693 79.7164 66.5458 80.9825 66.1237 81.9507C65.6767 82.9189 64.907 83.6389 63.7896 84.1354L67.1169 95.9029H62.0763L59.3449 84.9795H57.5571V95.9029H52.6655V71.772H52.6904ZM59.0221 82.05C60.1644 82.05 60.9838 81.7769 61.4555 81.2059C61.9273 80.6349 62.1508 79.7412 62.1508 78.5495C62.1508 77.3579 61.9521 76.489 61.53 75.918C61.1079 75.347 60.363 75.0739 59.2705 75.0739H57.582V82.05H59.047H59.0221Z" fill="#D40F7D"/>
<path d="M71.0153 94.0906C70.0221 92.6507 69.5006 90.5902 69.5006 87.9089V79.8405C69.5006 77.1096 70.022 75.0242 71.0898 73.6092C72.1575 72.1941 73.9701 71.4741 76.5525 71.4741C79.1349 71.4741 80.7985 72.0699 81.8662 73.2864C82.9091 74.5029 83.4554 76.2407 83.4554 78.5247V79.915H78.6879V78.2268C78.6879 77.1096 78.5638 76.2904 78.3155 75.769C78.0671 75.2477 77.496 74.9746 76.627 74.9746C75.7579 74.9746 75.162 75.2725 74.8888 75.8683C74.6405 76.4642 74.4915 77.3331 74.4915 78.4502V89.1751C74.4915 90.3171 74.6405 91.186 74.9633 91.7818C75.2861 92.3776 75.8821 92.7004 76.7511 92.7004C77.6202 92.7004 78.2161 92.3776 78.5638 91.7322C78.9114 91.0867 79.0852 90.1929 79.0852 89.0261V86.469H76.7263V83.4899H83.5299V95.8781H80.3019L79.9791 93.7431C79.2342 95.4064 77.9182 96.2505 76.0062 96.2505C73.6721 96.2505 71.9837 95.5305 70.9904 94.0906H71.0153Z" fill="#D40F7D"/>
<path d="M86.9069 71.772H91.7985V92.5762H97.4847V95.9029H86.9069V71.772Z" fill="#D40F7D"/>
<path d="M103.295 71.772H108.758L113.401 95.9029H108.882L107.988 90.5902H104.164L103.245 95.9029H98.6268L103.295 71.772ZM107.516 87.5614L106.051 77.8544L104.611 87.5614H107.491H107.516Z" fill="#D40F7D"/>
<path d="M116.902 94.3886C115.785 93.1721 115.189 91.2853 115.089 88.7034L119.311 87.9834C119.36 89.5227 119.559 90.6398 119.956 91.3598C120.354 92.0797 120.925 92.4521 121.694 92.4521C122.266 92.4521 122.688 92.2783 122.936 91.906C123.184 91.5336 123.333 91.0619 123.333 90.4909C123.333 89.5475 123.11 88.7282 122.688 88.0579C122.266 87.3876 121.595 86.6677 120.676 85.8732L118.168 83.6885C117.175 82.8445 116.405 81.9507 115.884 81.0073C115.363 80.0639 115.089 78.9219 115.089 77.5813C115.089 75.6201 115.661 74.1057 116.828 73.0382C117.995 71.9707 119.584 71.4493 121.645 71.4493C123.83 71.4493 125.344 72.07 126.214 73.3361C127.058 74.6022 127.554 76.1911 127.679 78.1523L123.408 78.773C123.358 77.5069 123.234 76.5635 122.986 75.9676C122.737 75.3718 122.241 75.0491 121.521 75.0491C120.974 75.0491 120.577 75.2477 120.279 75.6697C119.981 76.0918 119.832 76.5635 119.832 77.1096C119.832 77.9041 120.006 78.5744 120.354 79.1205C120.701 79.6667 121.247 80.2625 122.017 80.9329L124.451 83.0679C125.593 84.0858 126.512 85.1533 127.157 86.2704C127.803 87.3876 128.15 88.7034 128.15 90.2178C128.15 91.3598 127.902 92.4025 127.381 93.2962C126.859 94.19 126.139 94.9099 125.196 95.4313C124.252 95.9526 123.159 96.2009 121.943 96.2009C119.708 96.2009 118.044 95.5802 116.927 94.3637L116.902 94.3886Z" fill="#D40F7D"/>
<path d="M130.187 76.1911C129.839 75.9677 129.591 75.6698 129.417 75.2974C129.243 74.925 129.168 74.5526 129.168 74.1305C129.168 73.7085 129.243 73.3361 129.417 72.9637C129.591 72.5913 129.839 72.2934 130.187 72.07C130.534 71.8465 130.956 71.7224 131.478 71.7224C131.999 71.7224 132.421 71.8465 132.769 72.07C133.117 72.2934 133.365 72.5913 133.539 72.9637C133.712 73.3361 133.787 73.7333 133.787 74.1305C133.787 74.5278 133.712 74.925 133.539 75.2974C133.365 75.6698 133.117 75.9677 132.769 76.1911C132.421 76.4145 131.999 76.5387 131.478 76.5387C130.956 76.5387 130.534 76.4145 130.187 76.1911ZM132.545 75.9428C132.843 75.7442 133.067 75.496 133.191 75.1732C133.315 74.8505 133.414 74.5029 133.414 74.1305C133.414 73.7581 133.34 73.4106 133.191 73.0878C133.042 72.7651 132.843 72.5168 132.545 72.3182C132.247 72.1196 131.9 72.0203 131.453 72.0203C131.006 72.0203 130.658 72.1196 130.36 72.3182C130.062 72.5168 129.839 72.7651 129.715 73.0878C129.566 73.4106 129.516 73.7581 129.516 74.1305C129.516 74.5029 129.591 74.8505 129.715 75.1732C129.839 75.496 130.062 75.7442 130.36 75.9428C130.658 76.1414 131.031 76.2407 131.453 76.2407C131.875 76.2407 132.247 76.1414 132.545 75.9428ZM130.509 72.6162H131.453C131.8 72.6162 132.074 72.6906 132.247 72.8148C132.421 72.9389 132.496 73.1623 132.496 73.4354C132.496 73.634 132.471 73.783 132.396 73.8823C132.322 74.0064 132.223 74.0809 132.074 74.1554L132.595 75.5704H131.85L131.428 74.3043H131.229V75.5704H130.509V72.6162ZM131.378 73.9568C131.552 73.9568 131.676 73.9071 131.726 73.8326C131.776 73.7581 131.825 73.634 131.825 73.4851C131.825 73.1872 131.701 73.063 131.453 73.063H131.229V73.9568H131.378Z" fill="#D40F7D"/>
<path d="M4.66814 107.522H10.1309L14.7742 131.652H10.255L9.36111 126.34H5.53721L4.61848 131.652H0L4.66814 107.522ZM8.88933 123.311L7.42433 113.604L5.98416 123.311H8.8645H8.88933Z" fill="#D40F7D"/>
<path d="M18.0518 130.361C17.0834 129.319 16.5868 127.829 16.5868 125.918V120.108C16.5868 118.172 17.0834 116.707 18.0518 115.664C19.0202 114.622 20.4604 114.125 22.3475 114.125C24.2346 114.125 25.6003 114.572 26.5438 115.441C27.4874 116.31 27.9592 117.626 27.9592 119.364V121.002H23.6387V119.239C23.6387 118.495 23.5393 117.973 23.3407 117.675C23.1421 117.377 22.8193 117.253 22.3971 117.253C21.9254 117.253 21.5777 117.427 21.4039 117.799C21.2053 118.147 21.1308 118.793 21.1308 119.686V126.489C21.1308 127.382 21.2301 128.003 21.4536 128.326C21.6771 128.648 21.975 128.822 22.422 128.822C22.8689 128.822 23.1917 128.673 23.3904 128.351C23.589 128.028 23.6635 127.531 23.6635 126.836V124.751H27.984V126.662C27.984 128.4 27.5122 129.716 26.5438 130.61C25.6003 131.503 24.2098 131.975 22.3723 131.975C20.5348 131.975 19.045 131.454 18.0766 130.386L18.0518 130.361Z" fill="#D40F7D"/>
<path d="M31.6837 130.461C30.6905 129.468 30.1691 128.028 30.1691 126.141V119.935C30.1691 118.048 30.6657 116.608 31.6837 115.615C32.677 114.622 34.1171 114.125 35.9794 114.125C37.8417 114.125 39.2819 114.622 40.2751 115.615C41.2683 116.608 41.7898 118.048 41.7898 119.935V126.141C41.7898 128.028 41.2931 129.468 40.2751 130.461C39.2819 131.454 37.8417 131.95 35.9794 131.95C34.1171 131.95 32.677 131.454 31.6837 130.461ZM37.072 128.301C37.2706 127.904 37.3451 127.283 37.3451 126.464V119.637C37.3451 118.817 37.2458 118.197 37.072 117.799C36.8981 117.402 36.5257 117.179 36.0042 117.179C35.4828 117.179 35.1103 117.402 34.9117 117.824C34.7131 118.246 34.6137 118.867 34.6137 119.661V126.489C34.6137 127.283 34.7131 127.879 34.9117 128.301C35.1103 128.723 35.4828 128.922 36.0042 128.922C36.5257 128.922 36.8733 128.723 37.072 128.301Z" fill="#D40F7D"/>
<path d="M45.1916 130.858C44.6701 130.113 44.397 129.17 44.397 128.028V114.448H48.8913V127.407C48.8913 127.879 48.9658 128.251 49.1396 128.475C49.3134 128.698 49.5866 128.822 49.9838 128.822C50.3811 128.822 50.9274 128.599 51.573 128.177V114.448H56.0673V131.677H51.573V130.064C50.2073 131.33 48.8416 131.975 47.4511 131.975C46.4579 131.975 45.6882 131.603 45.1667 130.883L45.1916 130.858Z" fill="#D40F7D"/>
<path d="M60.4872 130.858C59.5188 130.138 58.7739 129.021 58.2524 127.506L61.4059 126.191C62.0019 127.953 62.8461 128.847 63.9386 128.847C64.3608 128.847 64.6587 128.748 64.8822 128.574C65.1057 128.4 65.205 128.127 65.205 127.78C65.205 127.333 65.056 126.911 64.7829 126.563C64.4849 126.191 63.9138 125.669 63.0696 124.925L61.4556 123.559C60.512 122.74 59.7919 121.995 59.345 121.3C58.898 120.605 58.6497 119.761 58.6497 118.793C58.6497 117.874 58.8732 117.08 59.345 116.36C59.7919 115.664 60.4127 115.118 61.2073 114.721C62.0019 114.324 62.8461 114.15 63.7897 114.15C65.1802 114.15 66.3224 114.547 67.2411 115.317C68.135 116.111 68.7558 117.204 69.1034 118.619L66.1734 119.935C65.9996 119.215 65.7016 118.619 65.3043 118.097C64.907 117.576 64.4352 117.328 63.9138 117.328C63.5662 117.328 63.2682 117.427 63.0447 117.651C62.8213 117.849 62.7219 118.122 62.7219 118.47C62.7219 118.817 62.8958 119.165 63.2185 119.562C63.5662 119.959 64.0876 120.456 64.8077 121.077L66.4217 122.516C67.3652 123.311 68.0853 124.08 68.6068 124.8C69.1282 125.545 69.4014 126.389 69.4014 127.358C69.4014 128.326 69.1779 129.145 68.7061 129.84C68.2343 130.535 67.6136 131.057 66.819 131.429C66.0244 131.801 65.1553 131.975 64.2366 131.975C62.7468 131.975 61.5052 131.603 60.5369 130.883L60.4872 130.858Z" fill="#D40F7D"/>
<path d="M73.0514 130.709C72.381 129.939 72.0582 128.748 72.0582 127.159V117.377H70.3698V114.423H72.0582V109.235H76.627V114.423H79.1349V117.377H76.627V126.712C76.627 127.73 77.1237 128.226 78.1417 128.226C78.688 128.226 79.1101 128.177 79.4329 128.102V131.628C78.39 131.777 77.4465 131.876 76.6519 131.876C74.9137 131.876 73.7219 131.479 73.0514 130.709Z" fill="#D40F7D"/>
<path d="M81.767 108.241H86.2861V111.618H81.767V108.241ZM81.7918 114.423H86.2861V131.652H81.7918V114.423Z" fill="#D40F7D"/>
<path d="M90.5321 130.361C89.5637 129.319 89.0671 127.829 89.0671 125.918V120.108C89.0671 118.172 89.5637 116.707 90.5321 115.664C91.5005 114.622 92.9407 114.125 94.8278 114.125C96.7149 114.125 98.0806 114.572 99.0242 115.441C99.9677 116.31 100.44 117.626 100.44 119.364V121.002H96.119V119.239C96.119 118.495 96.0197 117.973 95.821 117.675C95.6224 117.377 95.2996 117.253 94.8775 117.253C94.4057 117.253 94.0581 117.427 93.8843 117.799C93.6856 118.147 93.6111 118.793 93.6111 119.686V126.489C93.6111 127.382 93.7105 128.003 93.9339 128.326C94.1574 128.648 94.4554 128.822 94.9023 128.822C95.3493 128.822 95.6721 128.673 95.8707 128.351C96.0694 128.028 96.1438 127.531 96.1438 126.836V124.751H100.464V126.662C100.464 128.4 99.9926 129.716 99.0242 130.61C98.0806 131.503 96.6901 131.975 94.8527 131.975C93.0152 131.975 91.5254 131.454 90.557 130.386L90.5321 130.361Z" fill="#D40F7D"/>
<path d="M110.794 107.522H115.685V131.652H110.794V107.522Z" fill="#D40F7D"/>
<path d="M119.062 114.423H123.532V116.161C124.922 114.82 126.313 114.125 127.703 114.125C128.697 114.125 129.466 114.498 129.988 115.218C130.509 115.962 130.782 116.906 130.782 118.048V131.628H126.288V118.768C126.288 118.296 126.214 117.948 126.04 117.7C125.891 117.477 125.618 117.353 125.245 117.353C124.798 117.353 124.227 117.601 123.557 118.073V131.628H119.087V114.398L119.062 114.423Z" fill="#D40F7D"/>
<path d="M135.078 130.858C134.11 130.138 133.365 129.021 132.843 127.506L135.997 126.191C136.593 127.953 137.437 128.847 138.529 128.847C138.952 128.847 139.25 128.748 139.473 128.574C139.696 128.4 139.796 128.127 139.796 127.78C139.796 127.333 139.647 126.911 139.374 126.563C139.076 126.191 138.505 125.669 137.66 124.925L136.046 123.559C135.103 122.74 134.383 121.995 133.936 121.3C133.489 120.605 133.241 119.761 133.241 118.793C133.241 117.874 133.464 117.08 133.936 116.36C134.383 115.664 135.004 115.118 135.798 114.721C136.593 114.324 137.437 114.15 138.38 114.15C139.771 114.15 140.913 114.547 141.832 115.317C142.726 116.111 143.347 117.204 143.694 118.619L140.764 119.935C140.59 119.215 140.292 118.619 139.895 118.097C139.498 117.576 139.026 117.328 138.505 117.328C138.157 117.328 137.859 117.427 137.636 117.651C137.412 117.849 137.313 118.122 137.313 118.47C137.313 118.817 137.487 119.165 137.809 119.562C138.157 119.959 138.678 120.456 139.399 121.077L141.013 122.516C141.956 123.311 142.676 124.08 143.198 124.8C143.719 125.545 143.992 126.389 143.992 127.358C143.992 128.326 143.769 129.145 143.297 129.84C142.825 130.535 142.204 131.057 141.41 131.429C140.615 131.801 139.746 131.975 138.827 131.975C137.338 131.975 136.096 131.603 135.128 130.883L135.078 130.858Z" fill="#D40F7D"/>
<path d="M146.674 130.858C146.152 130.113 145.879 129.17 145.879 128.028V114.448H150.374V127.407C150.374 127.879 150.448 128.251 150.622 128.475C150.796 128.698 151.069 128.822 151.466 128.822C151.863 128.822 152.41 128.599 153.055 128.177V114.448H157.55V131.677H153.055V130.064C151.69 131.33 150.324 131.975 148.933 131.975C147.94 131.975 147.17 131.603 146.649 130.883L146.674 130.858Z" fill="#D40F7D"/>
<path d="M160.877 107.522H165.346V131.652H160.877V107.522Z" fill="#D40F7D"/>
<path d="M169.891 131.355C169.295 130.957 168.848 130.436 168.525 129.79C168.202 129.145 168.053 128.475 168.053 127.78C168.053 126.439 168.376 125.347 169.046 124.503C169.717 123.658 170.486 122.988 171.405 122.516C172.324 122.045 173.565 121.523 175.08 120.977V119.364C175.08 118.743 175.006 118.271 174.832 117.973C174.658 117.675 174.36 117.502 173.913 117.502C173.466 117.502 173.168 117.651 172.994 117.924C172.821 118.197 172.696 118.594 172.672 119.115L172.572 120.307L168.351 120.133C168.426 118.097 168.947 116.583 169.94 115.615C170.909 114.647 172.374 114.175 174.31 114.175C175.999 114.175 177.265 114.647 178.134 115.565C179.003 116.484 179.425 117.775 179.425 119.413V127.432C179.425 128.773 179.525 130.213 179.723 131.702H175.701C175.626 131.131 175.502 130.312 175.304 129.219C175.055 130.014 174.658 130.684 174.087 131.206C173.516 131.727 172.821 132 171.951 132C171.157 132 170.462 131.801 169.866 131.404L169.891 131.355ZM174.435 128.475C174.708 128.276 174.931 128.053 175.105 127.78V123.038C174.161 123.584 173.466 124.13 172.97 124.701C172.473 125.272 172.225 125.992 172.225 126.811C172.225 127.432 172.349 127.904 172.572 128.251C172.821 128.599 173.143 128.748 173.59 128.748C173.888 128.748 174.161 128.648 174.435 128.45V128.475Z" fill="#D40F7D"/>
<path d="M183.895 130.709C183.225 129.939 182.902 128.748 182.902 127.159V117.377H181.213V114.423H182.902V109.235H187.471V114.423H189.978V117.377H187.471V126.712C187.471 127.73 187.967 128.226 188.985 128.226C189.531 128.226 189.954 128.177 190.276 128.102V131.628C189.234 131.777 188.29 131.876 187.495 131.876C185.757 131.876 184.565 131.479 183.895 130.709Z" fill="#D40F7D"/>
<path d="M192.61 108.241H197.13V111.618H192.61V108.241ZM192.635 114.423H197.13V131.652H192.635V114.423Z" fill="#D40F7D"/>
<path d="M201.4 130.461C200.407 129.468 199.886 128.028 199.886 126.141V119.935C199.886 118.048 200.382 116.608 201.4 115.615C202.394 114.622 203.834 114.125 205.696 114.125C207.558 114.125 208.999 114.622 209.992 115.615C210.985 116.608 211.506 118.048 211.506 119.935V126.141C211.506 128.028 211.01 129.468 209.992 130.461C208.999 131.454 207.558 131.95 205.696 131.95C203.834 131.95 202.394 131.454 201.4 130.461ZM206.789 128.301C206.987 127.904 207.062 127.283 207.062 126.464V119.637C207.062 118.817 206.962 118.197 206.789 117.799C206.615 117.402 206.242 117.179 205.721 117.179C205.199 117.179 204.827 117.402 204.628 117.824C204.43 118.246 204.33 118.867 204.33 119.661V126.489C204.33 127.283 204.43 127.879 204.628 128.301C204.827 128.723 205.199 128.922 205.721 128.922C206.242 128.922 206.59 128.723 206.789 128.301Z" fill="#D40F7D"/>
<path d="M214.287 114.423H218.757V116.161C220.147 114.82 221.538 114.125 222.928 114.125C223.922 114.125 224.691 114.498 225.213 115.218C225.734 115.962 226.007 116.906 226.007 118.048V131.628H221.513V118.768C221.513 118.296 221.439 117.948 221.265 117.7C221.116 117.477 220.843 117.353 220.47 117.353C220.023 117.353 219.452 117.601 218.782 118.073V131.628H214.312V114.398L214.287 114.423Z" fill="#D40F7D"/>
</svg>
