<svg xmlns="http://www.w3.org/2000/svg" width="81" height="87" viewBox="0 0 81 87" fill="none">
  <path d="M0 71.2582V82.584C0 85.0239 1.97627 87 4.41635 87H76.5836C79.0237 87 81 85.0239 81 82.584V71.2582C81 65.7734 77.2827 61.0112 71.9623 59.6804C71.9388 59.6737 71.9186 59.6703 71.8951 59.6669L56.9454 56.6792V49.6015C59.7686 47.3598 61.4558 43.9352 61.4558 40.2585V28.9059C62.938 28.2102 64.2622 27.4372 65.3983 26.587C65.9696 26.1602 66.1444 25.3603 65.7545 24.7184C65.4957 24.2882 65.0084 24.0496 64.5076 24.0496H64.4168C64.0505 17.8356 61.2743 12.1559 56.942 8.04902V7.46089C56.942 6.77529 56.4715 6.16027 55.7993 6.03592C55.4228 5.96535 55.0666 6.04937 54.7809 6.23085C52.3038 4.38243 49.4503 2.9978 46.3313 2.2181C46.0188 0.947734 44.8727 0 43.5047 0H37.4919C36.124 0 34.9779 0.947734 34.6653 2.2181C31.5497 2.9978 28.6928 4.38243 26.2158 6.23085C25.9301 6.04937 25.5738 5.96535 25.1974 6.03592C24.5252 6.16027 24.0546 6.77865 24.0546 7.46089V8.04902C19.7223 12.1559 16.9461 17.8356 16.5798 24.0496H16.442C15.7295 24.0496 15.111 24.584 15.0371 25.3267C14.9867 25.8308 15.2354 26.3215 15.6454 26.6239C16.7714 27.4608 18.0822 28.2237 19.5442 28.9059V40.2585C19.5442 43.9352 21.2314 47.3632 24.0546 49.6015V56.6792L9.10494 59.6669C9.08141 59.6703 9.06124 59.677 9.03772 59.6804C3.7139 61.0112 0 65.7701 0 71.2582ZM16.3512 76.5716C16.3512 74.8576 17.7393 73.4696 19.4534 73.4696H61.5499C63.264 73.4696 64.6521 74.8576 64.6521 76.5716V84.1837H16.3512V76.5716ZM54.1255 51.339V57.0287C54.1255 60.5407 50.5561 64.6409 40.5 64.6409C30.4439 64.6409 26.8745 60.5407 26.8745 57.0287V51.339L34.178 55.3215C36.1173 56.3801 38.2885 56.9313 40.4966 56.9313C42.7048 56.9313 44.8794 56.3768 46.8187 55.3181L54.1221 51.3356L54.1255 51.339ZM26.8745 70.6533V63.347C29.681 65.9482 34.4368 67.4572 40.5 67.4572C46.5632 67.4572 51.319 65.9482 54.1255 63.347V70.6533H26.8745ZM56.9454 59.5527L60.1417 60.1912V70.6533H56.9454V59.5527ZM20.8617 60.1912L24.058 59.5527V70.6533H20.8617V60.1912ZM22.3641 27.0407V26.8693H58.6359V27.0407C53.7659 28.9529 47.3094 30.0654 40.5 30.0654C33.6906 30.0654 27.2341 28.9529 22.3641 27.0407ZM54.1255 24.0496H46.4187V5.15877C49.3024 5.99896 51.9106 7.434 54.1255 9.30931V24.0496ZM34.5813 24.0496H26.8745V9.30931C29.0861 7.434 31.6942 5.99896 34.5813 5.15877V24.0496ZM24.0546 12.1962V24.0496H19.4098C19.7055 19.6235 21.386 15.5099 24.0546 12.1962ZM43.6022 2.90706V24.0462H37.4012V3.36076V2.90706C37.4012 2.85665 37.4449 2.81296 37.4953 2.81296H43.5081C43.5585 2.81296 43.6022 2.85665 43.6022 2.90706ZM61.5903 24.0496H56.9454V12.1962C59.614 15.5099 61.2945 19.6235 61.5903 24.0496ZM53.8835 48.2605L45.4676 52.8513C43.9484 53.6814 42.2309 54.1183 40.5 54.1183C38.7624 54.1183 37.0516 53.6814 35.5291 52.8513L27.1165 48.2639C24.1857 46.6675 22.3674 43.5991 22.3674 40.2619V30.0654C24.6899 30.8988 27.2879 31.5609 30.0742 32.0348C31.0153 32.139 31.953 32.2431 32.8941 32.3473C35.3342 32.6397 37.8851 32.7909 40.5067 32.7909C43.1283 32.7909 45.6793 32.6397 48.1194 32.3473C49.0605 32.2431 49.9982 32.139 50.9393 32.0348C53.7255 31.5609 56.3202 30.8988 58.646 30.0654V40.2619C58.646 43.5991 56.8244 46.6642 53.8969 48.2639L53.8835 48.2605ZM76.5836 84.1837H67.4686V76.5716C67.4686 73.7922 65.5428 71.4565 62.9582 70.8213V60.7525L71.3069 62.4228C75.3535 63.4511 78.1801 67.0774 78.1801 71.2582V82.584C78.1801 83.4645 77.4642 84.1803 76.5836 84.1803V84.1837ZM2.81988 71.2582C2.81988 67.0774 5.64311 63.4511 9.69311 62.4228L18.0418 60.7525V70.8213C15.4572 71.4565 13.5314 73.7922 13.5314 76.5716V84.1837H4.41635C3.53577 84.1837 2.81988 83.4678 2.81988 82.5873V71.2616V71.2582Z" fill="#D40F7D"/>
</svg>
