<svg width="65" height="57" viewBox="0 0 65 57" fill="none" xmlns="http://www.w3.org/2000/svg">
<path d="M52.3385 0.101224C47.5067 0.29895 43.051 1.18872 39.1499 2.39485C20.7729 8.01027 7.48527 21.5743 1.86128 39.9035C0.871145 43.1462 0.47509 46.5866 0.0394287 50.4621C0.0394287 50.4621 0.0394287 50.4423 0.0394287 50.4225V56.9079H1.58404C1.58404 54.298 1.68306 51.8659 1.86128 49.5328C2.03951 47.1798 2.61379 44.906 3.06925 42.8101C4.8515 34.2683 9.26752 26.5768 14.0202 20.9416C16.753 17.6989 19.7234 14.6934 23.2285 12.2021C28.5158 8.44527 32.3774 5.99346 41.7639 3.30439C42.952 2.96825 44.1996 2.73098 45.467 2.51348C46.3779 2.3553 47.2888 2.17735 48.2196 2.05871C50.0612 1.84121 51.9425 1.68303 53.903 1.62372C54.0614 1.62372 55.9229 1.5644 56.7744 1.62372C56.7744 1.48531 56.7744 0.0814514 56.7744 0.0814514H52.3385V0.101224Z" fill="white"/>
<path d="M53.9228 1.62399C54.0812 1.62399 55.9427 1.56467 56.7942 1.62399V50.581C56.7942 51.9453 56.7744 53.626 56.7546 54.9112C56.7546 55.8009 55.7645 56.75 54.8536 56.8884C54.3387 56.9675 53.7842 56.8884 53.2693 56.8884H1.58411C1.58411 54.2785 1.68312 51.8464 1.86135 49.5133C2.03957 47.1603 2.61385 44.8865 3.06931 42.7906C4.85156 34.2488 9.26758 26.5573 14.0202 20.9221C16.753 17.6794 19.7234 14.6739 23.2285 12.1826C28.5159 8.42577 32.3774 5.97396 41.7639 3.28489C42.9521 2.94875 44.1997 2.71148 45.467 2.49398C46.378 2.3358 47.2889 2.15785 48.2196 2.03921C50.0613 1.82172 51.9426 1.66353 53.903 1.60422L53.9228 1.62399Z" fill="#CE1126"/>
<path d="M1.98028 0.141054C3.62391 -0.0764451 5.62399 0.0224179 7.30722 0.0224179H41.17C44.8731 0.0224179 48.6356 0.0224179 52.3585 0.0817358C47.5266 0.279462 43.071 1.16923 39.1699 2.37536C20.7731 8.01055 7.48545 21.5746 1.86146 39.9038C0.871322 43.1465 0.475266 46.5869 0.0396055 50.4623C0 46.6265 0 42.6126 0 38.7174V6.36943C0 4.98534 0.0396055 1.99968 0.0396055 1.99968C0.198028 1.16923 1.10896 0.259689 1.98028 0.141054Z" fill="#CE1126"/>
<path d="M52.9921 30.3931L53.0317 31.5794C52.3584 31.3224 51.2494 31.1049 50.6553 31.6585C50.4573 31.876 50.4177 32.2122 50.5167 32.4692C51.4673 33.8533 54.2198 34.664 53.3089 36.7401C52.7346 37.7485 51.5861 37.966 50.4177 37.8276C49.9226 37.8276 49.4672 37.6892 48.9919 37.5903L48.8929 36.404C49.6058 36.6412 50.8138 37.0169 51.6059 36.4633C51.9029 36.226 51.9029 35.7515 51.7445 35.4549C50.6751 34.1499 47.9622 33.0822 49.0909 31.0456C49.9622 29.8988 51.7247 30.1558 52.9921 30.3931Z" fill="white"/>
<path d="M25.4861 30.2943C25.7039 32.2715 26.1792 34.1104 26.5356 36.0283C27.1891 34.1697 27.704 32.232 28.1594 30.2943H30.4368C30.8724 32.232 31.4071 34.1499 32.0012 36.0283C32.4764 34.1499 32.7933 32.1726 33.1497 30.2943H34.9518L34.6547 31.0456C34.1597 33.2601 33.5854 35.5538 33.1497 37.6892H31.0506C30.5754 35.6724 29.8823 33.7347 29.2882 31.7574C28.7139 33.7347 27.9812 35.6526 27.5258 37.6892H25.3871C25.0306 35.2374 24.2781 32.8054 23.684 30.3931L23.6444 30.2943H25.4861Z" fill="white"/>
<path d="M40.6154 31.4806L36.9717 31.4213L36.9123 33.3195L37.0509 33.4183C38.1004 33.3986 39.2094 33.4974 40.1995 33.3195V34.5651C39.1896 34.3872 38.0806 34.5058 37.0113 34.4663V36.5622C38.2192 36.5226 39.4866 36.6413 40.6154 36.4633L40.5758 37.6892H35.2092C35.3478 35.2769 35.3478 32.7065 35.2092 30.2943H40.5758L40.6154 31.4806Z" fill="white"/>
<path d="M43.2096 30.2943C44.4176 32.1529 45.586 34.051 46.8533 35.8899L46.8137 30.2943H48.3781L48.3385 37.4519L48.4376 37.6892H46.3385L42.6749 32.1924L42.6353 37.6892H41.1105C41.269 35.356 41.2095 32.8845 41.1501 30.5315L41.0709 30.2943H43.2096Z" fill="white"/>
<path d="M12.4955 39.4094L12.5351 40.8726C11.2282 40.4178 9.52512 40.3387 8.29734 41.0703C7.22799 41.8414 6.95076 43.0673 7.10918 44.3328C7.14878 45.2621 7.84188 46.1321 8.6934 46.5275C9.90137 47.0812 11.4658 46.923 12.6738 46.4682L12.5747 47.9907C10.4162 48.3862 7.78247 48.485 6.15865 46.8043C5.1091 45.7366 4.85166 44.2932 5.06949 42.7707C5.28732 41.4657 6.17845 40.0619 7.50523 39.5873C8.97064 38.9744 10.8915 39.1523 12.4955 39.4094Z" fill="white"/>
<path d="M53.0713 40.7737C53.1704 41.1692 53.1109 41.6042 53.1307 42.0194C51.8238 41.5251 49.8633 41.2483 48.7147 42.2567C47.8434 42.9487 47.586 44.0362 47.8434 45.1039C48.0018 45.7169 48.4375 46.3496 49.0316 46.666C49.9227 47.1207 50.9326 47.0021 51.8832 46.7648C51.8832 45.7564 51.9624 44.7085 51.804 43.7594H53.5466C53.3882 45.0446 53.4872 46.4287 53.4674 47.7535C51.4475 48.1687 48.5959 48.5839 47.0513 46.8439C46.1404 45.8751 45.9621 44.4514 46.279 43.1464C46.7147 41.624 48.2593 40.6551 49.7445 40.4969C50.9128 40.4376 52.0218 40.5365 53.0713 40.7737Z" fill="white"/>
<path d="M27.1099 42.3358C27.1297 43.0278 26.8327 43.9572 26.0208 44.2933L25.1693 44.5701L27.6446 47.9512H25.8228L23.3672 43.9176C23.9811 44.0165 24.6742 43.9769 25.1693 43.5815C25.5653 43.2453 25.6049 42.7115 25.5059 42.2567C25.0505 41.2285 23.7831 41.7822 22.8919 41.624L22.8325 47.6546C22.8919 47.7535 22.9514 47.8326 22.9316 47.9512H21.2285C21.3671 45.5587 21.3671 42.9883 21.2285 40.5958C23.288 40.9319 26.5753 39.627 27.1099 42.3358Z" fill="white"/>
<path d="M29.9218 40.5958C31.209 42.4347 32.3378 44.3328 33.625 46.1915C33.6646 44.3526 33.7834 42.2567 33.526 40.5958H35.1498L35.1102 47.9512H33.1101C31.8625 46.1322 30.6347 44.2538 29.407 42.494C29.3476 44.2735 29.2882 46.1915 29.4466 47.9512H27.8822C28.0406 45.6378 27.9812 43.2058 27.9218 40.8726L27.8228 40.5958H29.9218Z" fill="white"/>
<path d="M37.7242 40.5958C37.5063 43.0081 37.7242 45.4994 37.7242 47.9512H35.9221C36.0607 45.5588 36.0607 42.9883 35.9221 40.5958H37.7242Z" fill="white"/>
<path d="M44.1799 46.1915L44.1403 40.5958H45.7642C45.6057 42.9883 45.6057 45.5588 45.7642 47.9512H43.6651L40.0016 42.494C39.9421 44.2735 39.9025 46.1915 40.061 47.9512H38.4371C38.5758 45.5588 38.5758 42.9883 38.4371 40.5958H40.5362L44.1799 46.1915Z" fill="white"/>
<path d="M23.3474 31.2829C22.7335 29.9581 21.3275 29.0881 19.9611 28.8706C18.0204 28.6531 15.9807 28.8113 14.6342 30.3931C13.6044 31.6388 13.4658 33.6358 13.9807 35.1781C14.6143 37.096 16.6342 37.9067 18.4957 37.9858C20.3968 38.0451 22.377 37.4124 23.288 35.5537C23.882 34.3081 23.8226 32.5681 23.3474 31.2829ZM21.2879 35.2176C20.5948 36.3051 19.3868 36.7203 18.1194 36.5028C17.2283 36.4435 16.3768 35.791 16.0203 34.9803C15.6045 33.9126 15.5451 32.4692 16.159 31.4806C16.9115 30.4129 18.159 29.9581 19.4858 30.2349C20.2185 30.4326 20.9512 30.9072 21.3473 31.619C21.9018 32.6472 21.8424 34.2092 21.2879 35.2176Z" fill="white"/>
<path d="M20.4958 42.5335C20.0205 41.446 18.872 40.754 17.7828 40.5365C16.159 40.3585 14.4163 40.4772 13.2678 41.7228C12.4361 42.6719 12.3568 44.056 12.5549 45.3412C12.8123 46.5078 13.9411 47.6348 15.1292 47.8919C16.9511 48.2478 19.1096 48.0698 20.2581 46.4287C20.971 45.3412 20.9116 43.7396 20.4958 42.5335ZM18.6937 45.9542C18.0006 46.8242 16.8719 47.0812 15.7827 46.8044C15.2282 46.5869 14.5946 46.1717 14.3569 45.5785C14.0005 44.5701 13.9807 43.1069 14.7926 42.2962C15.4659 41.6635 16.4164 41.5251 17.3669 41.6833C17.9214 41.8217 18.4759 42.1776 18.7927 42.7312C19.2878 43.6606 19.3076 45.0644 18.6937 45.9542Z" fill="white"/>
<path d="M62.2797 46.7253C63.7253 46.7253 64.9134 45.539 64.9134 44.0758C64.9134 42.6126 63.7253 41.446 62.2797 41.446C60.8341 41.446 59.6261 42.6324 59.6261 44.0758C59.6261 45.5192 60.8143 46.7253 62.2797 46.7253ZM62.2797 46.3101C60.9925 46.3101 60.0618 45.3808 60.0618 44.0758C60.0618 42.7708 60.9925 41.8613 62.2797 41.8613C63.5668 41.8613 64.4976 42.7906 64.4976 44.0758C64.4976 45.361 63.5668 46.3101 62.2797 46.3101ZM61.6856 44.234H62.3391L63.1906 45.5785H63.6263L62.7351 44.234C63.2698 44.1944 63.6659 43.9769 63.6659 43.3838C63.6659 42.7906 63.4084 42.5533 62.6163 42.5533H61.3093V45.5785H61.6856V44.234ZM61.6856 43.8978V42.929H62.5173C62.8738 42.929 63.2302 42.9883 63.2302 43.4035C63.2302 43.8188 62.6361 43.8978 62.2203 43.8978H61.6856Z" fill="#CE1126"/>
</svg>
