<svg xmlns="http://www.w3.org/2000/svg" width="105" height="89" viewBox="0 0 105 89" fill="none">
  <path d="M0.00345802 86.7871C0.00345802 87.7232 0.764222 88.4832 1.70134 88.4832H103.198C104.135 88.4832 104.896 87.7232 104.896 86.7871C104.896 85.851 104.135 85.091 103.198 85.091H101.271V50.5786C101.271 49.6425 100.511 48.8825 99.5736 48.8825H97.5853L95.8977 3.39217H95.9462C96.8833 3.39217 97.644 2.63221 97.644 1.69609C97.644 0.759957 96.8833 0 95.9462 0H81.4467C80.5096 0 79.7488 0.759957 79.7488 1.69609C79.7488 2.63221 80.5096 3.39217 81.4467 3.39217H81.4951L79.8076 48.8825H78.2895L60.5672 38.2604C60.0416 37.946 59.388 37.9391 58.8555 38.2397C58.3229 38.5402 57.9944 39.1067 57.9944 39.7181V47.5837L42.4437 38.2638C41.9181 37.9495 41.2645 37.9426 40.732 38.2431C40.1995 38.5436 39.8709 39.1101 39.8709 39.7216V47.5871L24.3202 38.2673C23.7946 37.9529 23.1411 37.946 22.6085 38.2466C22.076 38.5471 21.7475 39.1136 21.7475 39.725V47.5906L6.19677 38.2707C5.67115 37.9564 5.01758 37.9495 4.48505 38.25C3.95251 38.5505 3.624 39.1171 3.624 39.7285V85.1048H1.69789C0.760764 85.1048 0 85.8648 0 86.8009L0.00345802 86.7871ZM25.1502 77.8472V73.9991H39.8779V77.8472H25.1502ZM43.2736 77.8472V73.9991H58.0013V77.8472H43.2736ZM61.4006 77.8472V73.9991H67.0648V77.8472H61.4006ZM21.7509 77.8472H7.02669V73.9991H21.7544V77.8472H21.7509ZM25.1502 63.3631V59.515H39.8779V63.3631H25.1502ZM43.2736 63.3631V59.515H58.0013V63.3631H43.2736ZM61.4006 63.3631V59.515H67.0648V63.3631H61.4006ZM21.7509 63.3631H7.02669V59.515H21.7544V63.3631H21.7509ZM61.4006 50.5786V42.713L76.1283 51.5389V85.091H7.02669V81.2429H68.7627C69.6998 81.2429 70.4606 80.4829 70.4606 79.5468V72.303C70.4606 71.3669 69.6998 70.6069 68.7627 70.6069H7.02669V66.7588H68.7627C69.6998 66.7588 70.4606 65.9988 70.4606 65.0627V57.8189C70.4606 56.8828 69.6998 56.1228 68.7627 56.1228H7.02669V42.713L22.5774 52.0329C23.103 52.3472 23.7566 52.3541 24.2891 52.0536C24.8217 51.7531 25.1502 51.1866 25.1502 50.5751V42.7096L40.7009 52.0294C41.2265 52.3438 41.8801 52.3507 42.4126 52.0501C42.9451 51.7496 43.2736 51.1831 43.2736 50.5717V42.7061L58.8243 52.026C59.35 52.3403 60.0035 52.3472 60.5361 52.0467C61.0686 51.7462 61.3971 51.1796 61.3971 50.5682L61.4006 50.5786ZM93.9163 41.6387H83.48L83.6218 37.7906H93.7711L93.9128 41.6387H93.9163ZM92.4985 3.39217L93.6466 34.3984H83.7463L84.8943 3.39217H92.4951H92.4985ZM94.186 48.879H83.2137L83.3555 45.0309H94.0443L94.186 48.879ZM79.524 85.091V52.2747H97.8757V85.091H79.524Z" fill="#D40F7D"/>
</svg>
