<svg width="89" height="89" viewBox="0 0 89 89" fill="none" xmlns="http://www.w3.org/2000/svg">
<path d="M1.49553 28.0759C0.577533 28.9039 0.0339332 30.0883 0.00153321 31.3231C-0.0308668 32.5579 0.451533 33.7675 1.32633 34.6423L3.36393 36.6799C4.19553 37.5115 5.28993 37.9291 6.38073 37.9291C7.47153 37.9291 8.56593 37.5115 9.39753 36.6799L9.57753 36.4999V42.9403C9.57753 44.9311 10.6827 46.7779 12.4755 47.6419C15.1215 48.9163 17.7459 48.1783 19.3191 46.4611L21.2019 51.1663C21.3531 51.5407 21.5187 51.9079 21.6915 52.2679V87.0619C21.6915 87.9403 22.4043 88.6531 23.2827 88.6531H39.3459C40.3035 88.6531 41.0775 87.8791 41.0775 86.9215V64.8103L42.3915 58.7731C45.8043 59.8783 49.3647 60.4399 52.9899 60.4399C55.5891 60.4399 58.1703 60.1447 60.6831 59.5723C60.8091 62.2399 61.5399 64.8643 62.8107 67.2115L63.6963 68.8495L56.8311 86.2915C56.5431 87.0259 56.7807 87.8935 57.4863 88.3723C57.7743 88.5667 58.1235 88.6567 58.4727 88.6567H66.4611C67.1631 88.6567 67.7931 88.2319 68.0631 87.5839L75.6087 69.2347L77.0739 71.4199V86.9251C77.0739 87.8827 77.8479 88.6567 78.8055 88.6567H86.9415C87.8991 88.6567 88.6731 87.8827 88.6731 86.9251V68.1151C88.6731 67.8595 88.6155 67.6075 88.5075 67.3735L88.1043 66.5239C85.2027 60.4003 83.6691 53.5819 83.6691 46.8031C83.6691 41.5579 81.0411 36.7159 76.6383 33.8503C75.8355 33.3283 74.7663 33.5551 74.2443 34.3579C73.7223 35.1607 73.9491 36.2299 74.7519 36.7519C78.1683 38.9767 80.2095 42.7315 80.2095 46.8031C80.2095 54.0895 81.8583 61.4191 84.9759 68.0035L85.2135 68.5003V85.3627H80.5407V70.8871C80.5227 70.5451 80.4183 70.2067 80.2275 69.9223L76.6671 64.6231C76.6671 64.6231 76.6671 64.6195 76.6635 64.6159C73.7295 60.2455 71.5839 55.4503 70.2807 50.3527C70.0431 49.4275 69.0999 48.8695 68.1747 49.1035C67.2495 49.3411 66.6915 50.2843 66.9255 51.2095C67.1091 51.9259 67.3071 52.6351 67.5231 53.3407C63.0627 55.7167 58.0443 56.9731 52.9539 56.9731C49.5735 56.9731 46.2543 56.4331 43.0863 55.3675L43.7235 52.4443C43.9251 51.5119 43.3347 50.5867 42.3987 50.3851C41.4663 50.1799 40.5411 50.7739 40.3395 51.7099L37.6107 64.2559C37.5855 64.3783 37.5711 64.5007 37.6251 64.6231V85.1899H32.9523V59.2123C32.9523 58.5211 32.5383 57.9019 31.9047 57.6211C28.4883 56.1091 25.8423 53.3659 24.4491 49.8919L20.7051 40.5355C20.3955 39.7651 19.5891 39.3259 18.7755 39.4807C17.9619 39.6391 17.3751 40.3519 17.3751 41.1799V42.6991C17.3751 42.6991 16.4355 44.8447 15.2511 44.8447C14.0667 44.8447 13.1055 43.8835 13.0479 42.6991V35.1751H17.2239C20.4747 35.2543 23.5599 33.6811 25.4679 31.0495C26.0295 30.2755 25.8567 29.1919 25.0827 28.6339C24.3087 28.0723 23.2251 28.2451 22.6671 29.0191C21.4071 30.7579 17.2239 31.8919 17.2239 31.8919H12.1011C10.4091 31.8919 8.82153 32.5507 7.62633 33.7459L6.99633 34.3759C6.67953 34.6927 6.16473 34.6927 5.84793 34.3759L3.81753 32.3455C3.65193 32.1799 3.52953 31.9675 3.49713 31.7371C3.44313 31.3663 3.56913 31.0135 3.83913 30.7687L10.4739 24.7891L14.0667 21.5599C14.5995 21.0811 15.2871 20.8183 15.9999 20.8183H22.1703C22.8795 20.8183 23.5527 21.1243 24.0171 21.6607C24.0999 21.7579 30.3027 26.3479 30.3027 26.3479C30.6159 26.5783 31.0011 26.6935 31.3863 26.6863C31.4871 26.6863 41.9847 26.4739 48.5619 34.2175C48.8931 34.6099 49.3791 34.8403 49.8903 34.8403H60.4491C61.4895 34.8403 62.3139 33.9223 62.1627 32.8531C62.0403 31.9927 61.2627 31.3807 60.3951 31.3807H50.7075C43.9467 23.9539 34.4283 23.2591 31.8903 23.2087L28.5387 20.7355C38.8095 20.0839 48.0075 13.7947 52.2843 4.3303C52.5831 3.6679 52.4391 2.8903 51.9207 2.3827C51.4023 1.8715 50.6247 1.7383 49.9659 2.0479L45.9555 3.9271C45.2715 4.2475 44.7027 3.9667 44.4903 3.8335C44.2779 3.6967 43.7847 3.3007 43.7847 2.5483C43.7847 1.6663 43.1187 0.895897 42.1755 0.816697C41.6643 0.773497 41.1603 0.985897 40.7967 1.3495L39.4719 2.6743C38.9067 3.2395 38.2479 3.1387 37.9923 3.0667C37.7367 2.9947 37.1175 2.7499 36.9195 1.9759L36.7467 1.3027C36.5631 0.589897 35.9475 0.0678974 35.2167 0.00669738C34.4823 -0.0581026 33.7875 0.352297 33.4851 1.0219L31.8219 4.7191C31.5087 5.4139 30.8895 5.5687 30.6375 5.6047C30.3855 5.6407 29.7483 5.6551 29.2587 5.0719L27.9447 3.4987C27.3831 2.8255 26.3895 2.6635 25.6263 3.1819C25.1439 3.5131 24.8811 4.0783 24.8775 4.6651C24.8487 9.0967 21.2343 12.6895 16.7991 12.6895H11.8599C10.8411 12.6895 9.98433 13.5787 10.1463 14.7235C10.2111 15.1663 10.4631 15.5587 10.8303 15.8143C11.8095 16.4947 12.8247 17.1067 13.8723 17.6503C13.0623 17.9239 12.3063 18.3595 11.6583 18.9427L8.09073 22.1503L1.50633 28.0903L1.49553 28.0759ZM46.4379 7.4335C41.8803 13.5715 34.6083 17.3371 26.7783 17.3371C24.0279 17.3371 21.3315 16.8835 18.7827 16.0015C22.9767 15.2815 26.4075 12.2827 27.7431 8.3335C28.7259 8.9635 29.9067 9.2299 31.1019 9.0679C32.8155 8.8339 34.2591 7.7503 34.9683 6.1735L35.2563 5.5363C35.7747 5.9503 36.3831 6.2599 37.0563 6.4435C38.5611 6.8539 40.1127 6.5587 41.3331 5.6479C41.6787 6.0943 42.1035 6.4831 42.5967 6.7963C43.7559 7.5343 45.1347 7.7539 46.4343 7.4371L46.4379 7.4335ZM67.1775 69.3643C67.3647 68.8891 67.3323 68.3563 67.0875 67.9063L65.8167 65.5627C64.6827 63.4711 64.0851 61.1059 64.0851 58.7263C64.0851 58.6831 64.0851 58.6399 64.0779 58.5967C65.6439 58.0639 67.1739 57.4159 68.6499 56.6599C69.8703 59.8423 71.4111 62.8915 73.2687 65.7715L65.2695 85.1971H60.9387L67.1739 69.3679L67.1775 69.3643ZM25.1511 85.1935V57.1603C26.4147 58.4131 27.8655 59.4751 29.4783 60.3103V85.1971H25.1511V85.1935Z" fill="#D40F7D"/>
</svg>
