<svg width="50" height="62" viewBox="0 0 50 62" fill="none" xmlns="http://www.w3.org/2000/svg">
<path d="M22.7978 35.5161H26.4109C28.0689 35.5161 28.0689 33.1137 26.4109 33.1137H22.7978C21.1398 33.1137 21.1398 35.5161 22.7978 35.5161Z" fill="#D40F7D"/>
<path d="M19.6303 49.6423H14.3592C12.7012 49.6423 12.7012 52.201 14.3592 52.201H19.6303C21.2883 52.201 21.2883 49.6423 19.6303 49.6423Z" fill="#D40F7D"/>
<path d="M48.0808 58.6595H46.3073V51.4441C46.3073 46.1869 41.9354 41.8264 36.6643 41.8264H32.8946L32.1439 38.519C35.46 36.8653 37.7202 33.4099 37.7202 29.3538V25.8983H40.5825C41.3332 25.8983 41.9354 25.4458 41.9354 24.6971V20.0405C41.9354 18.9874 40.8795 18.8393 40.1289 18.8393C39.6752 12.529 35.46 7.26348 29.43 5.31361L29.5785 2.31064C29.727 1.56196 29.1248 0.961365 28.3742 0.961365H20.8429C20.0923 0.961365 19.6386 1.56196 19.6386 2.31064L19.9438 5.31361C13.9138 7.26348 9.69865 12.529 9.09648 18.8393C8.34583 18.8393 7.43845 18.9874 7.43845 20.0405V24.6971C7.43845 25.4458 8.04062 25.8983 8.64279 25.8983H11.6536V29.3538C11.6536 33.4099 13.9138 36.8653 17.2299 38.519L16.3225 41.8264H12.7095C7.28172 41.8264 3.06653 46.1869 3.06653 51.4441V58.6595H1.24352C-0.414507 58.6595 -0.414507 61.2182 1.24352 61.2182H48.0726C49.7306 61.2182 49.7306 58.6595 48.0726 58.6595H48.0808ZM27.1698 3.5036L26.4192 13.7219H22.9546L22.204 3.5036H27.1781H27.1698ZM20.084 7.86408L20.5377 15.0794C20.6862 15.68 21.1399 16.1325 21.742 16.1325H27.4668C28.069 16.1325 28.6711 15.68 28.6711 15.0794L29.2733 7.86408C33.9422 9.51776 37.2582 13.8782 37.7119 18.8393H11.6454C12.0991 13.8782 15.4151 9.51776 20.084 7.86408ZM9.83888 23.496V21.3898H39.3782V23.496H9.83888ZM14.0541 29.3538V25.8983H35.1548V29.3538C35.1548 33.8624 31.5417 37.3178 27.1698 37.3178H22.0473C20.6944 37.3178 20.0923 37.1697 19.0364 36.7172C16.174 35.5161 14.0623 32.6612 14.0623 29.3538H14.0541ZM30.6344 42.7314L24.6044 48.5892L18.5745 42.7314L19.4818 39.424C20.2325 39.7284 21.1399 39.8765 22.0473 39.8765C24.3075 39.8765 27.772 40.0246 29.8837 39.424L30.6344 42.7314ZM43.8904 58.6595H38.0171V54.7515C38.0171 53.0978 35.4517 53.0978 35.4517 54.7515V58.6595H13.7489V54.7515C13.7489 53.0978 11.3402 53.0978 11.3402 54.7515V58.6595H5.46696V51.4441C5.46696 47.5362 8.63454 44.2288 12.7013 44.2288H16.768L23.8538 51.296C24.3075 51.7485 25.0581 51.7485 25.5118 51.296L32.4409 44.2288H36.6643C40.5825 44.2288 43.8986 47.5362 43.8986 51.4441V58.6595H43.8904Z" fill="#D40F7D"/>
</svg>
