<svg width="34" height="65" viewBox="0 0 34 65" fill="none" xmlns="http://www.w3.org/2000/svg">
<path d="M29.3529 45.7129C27.8423 47.2122 25.7502 47.8585 23.9011 47.4363C23.4757 45.6009 24.1268 43.5156 25.6373 42.0249C27.1478 40.5256 29.24 39.8793 31.0891 40.3015C31.5145 42.1369 30.8634 44.2136 29.3529 45.7129ZM10.8966 26.7472C12.0686 26.954 13.2232 27.5572 14.1694 28.4878C14.2128 28.5309 14.2562 28.574 14.2909 28.617C14.317 28.6515 14.3517 28.686 14.3864 28.7204C14.6642 29.0307 15.1243 29.1082 15.4976 28.9273C15.8709 28.7463 16.0793 28.3327 16.0011 27.9277C15.923 27.5227 15.8883 27.1177 15.8883 26.7213C15.8883 25.403 16.2703 24.1707 16.9561 23.2057C17.6419 24.1707 18.0239 25.403 18.0239 26.7213C18.0239 27.1177 17.9891 27.5227 17.911 27.9277C17.8329 28.3327 18.0412 28.7463 18.4145 28.9273C18.7878 29.1082 19.2392 29.0307 19.5257 28.7204C19.5605 28.686 19.5865 28.6515 19.6212 28.617C19.6646 28.574 19.6994 28.5309 19.7428 28.4878C20.689 27.5572 21.8436 26.9454 23.0156 26.7472C22.8072 27.9018 22.1909 29.0393 21.2533 29.9699C20.0466 31.1676 18.4927 31.8311 16.9908 31.7881C16.9908 31.7881 16.9734 31.7881 16.9648 31.7881C16.9648 31.7881 16.9474 31.7881 16.9387 31.7881C15.4456 31.8311 13.8916 31.1676 12.6762 29.9699C11.73 29.0393 11.1136 27.9018 10.914 26.7472H10.8966ZM2.87514 21.7925C2.87514 18.8714 4.65479 16.3122 7.39806 15.2523C7.71058 15.1317 7.9363 14.8559 7.98838 14.5199C8.30091 12.4001 9.3687 10.4527 11.0008 9.03953C12.6502 7.60913 14.7597 6.825 16.9474 6.825C17.8155 6.825 18.6663 6.94564 19.491 7.18691C19.9858 7.3334 20.5067 7.04904 20.6543 6.55788C20.8019 6.06672 20.5154 5.5497 20.0206 5.40322C19.3174 5.19641 18.5968 5.06716 17.8676 5.00684C19.1958 3.63676 21.0363 2.85263 22.9548 2.85263C26.8527 2.85263 30.0213 5.99778 30.0213 9.86675C30.0213 11.435 29.5005 12.943 28.5368 14.1666C28.259 14.0028 27.9726 13.8564 27.6774 13.7185C27.5298 12.9861 27.3128 12.2709 27.0176 11.5815C26.818 11.1076 26.2624 10.8922 25.7936 11.0903C25.3161 11.2885 25.0991 11.84 25.2987 12.3053C25.6026 13.0119 25.8109 13.753 25.9238 14.5112C25.9759 14.8387 26.2016 15.123 26.5141 15.2437C29.2661 16.2949 31.037 18.8628 31.037 21.7839C31.037 25.5408 28.0507 28.6084 24.3091 28.7894C24.7605 27.7984 24.9862 26.7472 24.9602 25.7132C24.9428 25.222 24.5435 24.8256 24.0486 24.8084C22.6162 24.7739 21.1578 25.1962 19.873 26.0148C19.7167 24.0846 18.9094 22.3267 17.6072 21.1118C17.2426 20.7757 16.687 20.7757 16.3224 21.1118C15.0202 22.3267 14.2128 24.0932 14.0566 26.0148C12.7717 25.2048 11.3133 24.7739 9.88089 24.8084C9.38606 24.8256 8.98672 25.222 8.96936 25.7132C8.94332 26.7558 9.16903 27.8071 9.61177 28.7894C5.87016 28.6084 2.89251 25.5322 2.89251 21.7839L2.87514 21.7925ZM5.64445 42.2748C4.43776 41.077 3.89953 39.4226 4.20337 37.9491C5.68786 37.6475 7.35465 38.1731 8.56134 39.3795C9.76803 40.5773 10.3063 42.2317 10.0024 43.7052C8.51794 44.0068 6.85114 43.4811 5.64445 42.2748ZM32.7299 39.2503C32.6344 38.9745 32.4173 38.7591 32.1395 38.6643C29.5178 37.7854 26.436 38.5868 24.3004 40.7065C22.3211 42.6712 21.479 45.4458 22.078 47.9188L18.6229 51.3483C18.3538 51.6155 18.102 51.8998 17.8763 52.1928V33.6062C19.5604 33.408 21.2272 32.598 22.5468 31.2883C22.7551 31.0815 22.9548 30.8574 23.1458 30.6334C23.4149 30.6592 23.6754 30.6679 23.9445 30.6679C28.8754 30.6679 32.8861 26.6869 32.8861 21.7925C32.8861 19.2505 31.827 16.924 30.03 15.2868C31.228 13.7357 31.8878 11.8486 31.8878 9.87537C31.8878 4.98099 27.8771 1 22.9461 1C20.7151 1 18.5795 1.83584 16.9387 3.30932C15.298 1.82722 13.1624 1 10.9313 1C6.00038 1 1.98966 4.98099 1.98966 9.87537C1.98966 10.6509 2.08515 11.4178 2.28482 12.1502C2.41504 12.65 2.92723 12.943 3.43074 12.8137C3.93425 12.6845 4.22941 12.1761 4.0992 11.6763C3.94293 11.0903 3.8648 10.4872 3.8648 9.87537C3.8648 6.0064 7.03345 2.86124 10.9313 2.86124C12.8499 2.86124 14.6816 3.64538 16.0185 5.01546C13.7093 5.20503 11.513 6.12703 9.75935 7.65222C7.92761 9.23772 6.6862 11.3833 6.21741 13.7357C3.03141 15.1834 1 18.2854 1 21.8011C1 26.6955 5.01072 30.6765 9.94166 30.6765C10.2108 30.6765 10.4799 30.6679 10.7403 30.642C10.9226 30.8661 11.1223 31.0901 11.3393 31.2969C12.6589 32.598 14.3257 33.4166 16.0098 33.6062V48.4617C15.7841 48.1687 15.5324 47.8844 15.2632 47.6172L11.8081 44.1877C12.2856 42.0766 11.565 39.7328 9.88089 38.0611C8.04047 36.2344 5.3927 35.5536 3.13558 36.3119C2.85778 36.4067 2.64075 36.6221 2.54526 36.8979C1.78131 39.1469 2.47581 41.775 4.30754 43.5932C5.64445 44.9202 7.41542 45.6526 9.16035 45.6526C9.60309 45.6526 10.0458 45.6009 10.4799 45.5061L13.935 48.9356C15.2719 50.2626 16.0098 52.0205 16.0098 53.8989V63.524C16.0098 64.041 16.4265 64.4546 16.9474 64.4546C17.4683 64.4546 17.885 64.041 17.885 63.524V57.6386C17.885 55.7688 18.6229 54.0023 19.9598 52.6753L23.4149 49.2458C23.9445 49.3751 24.4914 49.4354 25.0383 49.4354C27.061 49.4354 29.1185 48.5909 30.6811 47.0399C32.8167 44.9202 33.624 41.8698 32.7385 39.2589L32.7299 39.2503Z" fill="#D40F7D" stroke="#D40F7D" stroke-width="0.5"/>
</svg>
