<svg width="28" height="64" viewBox="0 0 28 64" fill="none" xmlns="http://www.w3.org/2000/svg">
<path d="M16.5288 46.3784C16.0868 46.1388 15.5343 46.3014 15.2963 46.7548C14.2253 48.748 12.2619 49.9799 9.29537 50.5189C7.98637 50.7584 6.78788 51.2717 5.73388 51.8876C5.81038 50.2964 6.47338 47.8241 9.52487 46.1132C9.88186 45.9164 10.2729 45.771 10.6724 45.6769C15.2453 44.6931 17.5148 43.6323 18.6708 41.7417C18.8238 42.3063 18.8833 43.042 18.8323 43.8975C18.6028 47.7129 16.3928 52.4351 14.3613 53.4361C12.7888 54.206 11.0209 54.4113 9.48236 54.3001C9.45687 54.3001 9.42286 54.3001 9.39736 54.3001C8.20737 54.206 7.15338 53.9322 6.44788 53.6071C7.39137 53.0254 8.47087 52.5378 9.61836 52.3325C13.1203 51.6994 15.5768 50.1168 16.9028 47.6359C17.1408 47.1911 16.9793 46.635 16.5288 46.3955V46.3784ZM3.36239 44.5049C3.50689 44.1199 3.70239 43.752 3.95739 43.427C6.79638 39.6885 7.84187 37.4044 7.49337 35.2058C7.57837 35.2657 7.65487 35.317 7.72287 35.3769C8.03737 35.625 8.34337 35.933 8.64937 36.2923C8.64937 36.2923 8.64937 36.3008 8.65787 36.3094C10.1199 38.046 11.4289 40.9375 11.8709 43.5125C11.3864 43.6323 10.8594 43.7606 10.2814 43.8804C9.70336 44.0087 9.14237 44.214 8.62387 44.5049C5.52138 46.2415 4.43339 48.6881 4.07639 50.4248C4.03389 50.6386 3.99989 50.8525 3.97439 51.0578C3.07339 49.7489 2.2319 47.5418 3.35389 44.5049H3.36239ZM11.3269 24.1787L15.6788 16.3083C15.7553 16.1714 15.7978 16.0174 15.7978 15.8635V6.29922H19.7078V15.8635C19.7078 16.0174 19.7503 16.1714 19.8268 16.3083L24.1788 24.1787C24.8673 25.4277 25.2328 26.8392 25.2328 28.2679V59.8008C25.2328 60.1259 24.6208 60.6392 23.2608 61.0498C21.8413 61.4775 19.8353 61.7171 17.7528 61.7171C15.6703 61.7171 13.6643 61.469 12.2449 61.0498C10.8849 60.6392 10.2729 60.1259 10.2729 59.8008V56.165C12.0324 56.165 13.7323 55.7886 15.1518 55.0871C18.0843 53.6414 20.3963 48.0893 20.6428 44.0087C20.7873 41.5962 20.2093 39.8853 18.9683 39.0811C18.7218 38.9186 18.4158 38.8929 18.1438 38.9956C17.8718 39.0982 17.6678 39.3292 17.5913 39.6115C17.1918 41.083 16.3928 42.0924 13.6388 43.0163C13.3583 41.5278 12.8314 39.9366 12.1089 38.4224C11.5564 37.2675 10.9274 36.2495 10.2729 35.4111V28.285C10.2729 26.8564 10.6384 25.4448 11.3269 24.1958V24.1787ZM14.5313 2.71477H20.9743V4.45995H14.5313V2.71477ZM17.7528 63.5478C22.2493 63.5478 27.0603 62.564 27.0603 59.7922V28.2593C27.0603 26.5227 26.6183 24.7947 25.7768 23.2719L21.5353 15.6068V6.22223C22.2663 6.02547 22.8018 5.3582 22.8018 4.5626V2.57789C22.8018 1.62831 22.0368 0.858383 21.0933 0.858383H14.4123C13.4688 0.858383 12.7039 1.62831 12.7039 2.57789V4.5626C12.7039 5.3582 13.2393 6.02547 13.9703 6.22223V15.6068L9.72886 23.2719C8.88737 24.7947 8.44537 26.5142 8.44537 28.2593V33.6403C7.62087 33.0928 6.79638 32.8704 5.99738 32.973C5.70838 33.0072 5.45338 33.1869 5.31738 33.4435C5.18138 33.7002 5.16438 34.0081 5.29188 34.2733C6.15038 36.1041 5.94638 37.7723 2.5039 42.3063C2.1469 42.7768 1.8579 43.3072 1.6539 43.8633C0.412905 47.2167 1.1694 49.7832 2.0194 51.3401C2.5294 52.2726 3.13289 52.9655 3.58339 53.4104C2.2914 54.4968 1.5009 55.4721 1.4329 55.5576C1.1184 55.9512 1.1864 56.5329 1.5774 56.8494C1.7474 56.9863 1.9429 57.0547 2.1469 57.0547C2.4104 57.0547 2.6824 56.935 2.86089 56.7125C2.87789 56.6954 3.61739 55.7715 4.83289 54.7706C5.66588 55.3694 6.95788 55.8314 8.45387 56.0453V59.8094C8.45387 62.5725 13.2563 63.5649 17.7613 63.5649L17.7528 63.5478Z" fill="#D40F7D" stroke="#D40F7D" stroke-width="0.5"/>
</svg>
