<svg width="21" height="22" viewBox="0 0 21 22" fill="none" xmlns="http://www.w3.org/2000/svg">
<path d="M15.9979 5.19529L4.62017 16.573M5.96481 20.1931H14.6532C16.3911 20.1931 17.26 20.1931 17.9238 19.8549C18.5076 19.5574 18.9823 19.0827 19.2798 18.4989C19.618 17.8351 19.618 16.9662 19.618 15.2283V6.53993C19.618 4.80208 19.618 3.93316 19.2798 3.26939C18.9823 2.68552 18.5076 2.21082 17.9238 1.91333C17.26 1.57512 16.3911 1.57512 14.6532 1.57512H5.96481C4.22696 1.57512 3.35804 1.57512 2.69427 1.91333C2.1104 2.21082 1.6357 2.68552 1.33821 3.26939C1 3.93316 1 4.80208 1 6.53993V15.2283C1 16.9662 1 17.8351 1.33821 18.4989C1.6357 19.0827 2.1104 19.5574 2.69427 19.8549C3.35804 20.1931 4.22696 20.1931 5.96481 20.1931Z" stroke="white" stroke-width="2" stroke-linecap="round" stroke-linejoin="round"/>
<path d="M4.62019 4.62017L15.9979 15.9979M14.6532 19.618H5.96482C4.22698 19.618 3.35806 19.618 2.69429 19.2798C2.11042 18.9823 1.63572 18.5076 1.33822 17.9238C1.00002 17.26 1.00002 16.3911 1.00002 14.6532V5.96481C1.00002 4.22696 1.00002 3.35804 1.33822 2.69427C1.63572 2.1104 2.11042 1.6357 2.69429 1.33821C3.35806 1 4.22698 1 5.96482 1H14.6532C16.3911 1 17.26 1 17.9238 1.33821C18.5076 1.6357 18.9823 2.1104 19.2798 2.69427C19.618 3.35804 19.618 4.22696 19.618 5.96481V14.6532C19.618 16.3911 19.618 17.26 19.2798 17.9238C18.9823 18.5076 18.5076 18.9823 17.9238 19.2798C17.26 19.618 16.3911 19.618 14.6532 19.618Z" stroke="white" stroke-width="2" stroke-linecap="round" stroke-linejoin="round"/>
</svg>
