<svg width="156" height="40" viewBox="0 0 156 40" fill="none" xmlns="http://www.w3.org/2000/svg">
<path d="M14.3662 0.757812H15.9785L18.3525 7.54346L20.7266 0.757812H22.3389L19 10H17.7051L14.3662 0.757812ZM13.4966 0.757812H15.1025L15.3945 7.37207V10H13.4966V0.757812ZM21.6025 0.757812H23.2148V10H21.3105V7.37207L21.6025 0.757812ZM28.4771 8.45117V5.3916C28.4771 5.17155 28.4411 4.98324 28.3691 4.82666C28.2972 4.66585 28.1851 4.54102 28.0327 4.45215C27.8846 4.36328 27.6921 4.31885 27.4551 4.31885C27.252 4.31885 27.0763 4.35482 26.9282 4.42676C26.7801 4.49447 26.6659 4.59391 26.5854 4.7251C26.505 4.85205 26.4648 5.00228 26.4648 5.17578H24.6367C24.6367 4.88379 24.7044 4.60661 24.8398 4.34424C24.9753 4.08187 25.172 3.85124 25.4302 3.65234C25.6883 3.44922 25.9951 3.29053 26.3506 3.17627C26.7103 3.06201 27.1123 3.00488 27.5566 3.00488C28.0898 3.00488 28.5638 3.09375 28.9785 3.27148C29.3932 3.44922 29.7191 3.71582 29.9561 4.07129C30.1973 4.42676 30.3179 4.87109 30.3179 5.4043V8.34326C30.3179 8.71989 30.3411 9.02881 30.3877 9.27002C30.4342 9.507 30.502 9.71436 30.5908 9.89209V10H28.7437C28.6548 9.8138 28.5871 9.58105 28.5405 9.30176C28.4982 9.01823 28.4771 8.7347 28.4771 8.45117ZM28.7183 5.81689L28.731 6.85156H27.709C27.4678 6.85156 27.2583 6.87907 27.0806 6.93408C26.9028 6.9891 26.7568 7.06738 26.6426 7.16895C26.5283 7.26628 26.4437 7.38053 26.3887 7.51172C26.3379 7.6429 26.3125 7.78678 26.3125 7.94336C26.3125 8.09993 26.3485 8.2417 26.4204 8.36865C26.4924 8.49137 26.596 8.5887 26.7314 8.66064C26.8669 8.72835 27.0256 8.76221 27.2075 8.76221C27.4826 8.76221 27.7217 8.70719 27.9248 8.59717C28.1279 8.48714 28.2845 8.35173 28.3945 8.19092C28.5088 8.03011 28.568 7.87777 28.5723 7.73389L29.0547 8.5083C28.987 8.6818 28.8939 8.86165 28.7754 9.04785C28.6611 9.23405 28.5151 9.40967 28.3374 9.57471C28.1597 9.73551 27.946 9.86882 27.6963 9.97461C27.4466 10.0762 27.1504 10.127 26.8076 10.127C26.3717 10.127 25.9761 10.0402 25.6206 9.8667C25.2694 9.68896 24.9901 9.44564 24.7827 9.13672C24.5796 8.82357 24.478 8.4681 24.478 8.07031C24.478 7.71061 24.5457 7.39111 24.6812 7.11182C24.8166 6.83252 25.0155 6.59766 25.2778 6.40723C25.5444 6.21257 25.8766 6.06657 26.2744 5.96924C26.6722 5.86768 27.1335 5.81689 27.6582 5.81689H28.7183ZM35.0913 3.13184V4.42676H31.0923V3.13184H35.0913ZM32.0825 1.43701H33.9106V7.93066C33.9106 8.12956 33.936 8.2819 33.9868 8.3877C34.0418 8.49349 34.1222 8.56755 34.228 8.60986C34.3338 8.64795 34.4671 8.66699 34.6279 8.66699C34.7422 8.66699 34.8438 8.66276 34.9326 8.6543C35.0257 8.6416 35.104 8.62891 35.1675 8.61621L35.1738 9.96191C35.0173 10.0127 34.848 10.0529 34.666 10.0825C34.484 10.1121 34.283 10.127 34.063 10.127C33.661 10.127 33.3097 10.0614 33.0093 9.93018C32.7131 9.79476 32.4845 9.57894 32.3237 9.28271C32.1629 8.98649 32.0825 8.59717 32.0825 8.11475V1.43701ZM39.2935 10.127C38.7603 10.127 38.2821 10.0423 37.8589 9.87305C37.4357 9.69954 37.076 9.46045 36.7798 9.15576C36.4878 8.85107 36.2635 8.49772 36.1069 8.0957C35.9504 7.68945 35.8721 7.25781 35.8721 6.80078V6.54688C35.8721 6.02637 35.9461 5.55029 36.0942 5.11865C36.2424 4.68701 36.4539 4.3125 36.729 3.99512C37.0083 3.67773 37.3468 3.43441 37.7446 3.26514C38.1424 3.09163 38.591 3.00488 39.0903 3.00488C39.577 3.00488 40.0086 3.08529 40.3853 3.24609C40.7619 3.4069 41.0771 3.63542 41.3311 3.93164C41.5892 4.22786 41.7839 4.58333 41.915 4.99805C42.0462 5.40853 42.1118 5.86556 42.1118 6.36914V7.13086H36.6528V5.91211H40.3154V5.77246C40.3154 5.51855 40.2689 5.29215 40.1758 5.09326C40.0869 4.89014 39.9515 4.72933 39.7695 4.61084C39.5876 4.49235 39.3548 4.43311 39.0713 4.43311C38.8301 4.43311 38.6227 4.486 38.4492 4.5918C38.2757 4.69759 38.134 4.8457 38.0239 5.03613C37.9181 5.22656 37.8377 5.45085 37.7827 5.70898C37.7319 5.96289 37.7065 6.24219 37.7065 6.54688V6.80078C37.7065 7.07585 37.7446 7.32975 37.8208 7.5625C37.9012 7.79525 38.0133 7.99626 38.1572 8.16553C38.3053 8.3348 38.4831 8.46598 38.6904 8.55908C38.902 8.65218 39.1411 8.69873 39.4077 8.69873C39.7378 8.69873 40.0446 8.63525 40.3281 8.5083C40.6159 8.37712 40.8634 8.18034 41.0708 7.91797L41.9595 8.88281C41.8156 9.09017 41.6188 9.28906 41.3691 9.47949C41.1237 9.66992 40.8275 9.8265 40.4805 9.94922C40.1335 10.0677 39.7378 10.127 39.2935 10.127ZM45.0825 0.25V10H43.248V0.25H45.0825ZM50.3003 8.45117V5.3916C50.3003 5.17155 50.2643 4.98324 50.1924 4.82666C50.1204 4.66585 50.0083 4.54102 49.856 4.45215C49.7078 4.36328 49.5153 4.31885 49.2783 4.31885C49.0752 4.31885 48.8996 4.35482 48.7515 4.42676C48.6034 4.49447 48.4891 4.59391 48.4087 4.7251C48.3283 4.85205 48.2881 5.00228 48.2881 5.17578H46.46C46.46 4.88379 46.5277 4.60661 46.6631 4.34424C46.7985 4.08187 46.9953 3.85124 47.2534 3.65234C47.5116 3.44922 47.8184 3.29053 48.1738 3.17627C48.5335 3.06201 48.9355 3.00488 49.3799 3.00488C49.9131 3.00488 50.387 3.09375 50.8018 3.27148C51.2165 3.44922 51.5423 3.71582 51.7793 4.07129C52.0205 4.42676 52.1411 4.87109 52.1411 5.4043V8.34326C52.1411 8.71989 52.1644 9.02881 52.2109 9.27002C52.2575 9.507 52.3252 9.71436 52.4141 9.89209V10H50.5669C50.478 9.8138 50.4103 9.58105 50.3638 9.30176C50.3215 9.01823 50.3003 8.7347 50.3003 8.45117ZM50.5415 5.81689L50.5542 6.85156H49.5322C49.291 6.85156 49.0815 6.87907 48.9038 6.93408C48.7261 6.9891 48.5801 7.06738 48.4658 7.16895C48.3516 7.26628 48.2669 7.38053 48.2119 7.51172C48.1611 7.6429 48.1357 7.78678 48.1357 7.94336C48.1357 8.09993 48.1717 8.2417 48.2437 8.36865C48.3156 8.49137 48.4193 8.5887 48.5547 8.66064C48.6901 8.72835 48.8488 8.76221 49.0308 8.76221C49.3058 8.76221 49.5449 8.70719 49.748 8.59717C49.9512 8.48714 50.1077 8.35173 50.2178 8.19092C50.332 8.03011 50.3913 7.87777 50.3955 7.73389L50.8779 8.5083C50.8102 8.6818 50.7171 8.86165 50.5986 9.04785C50.4844 9.23405 50.3384 9.40967 50.1606 9.57471C49.9829 9.73551 49.7692 9.86882 49.5195 9.97461C49.2699 10.0762 48.9736 10.127 48.6309 10.127C48.195 10.127 47.7993 10.0402 47.4438 9.8667C47.0926 9.68896 46.8133 9.44564 46.606 9.13672C46.4028 8.82357 46.3013 8.4681 46.3013 8.07031C46.3013 7.71061 46.369 7.39111 46.5044 7.11182C46.6398 6.83252 46.8387 6.59766 47.1011 6.40723C47.3677 6.21257 47.6999 6.06657 48.0977 5.96924C48.4954 5.86768 48.9567 5.81689 49.4814 5.81689H50.5415ZM57.2637 8.10205C57.2637 7.97087 57.2256 7.85238 57.1494 7.74658C57.0732 7.64079 56.9315 7.54346 56.7241 7.45459C56.521 7.36149 56.2269 7.27686 55.8418 7.20068C55.4948 7.12451 55.1711 7.0293 54.8706 6.91504C54.5744 6.79655 54.3162 6.65479 54.0962 6.48975C53.8804 6.32471 53.7111 6.13005 53.5884 5.90576C53.4657 5.67725 53.4043 5.41699 53.4043 5.125C53.4043 4.83724 53.4657 4.56641 53.5884 4.3125C53.7153 4.05859 53.8952 3.83431 54.1279 3.63965C54.3649 3.44076 54.6527 3.2863 54.9912 3.17627C55.334 3.06201 55.7191 3.00488 56.1465 3.00488C56.7432 3.00488 57.2552 3.1001 57.6826 3.29053C58.1143 3.48096 58.4443 3.74333 58.6729 4.07764C58.9056 4.40771 59.022 4.78434 59.022 5.20752H57.1938C57.1938 5.02979 57.1558 4.87109 57.0796 4.73145C57.0076 4.58757 56.8934 4.47542 56.7368 4.39502C56.5845 4.31038 56.3856 4.26807 56.1401 4.26807C55.937 4.26807 55.7614 4.30404 55.6133 4.37598C55.4652 4.44368 55.3509 4.53678 55.2705 4.65527C55.1943 4.76953 55.1562 4.89648 55.1562 5.03613C55.1562 5.14193 55.1774 5.23714 55.2197 5.32178C55.2663 5.40218 55.3403 5.47624 55.4419 5.54395C55.5435 5.61165 55.6746 5.67513 55.8354 5.73438C56.0005 5.78939 56.2036 5.84017 56.4448 5.88672C56.9399 5.98828 57.3822 6.12158 57.7715 6.28662C58.1608 6.44743 58.4697 6.66748 58.6982 6.94678C58.9268 7.22184 59.041 7.58366 59.041 8.03223C59.041 8.33691 58.9733 8.61621 58.8379 8.87012C58.7025 9.12402 58.5078 9.34619 58.2539 9.53662C58 9.72282 57.6953 9.86882 57.3398 9.97461C56.9886 10.0762 56.5929 10.127 56.1528 10.127C55.5138 10.127 54.9722 10.0127 54.5278 9.78418C54.0877 9.55566 53.7534 9.26579 53.5249 8.91455C53.3006 8.55908 53.1885 8.19515 53.1885 7.82275H54.9214C54.9299 8.07243 54.9933 8.27344 55.1118 8.42578C55.2345 8.57812 55.389 8.68815 55.5752 8.75586C55.7656 8.82357 55.9709 8.85742 56.1909 8.85742C56.4279 8.85742 56.6247 8.82568 56.7812 8.76221C56.9378 8.6945 57.0563 8.60563 57.1367 8.49561C57.2214 8.38135 57.2637 8.25016 57.2637 8.10205ZM65.395 3.13184V10H63.5605V3.13184H65.395ZM63.4463 1.3418C63.4463 1.0752 63.5394 0.855143 63.7256 0.681641C63.9118 0.508138 64.1615 0.421387 64.4746 0.421387C64.7835 0.421387 65.0311 0.508138 65.2173 0.681641C65.4077 0.855143 65.5029 1.0752 65.5029 1.3418C65.5029 1.6084 65.4077 1.82845 65.2173 2.00195C65.0311 2.17546 64.7835 2.26221 64.4746 2.26221C64.1615 2.26221 63.9118 2.17546 63.7256 2.00195C63.5394 1.82845 63.4463 1.6084 63.4463 1.3418ZM68.6958 4.59814V10H66.8677V3.13184H68.5815L68.6958 4.59814ZM68.4292 6.32471H67.9341C67.9341 5.81689 67.9997 5.35986 68.1309 4.95361C68.262 4.54313 68.4461 4.19401 68.6831 3.90625C68.9201 3.61426 69.2015 3.39209 69.5273 3.23975C69.8574 3.08317 70.2256 3.00488 70.6318 3.00488C70.9535 3.00488 71.2476 3.05143 71.5142 3.14453C71.7808 3.23763 72.0093 3.38574 72.1997 3.58887C72.3944 3.79199 72.5425 4.06071 72.644 4.39502C72.7498 4.72933 72.8027 5.1377 72.8027 5.62012V10H70.9619V5.61377C70.9619 5.30908 70.9196 5.0721 70.835 4.90283C70.7503 4.73356 70.6255 4.61507 70.4604 4.54736C70.2996 4.47542 70.1007 4.43945 69.8638 4.43945C69.6183 4.43945 69.4046 4.48812 69.2227 4.58545C69.0449 4.68278 68.8968 4.8182 68.7783 4.9917C68.6641 5.16097 68.5773 5.35986 68.5181 5.58838C68.4588 5.81689 68.4292 6.06234 68.4292 6.32471ZM77.9062 8.10205C77.9062 7.97087 77.8682 7.85238 77.792 7.74658C77.7158 7.64079 77.5741 7.54346 77.3667 7.45459C77.1636 7.36149 76.8695 7.27686 76.4844 7.20068C76.1374 7.12451 75.8136 7.0293 75.5132 6.91504C75.217 6.79655 74.9588 6.65479 74.7388 6.48975C74.5229 6.32471 74.3537 6.13005 74.231 5.90576C74.1082 5.67725 74.0469 5.41699 74.0469 5.125C74.0469 4.83724 74.1082 4.56641 74.231 4.3125C74.3579 4.05859 74.5378 3.83431 74.7705 3.63965C75.0075 3.44076 75.2952 3.2863 75.6338 3.17627C75.9766 3.06201 76.3617 3.00488 76.7891 3.00488C77.3857 3.00488 77.8978 3.1001 78.3252 3.29053C78.7568 3.48096 79.0869 3.74333 79.3154 4.07764C79.5482 4.40771 79.6646 4.78434 79.6646 5.20752H77.8364C77.8364 5.02979 77.7983 4.87109 77.7222 4.73145C77.6502 4.58757 77.536 4.47542 77.3794 4.39502C77.2271 4.31038 77.0282 4.26807 76.7827 4.26807C76.5796 4.26807 76.404 4.30404 76.2559 4.37598C76.1077 4.44368 75.9935 4.53678 75.9131 4.65527C75.8369 4.76953 75.7988 4.89648 75.7988 5.03613C75.7988 5.14193 75.82 5.23714 75.8623 5.32178C75.9089 5.40218 75.9829 5.47624 76.0845 5.54395C76.186 5.61165 76.3172 5.67513 76.478 5.73438C76.6431 5.78939 76.8462 5.84017 77.0874 5.88672C77.5825 5.98828 78.0247 6.12158 78.4141 6.28662C78.8034 6.44743 79.1123 6.66748 79.3408 6.94678C79.5693 7.22184 79.6836 7.58366 79.6836 8.03223C79.6836 8.33691 79.6159 8.61621 79.4805 8.87012C79.3451 9.12402 79.1504 9.34619 78.8965 9.53662C78.6426 9.72282 78.3379 9.86882 77.9824 9.97461C77.6312 10.0762 77.2355 10.127 76.7954 10.127C76.1564 10.127 75.6147 10.0127 75.1704 9.78418C74.7303 9.55566 74.396 9.26579 74.1675 8.91455C73.9432 8.55908 73.8311 8.19515 73.8311 7.82275H75.564C75.5724 8.07243 75.6359 8.27344 75.7544 8.42578C75.8771 8.57812 76.0316 8.68815 76.2178 8.75586C76.4082 8.82357 76.6134 8.85742 76.8335 8.85742C77.0705 8.85742 77.2673 8.82568 77.4238 8.76221C77.5804 8.6945 77.6989 8.60563 77.7793 8.49561C77.8639 8.38135 77.9062 8.25016 77.9062 8.10205ZM80.5786 6.63574V6.50244C80.5786 5.99886 80.6506 5.53548 80.7944 5.1123C80.9383 4.6849 81.1478 4.31462 81.4229 4.00146C81.6979 3.68831 82.0365 3.44499 82.4385 3.27148C82.8405 3.09375 83.3018 3.00488 83.8223 3.00488C84.3428 3.00488 84.8062 3.09375 85.2124 3.27148C85.6187 3.44499 85.9593 3.68831 86.2344 4.00146C86.5137 4.31462 86.7253 4.6849 86.8691 5.1123C87.013 5.53548 87.085 5.99886 87.085 6.50244V6.63574C87.085 7.13509 87.013 7.59847 86.8691 8.02588C86.7253 8.44906 86.5137 8.81934 86.2344 9.13672C85.9593 9.44987 85.6208 9.6932 85.2188 9.8667C84.8167 10.0402 84.3555 10.127 83.835 10.127C83.3145 10.127 82.8511 10.0402 82.4448 9.8667C82.0428 9.6932 81.7021 9.44987 81.4229 9.13672C81.1478 8.81934 80.9383 8.44906 80.7944 8.02588C80.6506 7.59847 80.5786 7.13509 80.5786 6.63574ZM82.4067 6.50244V6.63574C82.4067 6.9235 82.4321 7.19222 82.4829 7.44189C82.5337 7.69157 82.6141 7.91162 82.7241 8.10205C82.8384 8.28825 82.9865 8.43424 83.1685 8.54004C83.3504 8.64583 83.5726 8.69873 83.835 8.69873C84.0889 8.69873 84.3068 8.64583 84.4888 8.54004C84.6707 8.43424 84.8167 8.28825 84.9268 8.10205C85.0368 7.91162 85.1172 7.69157 85.168 7.44189C85.223 7.19222 85.2505 6.9235 85.2505 6.63574V6.50244C85.2505 6.22314 85.223 5.96077 85.168 5.71533C85.1172 5.46566 85.0347 5.24561 84.9204 5.05518C84.8104 4.86051 84.6644 4.70817 84.4824 4.59814C84.3005 4.48812 84.0804 4.43311 83.8223 4.43311C83.5641 4.43311 83.3441 4.48812 83.1621 4.59814C82.9844 4.70817 82.8384 4.86051 82.7241 5.05518C82.6141 5.24561 82.5337 5.46566 82.4829 5.71533C82.4321 5.96077 82.4067 6.22314 82.4067 6.50244ZM89.9985 4.59814V10H88.1704V3.13184H89.8843L89.9985 4.59814ZM89.7319 6.32471H89.2368C89.2368 5.81689 89.3024 5.35986 89.4336 4.95361C89.5648 4.54313 89.7489 4.19401 89.9858 3.90625C90.2228 3.61426 90.5042 3.39209 90.8301 3.23975C91.1602 3.08317 91.5283 3.00488 91.9346 3.00488C92.2562 3.00488 92.5503 3.05143 92.8169 3.14453C93.0835 3.23763 93.312 3.38574 93.5024 3.58887C93.6971 3.79199 93.8452 4.06071 93.9468 4.39502C94.0526 4.72933 94.1055 5.1377 94.1055 5.62012V10H92.2646V5.61377C92.2646 5.30908 92.2223 5.0721 92.1377 4.90283C92.0531 4.73356 91.9282 4.61507 91.7632 4.54736C91.6024 4.47542 91.4035 4.43945 91.1665 4.43945C90.9211 4.43945 90.7074 4.48812 90.5254 4.58545C90.3477 4.68278 90.1995 4.8182 90.0811 4.9917C89.9668 5.16097 89.88 5.35986 89.8208 5.58838C89.7616 5.81689 89.7319 6.06234 89.7319 6.32471ZM95.2036 6.63574V6.50244C95.2036 5.99886 95.2756 5.53548 95.4194 5.1123C95.5633 4.6849 95.7728 4.31462 96.0479 4.00146C96.3229 3.68831 96.6615 3.44499 97.0635 3.27148C97.4655 3.09375 97.9268 3.00488 98.4473 3.00488C98.9678 3.00488 99.4312 3.09375 99.8374 3.27148C100.244 3.44499 100.584 3.68831 100.859 4.00146C101.139 4.31462 101.35 4.6849 101.494 5.1123C101.638 5.53548 101.71 5.99886 101.71 6.50244V6.63574C101.71 7.13509 101.638 7.59847 101.494 8.02588C101.35 8.44906 101.139 8.81934 100.859 9.13672C100.584 9.44987 100.246 9.6932 99.8438 9.8667C99.4417 10.0402 98.9805 10.127 98.46 10.127C97.9395 10.127 97.4761 10.0402 97.0698 9.8667C96.6678 9.6932 96.3271 9.44987 96.0479 9.13672C95.7728 8.81934 95.5633 8.44906 95.4194 8.02588C95.2756 7.59847 95.2036 7.13509 95.2036 6.63574ZM97.0317 6.50244V6.63574C97.0317 6.9235 97.0571 7.19222 97.1079 7.44189C97.1587 7.69157 97.2391 7.91162 97.3491 8.10205C97.4634 8.28825 97.6115 8.43424 97.7935 8.54004C97.9754 8.64583 98.1976 8.69873 98.46 8.69873C98.7139 8.69873 98.9318 8.64583 99.1138 8.54004C99.2957 8.43424 99.4417 8.28825 99.5518 8.10205C99.6618 7.91162 99.7422 7.69157 99.793 7.44189C99.848 7.19222 99.8755 6.9235 99.8755 6.63574V6.50244C99.8755 6.22314 99.848 5.96077 99.793 5.71533C99.7422 5.46566 99.6597 5.24561 99.5454 5.05518C99.4354 4.86051 99.2894 4.70817 99.1074 4.59814C98.9255 4.48812 98.7054 4.43311 98.4473 4.43311C98.1891 4.43311 97.9691 4.48812 97.7871 4.59814C97.6094 4.70817 97.4634 4.86051 97.3491 5.05518C97.2391 5.24561 97.1587 5.46566 97.1079 5.71533C97.0571 5.96077 97.0317 6.22314 97.0317 6.50244ZM104.662 4.62988V10H102.833V3.13184H104.554L104.662 4.62988ZM106.731 3.0874L106.699 4.78223C106.61 4.76953 106.502 4.75895 106.375 4.75049C106.253 4.73779 106.141 4.73145 106.039 4.73145C105.781 4.73145 105.557 4.7653 105.366 4.83301C105.18 4.89648 105.023 4.9917 104.896 5.11865C104.774 5.24561 104.681 5.40007 104.617 5.58203C104.558 5.764 104.524 5.97135 104.516 6.2041L104.147 6.08984C104.147 5.64551 104.192 5.23714 104.281 4.86475C104.37 4.48812 104.499 4.16016 104.668 3.88086C104.841 3.60156 105.053 3.38574 105.303 3.2334C105.552 3.08105 105.838 3.00488 106.16 3.00488C106.261 3.00488 106.365 3.01335 106.471 3.03027C106.576 3.04297 106.663 3.06201 106.731 3.0874ZM109.524 3.13184V10H107.689V3.13184H109.524ZM107.575 1.3418C107.575 1.0752 107.668 0.855143 107.854 0.681641C108.041 0.508138 108.29 0.421387 108.604 0.421387C108.912 0.421387 109.16 0.508138 109.346 0.681641C109.537 0.855143 109.632 1.0752 109.632 1.3418C109.632 1.6084 109.537 1.82845 109.346 2.00195C109.16 2.17546 108.912 2.26221 108.604 2.26221C108.29 2.26221 108.041 2.17546 107.854 2.00195C107.668 1.82845 107.575 1.6084 107.575 1.3418ZM114.748 8.10205C114.748 7.97087 114.71 7.85238 114.634 7.74658C114.558 7.64079 114.416 7.54346 114.208 7.45459C114.005 7.36149 113.711 7.27686 113.326 7.20068C112.979 7.12451 112.655 7.0293 112.355 6.91504C112.059 6.79655 111.801 6.65479 111.581 6.48975C111.365 6.32471 111.195 6.13005 111.073 5.90576C110.95 5.67725 110.889 5.41699 110.889 5.125C110.889 4.83724 110.95 4.56641 111.073 4.3125C111.2 4.05859 111.38 3.83431 111.612 3.63965C111.849 3.44076 112.137 3.2863 112.476 3.17627C112.818 3.06201 113.203 3.00488 113.631 3.00488C114.228 3.00488 114.74 3.1001 115.167 3.29053C115.599 3.48096 115.929 3.74333 116.157 4.07764C116.39 4.40771 116.506 4.78434 116.506 5.20752H114.678C114.678 5.02979 114.64 4.87109 114.564 4.73145C114.492 4.58757 114.378 4.47542 114.221 4.39502C114.069 4.31038 113.87 4.26807 113.625 4.26807C113.421 4.26807 113.246 4.30404 113.098 4.37598C112.95 4.44368 112.835 4.53678 112.755 4.65527C112.679 4.76953 112.641 4.89648 112.641 5.03613C112.641 5.14193 112.662 5.23714 112.704 5.32178C112.751 5.40218 112.825 5.47624 112.926 5.54395C113.028 5.61165 113.159 5.67513 113.32 5.73438C113.485 5.78939 113.688 5.84017 113.929 5.88672C114.424 5.98828 114.867 6.12158 115.256 6.28662C115.645 6.44743 115.954 6.66748 116.183 6.94678C116.411 7.22184 116.525 7.58366 116.525 8.03223C116.525 8.33691 116.458 8.61621 116.322 8.87012C116.187 9.12402 115.992 9.34619 115.738 9.53662C115.484 9.72282 115.18 9.86882 114.824 9.97461C114.473 10.0762 114.077 10.127 113.637 10.127C112.998 10.127 112.457 10.0127 112.012 9.78418C111.572 9.55566 111.238 9.26579 111.009 8.91455C110.785 8.55908 110.673 8.19515 110.673 7.82275H112.406C112.414 8.07243 112.478 8.27344 112.596 8.42578C112.719 8.57812 112.873 8.68815 113.06 8.75586C113.25 8.82357 113.455 8.85742 113.675 8.85742C113.912 8.85742 114.109 8.82568 114.266 8.76221C114.422 8.6945 114.541 8.60563 114.621 8.49561C114.706 8.38135 114.748 8.25016 114.748 8.10205ZM121.419 8.45117V5.3916C121.419 5.17155 121.383 4.98324 121.312 4.82666C121.24 4.66585 121.127 4.54102 120.975 4.45215C120.827 4.36328 120.634 4.31885 120.397 4.31885C120.194 4.31885 120.019 4.35482 119.871 4.42676C119.722 4.49447 119.608 4.59391 119.528 4.7251C119.447 4.85205 119.407 5.00228 119.407 5.17578H117.579C117.579 4.88379 117.647 4.60661 117.782 4.34424C117.918 4.08187 118.114 3.85124 118.373 3.65234C118.631 3.44922 118.938 3.29053 119.293 3.17627C119.653 3.06201 120.055 3.00488 120.499 3.00488C121.032 3.00488 121.506 3.09375 121.921 3.27148C122.336 3.44922 122.661 3.71582 122.898 4.07129C123.14 4.42676 123.26 4.87109 123.26 5.4043V8.34326C123.26 8.71989 123.284 9.02881 123.33 9.27002C123.377 9.507 123.444 9.71436 123.533 9.89209V10H121.686C121.597 9.8138 121.529 9.58105 121.483 9.30176C121.441 9.01823 121.419 8.7347 121.419 8.45117ZM121.661 5.81689L121.673 6.85156H120.651C120.41 6.85156 120.201 6.87907 120.023 6.93408C119.845 6.9891 119.699 7.06738 119.585 7.16895C119.471 7.26628 119.386 7.38053 119.331 7.51172C119.28 7.6429 119.255 7.78678 119.255 7.94336C119.255 8.09993 119.291 8.2417 119.363 8.36865C119.435 8.49137 119.538 8.5887 119.674 8.66064C119.809 8.72835 119.968 8.76221 120.15 8.76221C120.425 8.76221 120.664 8.70719 120.867 8.59717C121.07 8.48714 121.227 8.35173 121.337 8.19092C121.451 8.03011 121.51 7.87777 121.515 7.73389L121.997 8.5083C121.929 8.6818 121.836 8.86165 121.718 9.04785C121.604 9.23405 121.458 9.40967 121.28 9.57471C121.102 9.73551 120.888 9.86882 120.639 9.97461C120.389 10.0762 120.093 10.127 119.75 10.127C119.314 10.127 118.918 10.0402 118.563 9.8667C118.212 9.68896 117.932 9.44564 117.725 9.13672C117.522 8.82357 117.42 8.4681 117.42 8.07031C117.42 7.71061 117.488 7.39111 117.624 7.11182C117.759 6.83252 117.958 6.59766 118.22 6.40723C118.487 6.21257 118.819 6.06657 119.217 5.96924C119.615 5.86768 120.076 5.81689 120.601 5.81689H121.661ZM126.459 4.59814V10H124.631V3.13184H126.345L126.459 4.59814ZM126.193 6.32471H125.698C125.698 5.81689 125.763 5.35986 125.895 4.95361C126.026 4.54313 126.21 4.19401 126.447 3.90625C126.684 3.61426 126.965 3.39209 127.291 3.23975C127.621 3.08317 127.989 3.00488 128.396 3.00488C128.717 3.00488 129.011 3.05143 129.278 3.14453C129.544 3.23763 129.773 3.38574 129.963 3.58887C130.158 3.79199 130.306 4.06071 130.408 4.39502C130.514 4.72933 130.566 5.1377 130.566 5.62012V10H128.726V5.61377C128.726 5.30908 128.683 5.0721 128.599 4.90283C128.514 4.73356 128.389 4.61507 128.224 4.54736C128.063 4.47542 127.864 4.43945 127.627 4.43945C127.382 4.43945 127.168 4.48812 126.986 4.58545C126.809 4.68278 126.66 4.8182 126.542 4.9917C126.428 5.16097 126.341 5.35986 126.282 5.58838C126.222 5.81689 126.193 6.06234 126.193 6.32471ZM135.321 3.13184V4.42676H131.322V3.13184H135.321ZM132.312 1.43701H134.14V7.93066C134.14 8.12956 134.166 8.2819 134.216 8.3877C134.271 8.49349 134.352 8.56755 134.458 8.60986C134.563 8.64795 134.697 8.66699 134.857 8.66699C134.972 8.66699 135.073 8.66276 135.162 8.6543C135.255 8.6416 135.333 8.62891 135.397 8.61621L135.403 9.96191C135.247 10.0127 135.077 10.0529 134.896 10.0825C134.714 10.1121 134.513 10.127 134.292 10.127C133.89 10.127 133.539 10.0614 133.239 9.93018C132.943 9.79476 132.714 9.57894 132.553 9.28271C132.392 8.98649 132.312 8.59717 132.312 8.11475V1.43701ZM140.075 8.10205C140.075 7.97087 140.037 7.85238 139.961 7.74658C139.885 7.64079 139.743 7.54346 139.536 7.45459C139.333 7.36149 139.038 7.27686 138.653 7.20068C138.306 7.12451 137.983 7.0293 137.682 6.91504C137.386 6.79655 137.128 6.65479 136.908 6.48975C136.692 6.32471 136.523 6.13005 136.4 5.90576C136.277 5.67725 136.216 5.41699 136.216 5.125C136.216 4.83724 136.277 4.56641 136.4 4.3125C136.527 4.05859 136.707 3.83431 136.939 3.63965C137.176 3.44076 137.464 3.2863 137.803 3.17627C138.146 3.06201 138.531 3.00488 138.958 3.00488C139.555 3.00488 140.067 3.1001 140.494 3.29053C140.926 3.48096 141.256 3.74333 141.484 4.07764C141.717 4.40771 141.833 4.78434 141.833 5.20752H140.005C140.005 5.02979 139.967 4.87109 139.891 4.73145C139.819 4.58757 139.705 4.47542 139.548 4.39502C139.396 4.31038 139.197 4.26807 138.952 4.26807C138.749 4.26807 138.573 4.30404 138.425 4.37598C138.277 4.44368 138.162 4.53678 138.082 4.65527C138.006 4.76953 137.968 4.89648 137.968 5.03613C137.968 5.14193 137.989 5.23714 138.031 5.32178C138.078 5.40218 138.152 5.47624 138.253 5.54395C138.355 5.61165 138.486 5.67513 138.647 5.73438C138.812 5.78939 139.015 5.84017 139.256 5.88672C139.751 5.98828 140.194 6.12158 140.583 6.28662C140.972 6.44743 141.281 6.66748 141.51 6.94678C141.738 7.22184 141.853 7.58366 141.853 8.03223C141.853 8.33691 141.785 8.61621 141.649 8.87012C141.514 9.12402 141.319 9.34619 141.065 9.53662C140.812 9.72282 140.507 9.86882 140.151 9.97461C139.8 10.0762 139.404 10.127 138.964 10.127C138.325 10.127 137.784 10.0127 137.339 9.78418C136.899 9.55566 136.565 9.26579 136.336 8.91455C136.112 8.55908 136 8.19515 136 7.82275H137.733C137.741 8.07243 137.805 8.27344 137.923 8.42578C138.046 8.57812 138.201 8.68815 138.387 8.75586C138.577 8.82357 138.782 8.85742 139.002 8.85742C139.239 8.85742 139.436 8.82568 139.593 8.76221C139.749 8.6945 139.868 8.60563 139.948 8.49561C140.033 8.38135 140.075 8.25016 140.075 8.10205ZM23.6677 14.7578H27.1144C27.8211 14.7578 28.4284 14.8636 28.9362 15.0752C29.4483 15.2868 29.8418 15.5999 30.1169 16.0146C30.3919 16.4294 30.5295 16.9393 30.5295 17.5444C30.5295 18.0396 30.4448 18.4648 30.2756 18.8203C30.1105 19.1715 29.8757 19.4657 29.571 19.7026C29.2705 19.9354 28.9172 20.1216 28.5109 20.2612L27.9079 20.5786H24.9118L24.8991 19.0933H27.1271C27.4614 19.0933 27.7386 19.034 27.9587 18.9155C28.1787 18.797 28.3438 18.632 28.4538 18.4204C28.5681 18.2088 28.6252 17.9634 28.6252 17.6841C28.6252 17.3879 28.5702 17.1318 28.4601 16.916C28.3501 16.7002 28.183 16.5352 27.9587 16.4209C27.7344 16.3066 27.453 16.2495 27.1144 16.2495H25.572V24H23.6677V14.7578ZM28.8347 24L26.7272 19.8804L28.7394 19.8677L30.8722 23.9111V24H28.8347ZM39.5876 19.1631V19.6011C39.5876 20.3035 39.4924 20.9341 39.3019 21.4927C39.1115 22.0513 38.8428 22.5273 38.4958 22.9209C38.1488 23.3102 37.7341 23.6086 37.2516 23.8159C36.7735 24.0233 36.2424 24.127 35.6584 24.127C35.0786 24.127 34.5475 24.0233 34.0651 23.8159C33.5869 23.6086 33.1722 23.3102 32.821 22.9209C32.4697 22.5273 32.1968 22.0513 32.0021 21.4927C31.8117 20.9341 31.7165 20.3035 31.7165 19.6011V19.1631C31.7165 18.4564 31.8117 17.8258 32.0021 17.2715C32.1926 16.7129 32.4613 16.2368 32.8083 15.8433C33.1595 15.4497 33.5742 15.1493 34.0524 14.9419C34.5348 14.7345 35.0659 14.6309 35.6457 14.6309C36.2297 14.6309 36.7608 14.7345 37.2389 14.9419C37.7214 15.1493 38.1361 15.4497 38.4831 15.8433C38.8343 16.2368 39.1052 16.7129 39.2956 17.2715C39.4903 17.8258 39.5876 18.4564 39.5876 19.1631ZM37.6642 19.6011V19.1504C37.6642 18.6595 37.6198 18.2279 37.5309 17.8555C37.4421 17.4831 37.3109 17.1699 37.1374 16.916C36.9639 16.6621 36.7523 16.4717 36.5026 16.3447C36.2529 16.2135 35.9673 16.1479 35.6457 16.1479C35.3241 16.1479 35.0384 16.2135 34.7888 16.3447C34.5433 16.4717 34.3338 16.6621 34.1603 16.916C33.9911 17.1699 33.862 17.4831 33.7731 17.8555C33.6843 18.2279 33.6398 18.6595 33.6398 19.1504V19.6011C33.6398 20.0877 33.6843 20.5194 33.7731 20.896C33.862 21.2684 33.9932 21.5837 34.1667 21.8418C34.3402 22.0957 34.5518 22.2882 34.8014 22.4194C35.0511 22.5506 35.3368 22.6162 35.6584 22.6162C35.98 22.6162 36.2656 22.5506 36.5153 22.4194C36.765 22.2882 36.9745 22.0957 37.1437 21.8418C37.313 21.5837 37.4421 21.2684 37.5309 20.896C37.6198 20.5194 37.6642 20.0877 37.6642 19.6011ZM45.7702 21.5815C45.7702 21.4165 45.7448 21.2684 45.694 21.1372C45.6475 21.0018 45.5586 20.8791 45.4274 20.769C45.2962 20.6548 45.1122 20.5426 44.8752 20.4326C44.6382 20.3226 44.3314 20.2083 43.9548 20.0898C43.5358 19.9544 43.138 19.8021 42.7614 19.6328C42.389 19.4635 42.0589 19.2668 41.7712 19.0425C41.4876 18.814 41.2634 18.5495 41.0983 18.249C40.9375 17.9486 40.8571 17.5994 40.8571 17.2017C40.8571 16.8166 40.9417 16.4674 41.111 16.1543C41.2803 15.8369 41.5173 15.5661 41.822 15.3418C42.1266 15.1133 42.4863 14.9377 42.9011 14.8149C43.32 14.6922 43.7792 14.6309 44.2785 14.6309C44.9598 14.6309 45.5544 14.7536 46.0622 14.999C46.57 15.2445 46.9636 15.5809 47.2429 16.0083C47.5264 16.4357 47.6681 16.9245 47.6681 17.4746H45.7765C45.7765 17.2038 45.7194 16.9668 45.6052 16.7637C45.4951 16.5563 45.3259 16.3934 45.0973 16.2749C44.8731 16.1564 44.5895 16.0972 44.2468 16.0972C43.9167 16.0972 43.6416 16.1479 43.4216 16.2495C43.2015 16.3468 43.0365 16.4801 42.9264 16.6494C42.8164 16.8145 42.7614 17.0007 42.7614 17.208C42.7614 17.3646 42.7995 17.5063 42.8757 17.6333C42.9561 17.7603 43.0746 17.8787 43.2311 17.9888C43.3877 18.0988 43.5803 18.2025 43.8088 18.2998C44.0373 18.3971 44.3018 18.4924 44.6022 18.5854C45.1058 18.7378 45.548 18.9092 45.9289 19.0996C46.314 19.29 46.6356 19.5037 46.8937 19.7407C47.1519 19.9777 47.3465 20.2464 47.4777 20.5469C47.6089 20.8473 47.6745 21.188 47.6745 21.5688C47.6745 21.9709 47.5962 22.3306 47.4396 22.6479C47.2831 22.9653 47.0567 23.234 46.7604 23.4541C46.4642 23.6742 46.1109 23.8413 45.7004 23.9556C45.2899 24.0698 44.8307 24.127 44.3229 24.127C43.8659 24.127 43.4152 24.0677 42.9709 23.9492C42.5265 23.8265 42.1224 23.6424 41.7585 23.397C41.3988 23.1515 41.111 22.8384 40.8952 22.4575C40.6794 22.0767 40.5715 21.626 40.5715 21.1055H42.4821C42.4821 21.3932 42.5265 21.6366 42.6154 21.8354C42.7043 22.0343 42.8291 22.1951 42.9899 22.3179C43.155 22.4406 43.3496 22.5295 43.5739 22.5845C43.8024 22.6395 44.0521 22.667 44.3229 22.667C44.653 22.667 44.9238 22.6204 45.1354 22.5273C45.3513 22.4342 45.5099 22.3052 45.6115 22.1401C45.7173 21.9751 45.7702 21.7889 45.7702 21.5815ZM55.1711 22.5146V24H50.2516V22.5146H55.1711ZM50.8737 14.7578V24H48.9694V14.7578H50.8737ZM54.53 18.522V19.9692H50.2516V18.522H54.53ZM55.1647 14.7578V16.2495H50.2516V14.7578H55.1647ZM67.0412 14.7578V24H65.1369L61.4235 17.8047V24H59.5192V14.7578H61.4235L65.1432 20.9595V14.7578H67.0412ZM74.8996 22.5146V24H69.9802V22.5146H74.8996ZM70.6022 14.7578V24H68.6979V14.7578H70.6022ZM74.2585 18.522V19.9692H69.9802V18.522H74.2585ZM74.8932 14.7578V16.2495H69.9802V14.7578H74.8932ZM77.5783 14.7578L79.3176 17.9824L81.0568 14.7578H83.2341L80.549 19.3408L83.3039 24H81.1076L79.3176 20.7119L77.5275 24H75.3185L78.0798 19.3408L75.3884 14.7578H77.5783ZM88.3947 14.7578V24H86.4968V14.7578H88.3947ZM91.2385 14.7578V16.2495H83.6974V14.7578H91.2385ZM102.544 19.1694V22.832C102.4 23.0055 102.178 23.1938 101.877 23.397C101.577 23.5959 101.189 23.7673 100.716 23.9111C100.242 24.055 99.6682 24.127 98.9953 24.127C98.3986 24.127 97.8548 24.0296 97.364 23.835C96.8731 23.6361 96.4499 23.3462 96.0944 22.9653C95.7432 22.5845 95.4724 22.119 95.2819 21.5688C95.0915 21.0145 94.9963 20.3818 94.9963 19.6709V19.0933C94.9963 18.3823 95.0873 17.7497 95.2692 17.1953C95.4554 16.641 95.7199 16.1733 96.0627 15.7925C96.4055 15.4116 96.8138 15.1217 97.2878 14.9229C97.7617 14.724 98.2886 14.6245 98.8683 14.6245C99.6724 14.6245 100.333 14.7557 100.849 15.0181C101.365 15.2762 101.759 15.6359 102.029 16.0972C102.305 16.5542 102.474 17.0789 102.537 17.6714H100.69C100.644 17.3582 100.555 17.0853 100.424 16.8525C100.292 16.6198 100.104 16.4378 99.8586 16.3066C99.6174 16.1755 99.3042 16.1099 98.9191 16.1099C98.6017 16.1099 98.3182 16.1755 98.0685 16.3066C97.8231 16.4336 97.6157 16.6219 97.4465 16.8716C97.2772 17.1213 97.1481 17.4302 97.0593 17.7983C96.9704 18.1665 96.926 18.5939 96.926 19.0806V19.6709C96.926 20.1533 96.9725 20.5807 97.0656 20.9531C97.1587 21.3213 97.2962 21.6323 97.4782 21.8862C97.6644 22.1359 97.8929 22.3242 98.1638 22.4512C98.4346 22.5781 98.7499 22.6416 99.1096 22.6416C99.41 22.6416 99.6597 22.6162 99.8586 22.5654C100.062 22.5146 100.225 22.4533 100.347 22.3813C100.474 22.3052 100.572 22.2332 100.639 22.1655V20.5278H98.9001V19.1694H102.544ZM110.281 22.5146V24H105.362V22.5146H110.281ZM105.984 14.7578V24H104.08V14.7578H105.984ZM109.64 18.522V19.9692H105.362V18.522H109.64ZM110.275 14.7578V16.2495H105.362V14.7578H110.275ZM118.914 14.7578V24H117.01L113.297 17.8047V24H111.392V14.7578H113.297L117.016 20.9595V14.7578H118.914ZM120.797 14.4547H121.825L123.158 18.4194L124.487 14.4547H125.516L123.573 20H122.739L120.797 14.4547ZM120.203 14.4547H121.25L121.444 18.5642V20H120.203V14.4547ZM125.063 14.4547H126.114V20H124.868V18.5642L125.063 14.4547ZM130.457 18.1414H131.691C131.671 18.5223 131.567 18.8587 131.379 19.1507C131.194 19.4401 130.936 19.6674 130.606 19.8324C130.276 19.9949 129.883 20.0762 129.429 20.0762C129.066 20.0762 128.741 20.014 128.454 19.8896C128.167 19.7651 127.923 19.5874 127.723 19.3563C127.525 19.1228 127.372 18.8422 127.266 18.5146C127.162 18.1846 127.109 17.8126 127.109 17.3987V17.0598C127.109 16.6459 127.164 16.2739 127.273 15.9438C127.382 15.6138 127.539 15.3319 127.742 15.0983C127.945 14.8647 128.189 14.6857 128.473 14.5613C128.757 14.4369 129.075 14.3747 129.425 14.3747C129.897 14.3747 130.296 14.4598 130.621 14.6299C130.946 14.8 131.197 15.0336 131.375 15.3307C131.555 15.6277 131.663 15.9667 131.699 16.3476H130.461C130.451 16.1317 130.41 15.9502 130.339 15.8029C130.268 15.6531 130.159 15.5401 130.012 15.464C129.864 15.3878 129.669 15.3497 129.425 15.3497C129.247 15.3497 129.091 15.3827 128.957 15.4487C128.825 15.5147 128.714 15.6176 128.625 15.7572C128.539 15.8969 128.474 16.0746 128.431 16.2904C128.388 16.5037 128.366 16.7576 128.366 17.0521V17.3987C128.366 17.6907 128.385 17.9434 128.423 18.1566C128.462 18.3699 128.522 18.5464 128.606 18.686C128.693 18.8257 128.803 18.9298 128.938 18.9983C129.072 19.0669 129.236 19.1012 129.429 19.1012C129.65 19.1012 129.834 19.0669 129.981 18.9983C130.128 18.9272 130.241 18.8206 130.32 18.6784C130.399 18.5362 130.445 18.3572 130.457 18.1414ZM1.95339 28.7578V38H0.0490952V28.7578H1.95339ZM5.63503 32.7061V34.1914H1.43288V32.7061H5.63503ZM6.07937 28.7578V30.2495H1.43288V28.7578H6.07937ZM9.20876 28.7578V38H7.31081V28.7578H9.20876ZM14.6106 33.9438H12.2366L12.2239 32.6362H14.2171C14.5683 32.6362 14.8561 32.5918 15.0803 32.5029C15.3046 32.4098 15.4718 32.2765 15.5818 32.103C15.6961 31.9253 15.7532 31.7095 15.7532 31.4556C15.7532 31.1678 15.6982 30.9351 15.5882 30.7573C15.4824 30.5796 15.3152 30.4505 15.0867 30.3701C14.8624 30.2897 14.5725 30.2495 14.2171 30.2495H12.8968V38H10.9925V28.7578H14.2171C14.7545 28.7578 15.2348 28.8086 15.658 28.9102C16.0854 29.0117 16.4472 29.1662 16.7434 29.3735C17.0397 29.5809 17.2661 29.8433 17.4226 30.1606C17.5792 30.4738 17.6575 30.8462 17.6575 31.2778C17.6575 31.6587 17.5707 32.0099 17.3972 32.3315C17.228 32.6532 16.9593 32.9155 16.5911 33.1187C16.2272 33.3218 15.7511 33.4339 15.1629 33.4551L14.6106 33.9438ZM14.5281 38H11.7161L12.4588 36.5146H14.5281C14.8624 36.5146 15.1354 36.4618 15.3469 36.356C15.5585 36.2459 15.7151 36.0978 15.8167 35.9116C15.9182 35.7254 15.969 35.5117 15.969 35.2705C15.969 34.9997 15.9225 34.7648 15.8294 34.5659C15.7405 34.367 15.5966 34.2147 15.3977 34.1089C15.1988 33.9989 14.9365 33.9438 14.6106 33.9438H12.7761L12.7888 32.6362H15.074L15.512 33.1504C16.0748 33.1419 16.5276 33.2414 16.8704 33.4487C17.2174 33.6519 17.4692 33.9163 17.6258 34.2422C17.7866 34.568 17.867 34.9172 17.867 35.2896C17.867 35.882 17.7379 36.3813 17.4798 36.7876C17.2216 37.1896 16.8429 37.4922 16.3435 37.6953C15.8484 37.8984 15.2433 38 14.5281 38ZM25.4968 36.5146V38H20.5774V36.5146H25.4968ZM21.1995 28.7578V38H19.2952V28.7578H21.1995ZM24.8557 32.522V33.9692H20.5774V32.522H24.8557ZM25.4905 28.7578V30.2495H20.5774V28.7578H25.4905ZM26.6077 28.7578H30.0545C30.7612 28.7578 31.3684 28.8636 31.8762 29.0752C32.3883 29.2868 32.7818 29.5999 33.0569 30.0146C33.332 30.4294 33.4695 30.9393 33.4695 31.5444C33.4695 32.0396 33.3849 32.4648 33.2156 32.8203C33.0506 33.1715 32.8157 33.4657 32.511 33.7026C32.2106 33.9354 31.8572 34.1216 31.451 34.2612L30.8479 34.5786H27.8518L27.8391 33.0933H30.0672C30.4015 33.0933 30.6787 33.034 30.8987 32.9155C31.1188 32.797 31.2838 32.632 31.3938 32.4204C31.5081 32.2088 31.5652 31.9634 31.5652 31.6841C31.5652 31.3879 31.5102 31.1318 31.4002 30.916C31.2901 30.7002 31.123 30.5352 30.8987 30.4209C30.6744 30.3066 30.393 30.2495 30.0545 30.2495H28.512V38H26.6077V28.7578ZM31.7747 38L29.6673 33.8804L31.6795 33.8677L33.8123 37.9111V38H31.7747ZM42.261 33.1694V36.832C42.1171 37.0055 41.895 37.1938 41.5945 37.397C41.294 37.5959 40.9068 37.7673 40.4329 37.9111C39.9589 38.055 39.3855 38.127 38.7127 38.127C38.116 38.127 37.5722 38.0296 37.0813 37.835C36.5904 37.6361 36.1673 37.3462 35.8118 36.9653C35.4606 36.5845 35.1897 36.119 34.9993 35.5688C34.8089 35.0145 34.7136 34.3818 34.7136 33.6709V33.0933C34.7136 32.3823 34.8046 31.7497 34.9866 31.1953C35.1728 30.641 35.4373 30.1733 35.7801 29.7925C36.1228 29.4116 36.5312 29.1217 37.0051 28.9229C37.4791 28.724 38.006 28.6245 38.5857 28.6245C39.3898 28.6245 40.0499 28.7557 40.5662 29.0181C41.0825 29.2762 41.476 29.6359 41.7468 30.0972C42.0219 30.5542 42.1912 31.0789 42.2547 31.6714H40.4075C40.3609 31.3582 40.2721 31.0853 40.1409 30.8525C40.0097 30.6198 39.8214 30.4378 39.576 30.3066C39.3347 30.1755 39.0216 30.1099 38.6365 30.1099C38.3191 30.1099 38.0356 30.1755 37.7859 30.3066C37.5405 30.4336 37.3331 30.6219 37.1638 30.8716C36.9946 31.1213 36.8655 31.4302 36.7766 31.7983C36.6878 32.1665 36.6433 32.5939 36.6433 33.0806V33.6709C36.6433 34.1533 36.6899 34.5807 36.783 34.9531C36.8761 35.3213 37.0136 35.6323 37.1956 35.8862C37.3818 36.1359 37.6103 36.3242 37.8811 36.4512C38.152 36.5781 38.4672 36.6416 38.8269 36.6416C39.1274 36.6416 39.3771 36.6162 39.576 36.5654C39.7791 36.5146 39.942 36.4533 40.0647 36.3813C40.1917 36.3052 40.289 36.2332 40.3567 36.1655V34.5278H38.6175V33.1694H42.261ZM49.7385 36.5146V38H45.0857V36.5146H49.7385ZM45.7014 28.7578V38H43.7971V28.7578H45.7014ZM54.7151 30.3384L52.2014 38H50.1765L53.6106 28.7578H54.8992L54.7151 30.3384ZM56.8035 38L54.2835 30.3384L54.0803 28.7578H55.3816L58.8347 38H56.8035ZM56.6892 34.5596V36.0513H51.8079V34.5596H56.6892ZM64.5032 35.5815C64.5032 35.4165 64.4778 35.2684 64.427 35.1372C64.3805 35.0018 64.2916 34.8791 64.1604 34.769C64.0292 34.6548 63.8452 34.5426 63.6082 34.4326C63.3712 34.3226 63.0644 34.2083 62.6878 34.0898C62.2688 33.9544 61.871 33.8021 61.4944 33.6328C61.122 33.4635 60.7919 33.2668 60.5042 33.0425C60.2206 32.814 59.9964 32.5495 59.8313 32.249C59.6705 31.9486 59.5901 31.5994 59.5901 31.2017C59.5901 30.8166 59.6747 30.4674 59.844 30.1543C60.0133 29.8369 60.2503 29.5661 60.555 29.3418C60.8596 29.1133 61.2193 28.9377 61.6341 28.8149C62.053 28.6922 62.5121 28.6309 63.0115 28.6309C63.6928 28.6309 64.2874 28.7536 64.7952 28.999C65.303 29.2445 65.6966 29.5809 65.9759 30.0083C66.2594 30.4357 66.4011 30.9245 66.4011 31.4746H64.5095C64.5095 31.2038 64.4524 30.9668 64.3382 30.7637C64.2281 30.5563 64.0589 30.3934 63.8303 30.2749C63.6061 30.1564 63.3225 30.0972 62.9798 30.0972C62.6497 30.0972 62.3746 30.1479 62.1546 30.2495C61.9345 30.3468 61.7695 30.4801 61.6594 30.6494C61.5494 30.8145 61.4944 31.0007 61.4944 31.208C61.4944 31.3646 61.5325 31.5063 61.6087 31.6333C61.6891 31.7603 61.8076 31.8787 61.9641 31.9888C62.1207 32.0988 62.3133 32.2025 62.5418 32.2998C62.7703 32.3971 63.0348 32.4924 63.3352 32.5854C63.8388 32.7378 64.281 32.9092 64.6619 33.0996C65.047 33.29 65.3686 33.5037 65.6267 33.7407C65.8849 33.9777 66.0795 34.2464 66.2107 34.5469C66.3419 34.8473 66.4075 35.188 66.4075 35.5688C66.4075 35.9709 66.3292 36.3306 66.1726 36.6479C66.0161 36.9653 65.7897 37.234 65.4934 37.4541C65.1972 37.6742 64.8439 37.8413 64.4334 37.9556C64.0229 38.0698 63.5637 38.127 63.0559 38.127C62.5989 38.127 62.1482 38.0677 61.7039 37.9492C61.2595 37.8265 60.8554 37.6424 60.4915 37.397C60.1318 37.1515 59.844 36.8384 59.6282 36.4575C59.4124 36.0767 59.3045 35.626 59.3045 35.1055H61.2151C61.2151 35.3932 61.2595 35.6366 61.3484 35.8354C61.4373 36.0343 61.5621 36.1951 61.7229 36.3179C61.888 36.4406 62.0826 36.5295 62.3069 36.5845C62.5354 36.6395 62.7851 36.667 63.0559 36.667C63.386 36.667 63.6568 36.6204 63.8684 36.5273C64.0843 36.4342 64.2429 36.3052 64.3445 36.1401C64.4503 35.9751 64.5032 35.7889 64.5032 35.5815ZM67.9284 28.4547H68.9567L70.2897 32.4194L71.6189 28.4547H72.6472L70.7049 34H69.8708L67.9284 28.4547ZM67.3343 28.4547H68.3816L68.5759 32.5642V34H67.3343V28.4547ZM72.194 28.4547H73.2452V34H71.9998V32.5642L72.194 28.4547ZM76.1566 34H74.9379L74.9455 33.0402H76.1566C76.4334 33.0402 76.667 32.9768 76.8574 32.8498C77.0478 32.7203 77.1926 32.5299 77.2916 32.2785C77.3906 32.0246 77.4401 31.7161 77.4401 31.353V31.0979C77.4401 30.8236 77.4122 30.5824 77.3563 30.3742C77.3005 30.1635 77.218 29.987 77.1088 29.8448C76.9996 29.7026 76.8638 29.596 76.7013 29.5249C76.5413 29.4538 76.3572 29.4183 76.149 29.4183H74.915V28.4547H76.149C76.5248 28.4547 76.8676 28.5182 77.1773 28.6451C77.4896 28.7721 77.7588 28.9536 77.9848 29.1897C78.2133 29.4259 78.3897 29.7052 78.5142 30.0276C78.6386 30.3501 78.7008 30.7094 78.7008 31.1055V31.353C78.7008 31.7466 78.6386 32.1059 78.5142 32.4309C78.3897 32.7533 78.2133 33.0326 77.9848 33.2687C77.7588 33.5023 77.4909 33.6826 77.1811 33.8096C76.8714 33.9365 76.5299 34 76.1566 34ZM75.6425 28.4547V34H74.4009V28.4547H75.6425ZM88.3191 36.6289L90.8201 38.6094L89.6204 39.6504L87.1575 37.6699L88.3191 36.6289ZM90.8836 33.1631V33.6011C90.8836 34.3035 90.7884 34.9341 90.598 35.4927C90.4118 36.0513 90.143 36.5273 89.7918 36.9209C89.4406 37.3102 89.0259 37.6086 88.5477 37.8159C88.0695 38.0233 87.5384 38.127 86.9544 38.127C86.3746 38.127 85.8436 38.0233 85.3611 37.8159C84.8787 37.6086 84.4619 37.3102 84.1106 36.9209C83.7594 36.5273 83.4865 36.0513 83.2918 35.4927C83.1014 34.9341 83.0062 34.3035 83.0062 33.6011V33.1631C83.0062 32.4564 83.1014 31.8258 83.2918 31.2715C83.4865 30.7129 83.7573 30.2368 84.1043 29.8433C84.4513 29.4497 84.866 29.1493 85.3484 28.9419C85.8309 28.7345 86.362 28.6309 86.9417 28.6309C87.5257 28.6309 88.0568 28.7345 88.535 28.9419C89.0174 29.1493 89.4342 29.4497 89.7855 29.8433C90.1367 30.2368 90.4075 30.7129 90.598 31.2715C90.7884 31.8258 90.8836 32.4564 90.8836 33.1631ZM88.9603 33.6011V33.1504C88.9603 32.6595 88.9137 32.2279 88.8206 31.8555C88.7317 31.4831 88.6006 31.1699 88.4271 30.916C88.2578 30.6621 88.0483 30.4717 87.7986 30.3447C87.549 30.2135 87.2633 30.1479 86.9417 30.1479C86.6201 30.1479 86.3344 30.2135 86.0848 30.3447C85.8351 30.4717 85.6256 30.6621 85.4564 30.916C85.2871 31.1699 85.158 31.4831 85.0691 31.8555C84.9803 32.2279 84.9358 32.6595 84.9358 33.1504V33.6011C84.9358 34.0877 84.9803 34.5194 85.0691 34.896C85.158 35.2684 85.2871 35.5837 85.4564 35.8418C85.6299 36.0957 85.8414 36.2882 86.0911 36.4194C86.345 36.5506 86.6328 36.6162 86.9544 36.6162C87.276 36.6162 87.5595 36.5506 87.805 36.4194C88.0547 36.2882 88.2641 36.0957 88.4334 35.8418C88.6069 35.5837 88.7381 35.2684 88.827 34.896C88.9158 34.5194 88.9603 34.0877 88.9603 33.6011ZM97.3646 28.7578H99.2625V34.8643C99.2625 35.5752 99.1102 36.174 98.8055 36.6606C98.505 37.1473 98.0882 37.5133 97.555 37.7588C97.026 38.0042 96.4166 38.127 95.7269 38.127C95.0371 38.127 94.4235 38.0042 93.886 37.7588C93.3528 37.5133 92.9339 37.1473 92.6292 36.6606C92.3287 36.174 92.1785 35.5752 92.1785 34.8643V28.7578H94.0828V34.8643C94.0828 35.279 94.1484 35.6175 94.2796 35.8799C94.4108 36.1423 94.5991 36.3348 94.8445 36.4575C95.0942 36.5802 95.3883 36.6416 95.7269 36.6416C96.0739 36.6416 96.368 36.5802 96.6092 36.4575C96.8546 36.3348 97.0408 36.1423 97.1678 35.8799C97.299 35.6175 97.3646 35.279 97.3646 34.8643V28.7578ZM102.855 28.7578V38H100.957V28.7578H102.855ZM110.841 36.5146V38H105.921V36.5146H110.841ZM106.543 28.7578V38H104.639V28.7578H106.543ZM110.2 32.522V33.9692H105.921V32.522H110.2ZM110.834 28.7578V30.2495H105.921V28.7578H110.834ZM106.981 28.2119L108.225 26.2568H110.212L108.467 28.2119H106.981ZM116.211 28.7578V38H114.313V28.7578H116.211ZM119.055 28.7578V30.2495H111.513V28.7578H119.055ZM125.243 28.7578H127.141V34.8643C127.141 35.5752 126.989 36.174 126.684 36.6606C126.384 37.1473 125.967 37.5133 125.434 37.7588C124.905 38.0042 124.296 38.127 123.606 38.127C122.916 38.127 122.302 38.0042 121.765 37.7588C121.232 37.5133 120.813 37.1473 120.508 36.6606C120.208 36.174 120.057 35.5752 120.057 34.8643V28.7578H121.962V34.8643C121.962 35.279 122.027 35.6175 122.159 35.8799C122.29 36.1423 122.478 36.3348 122.723 36.4575C122.973 36.5802 123.267 36.6416 123.606 36.6416C123.953 36.6416 124.247 36.5802 124.488 36.4575C124.734 36.3348 124.92 36.1423 125.047 35.8799C125.178 35.6175 125.243 35.279 125.243 34.8643V28.7578ZM131.547 38H129.534L129.547 36.5146H131.547C132.046 36.5146 132.467 36.4025 132.81 36.1782C133.153 35.9497 133.411 35.6175 133.584 35.1816C133.762 34.7458 133.851 34.2189 133.851 33.6011V33.1504C133.851 32.6764 133.8 32.2596 133.699 31.8999C133.601 31.5402 133.455 31.2376 133.261 30.9922C133.066 30.7467 132.827 30.5627 132.543 30.4399C132.26 30.313 131.934 30.2495 131.566 30.2495H129.496V28.7578H131.566C132.184 28.7578 132.749 28.8636 133.261 29.0752C133.777 29.2826 134.223 29.5809 134.6 29.9702C134.977 30.3595 135.266 30.825 135.47 31.3667C135.677 31.9041 135.781 32.5029 135.781 33.1631V33.6011C135.781 34.257 135.677 34.8558 135.47 35.3975C135.266 35.9391 134.977 36.4046 134.6 36.7939C134.228 37.179 133.781 37.4774 133.261 37.689C132.744 37.8963 132.173 38 131.547 38ZM130.614 28.7578V38H128.709V28.7578H130.614ZM143.366 36.5146V38H138.447V36.5146H143.366ZM139.069 28.7578V38H137.164V28.7578H139.069ZM142.725 32.522V33.9692H138.447V32.522H142.725ZM143.36 28.7578V30.2495H138.447V28.7578H143.36ZM144.703 28.4547H145.731L147.064 32.4194L148.393 28.4547H149.422L147.479 34H146.645L144.703 28.4547ZM144.109 28.4547H145.156L145.35 32.5642V34H144.109V28.4547ZM148.968 28.4547H150.02V34H148.774V32.5642L148.968 28.4547ZM152.931 34H151.712L151.72 33.0402H152.931C153.208 33.0402 153.441 32.9768 153.632 32.8498C153.822 32.7203 153.967 32.5299 154.066 32.2785C154.165 32.0246 154.215 31.7161 154.215 31.353V31.0979C154.215 30.8236 154.187 30.5824 154.131 30.3742C154.075 30.1635 153.992 29.987 153.883 29.8448C153.774 29.7026 153.638 29.596 153.476 29.5249C153.316 29.4538 153.132 29.4183 152.923 29.4183H151.689V28.4547H152.923C153.299 28.4547 153.642 28.5182 153.952 28.6451C154.264 28.7721 154.533 28.9536 154.759 29.1897C154.988 29.4259 155.164 29.7052 155.289 30.0276C155.413 30.3501 155.475 30.7094 155.475 31.1055V31.353C155.475 31.7466 155.413 32.1059 155.289 32.4309C155.164 32.7533 154.988 33.0326 154.759 33.2687C154.533 33.5023 154.265 33.6826 153.956 33.8096C153.646 33.9365 153.304 34 152.931 34ZM152.417 28.4547V34H151.175V28.4547H152.417Z" fill="#333333"/>
</svg>
