<svg width="189" height="25" viewBox="0 0 189 25" fill="none" xmlns="http://www.w3.org/2000/svg">
<path d="M11.0355 8.62891L13.5365 10.6094L12.3368 11.6504L9.87391 9.66992L11.0355 8.62891ZM13.6 5.16309V5.60107C13.6 6.30355 13.5048 6.93408 13.3143 7.49268C13.1281 8.05127 12.8594 8.52734 12.5082 8.9209C12.1569 9.31022 11.7422 9.60856 11.264 9.81592C10.7859 10.0233 10.2548 10.127 9.67078 10.127C9.09103 10.127 8.55994 10.0233 8.07752 9.81592C7.5951 9.60856 7.17827 9.31022 6.82703 8.9209C6.4758 8.52734 6.20285 8.05127 6.00819 7.49268C5.81776 6.93408 5.72254 6.30355 5.72254 5.60107V5.16309C5.72254 4.45638 5.81776 3.82585 6.00819 3.27148C6.20285 2.71289 6.47368 2.23682 6.82069 1.84326C7.16769 1.44971 7.58241 1.14925 8.06483 0.941895C8.54725 0.734538 9.07834 0.630859 9.65809 0.630859C10.2421 0.630859 10.7732 0.734538 11.2514 0.941895C11.7338 1.14925 12.1506 1.44971 12.5018 1.84326C12.8531 2.23682 13.1239 2.71289 13.3143 3.27148C13.5048 3.82585 13.6 4.45638 13.6 5.16309ZM11.6766 5.60107V5.15039C11.6766 4.65951 11.6301 4.22786 11.537 3.85547C11.4481 3.48307 11.3169 3.16992 11.1434 2.91602C10.9742 2.66211 10.7647 2.47168 10.515 2.34473C10.2653 2.21354 9.9797 2.14795 9.65809 2.14795C9.33647 2.14795 9.05083 2.21354 8.80116 2.34473C8.55148 2.47168 8.34201 2.66211 8.17274 2.91602C8.00347 3.16992 7.8744 3.48307 7.78553 3.85547C7.69666 4.22786 7.65223 4.65951 7.65223 5.15039V5.60107C7.65223 6.08773 7.69666 6.51937 7.78553 6.896C7.8744 7.26839 8.00347 7.58366 8.17274 7.8418C8.34624 8.0957 8.55783 8.28825 8.8075 8.41943C9.06141 8.55062 9.34917 8.61621 9.67078 8.61621C9.9924 8.61621 10.2759 8.55062 10.5214 8.41943C10.771 8.28825 10.9805 8.0957 11.1498 7.8418C11.3233 7.58366 11.4545 7.26839 11.5433 6.896C11.6322 6.51937 11.6766 6.08773 11.6766 5.60107ZM20.0809 0.757812H21.9789V6.86426C21.9789 7.5752 21.8265 8.17399 21.5219 8.66064C21.2214 9.1473 20.8046 9.51335 20.2714 9.75879C19.7424 10.0042 19.133 10.127 18.4432 10.127C17.7535 10.127 17.1399 10.0042 16.6024 9.75879C16.0692 9.51335 15.6503 9.1473 15.3456 8.66064C15.0451 8.17399 14.8949 7.5752 14.8949 6.86426V0.757812H16.7992V6.86426C16.7992 7.27897 16.8648 7.61751 16.996 7.87988C17.1272 8.14225 17.3155 8.3348 17.5609 8.45752C17.8106 8.58024 18.1047 8.6416 18.4432 8.6416C18.7903 8.6416 19.0844 8.58024 19.3256 8.45752C19.571 8.3348 19.7572 8.14225 19.8842 7.87988C20.0153 7.61751 20.0809 7.27897 20.0809 6.86426V0.757812ZM25.5717 0.757812V10H23.6737V0.757812H25.5717ZM33.557 8.51465V10H28.6376V8.51465H33.557ZM29.2597 0.757812V10H27.3554V0.757812H29.2597ZM32.9159 4.52197V5.96924H28.6376V4.52197H32.9159ZM33.5507 0.757812V2.24951H28.6376V0.757812H33.5507ZM38.9271 0.757812V10H37.0292V0.757812H38.9271ZM41.7709 0.757812V2.24951H34.2299V0.757812H41.7709ZM49.5404 8.51465V10H42.9896V8.51465H49.5404ZM49.4452 1.81787L43.8339 10H42.4945V8.9082L48.1503 0.757812H49.4452V1.81787ZM48.7914 0.757812V2.24951H42.5009V0.757812H48.7914ZM58.1796 5.16309V5.60107C58.1796 6.30355 58.0844 6.93408 57.8939 7.49268C57.7035 8.05127 57.4348 8.52734 57.0878 8.9209C56.7408 9.31022 56.3261 9.60856 55.8436 9.81592C55.3654 10.0233 54.8344 10.127 54.2504 10.127C53.6706 10.127 53.1395 10.0233 52.6571 9.81592C52.1789 9.60856 51.7642 9.31022 51.413 8.9209C51.0617 8.52734 50.7888 8.05127 50.5941 7.49268C50.4037 6.93408 50.3085 6.30355 50.3085 5.60107V5.16309C50.3085 4.45638 50.4037 3.82585 50.5941 3.27148C50.7846 2.71289 51.0533 2.23682 51.4003 1.84326C51.7515 1.44971 52.1662 1.14925 52.6444 0.941895C53.1268 0.734538 53.6579 0.630859 54.2377 0.630859C54.8217 0.630859 55.3528 0.734538 55.8309 0.941895C56.3134 1.14925 56.7281 1.44971 57.0751 1.84326C57.4263 2.23682 57.6972 2.71289 57.8876 3.27148C58.0822 3.82585 58.1796 4.45638 58.1796 5.16309ZM56.2562 5.60107V5.15039C56.2562 4.65951 56.2118 4.22786 56.1229 3.85547C56.0341 3.48307 55.9029 3.16992 55.7294 2.91602C55.5559 2.66211 55.3443 2.47168 55.0946 2.34473C54.8449 2.21354 54.5593 2.14795 54.2377 2.14795C53.9161 2.14795 53.6304 2.21354 53.3807 2.34473C53.1353 2.47168 52.9258 2.66211 52.7523 2.91602C52.5831 3.16992 52.454 3.48307 52.3651 3.85547C52.2763 4.22786 52.2318 4.65951 52.2318 5.15039V5.60107C52.2318 6.08773 52.2763 6.51937 52.3651 6.896C52.454 7.26839 52.5852 7.58366 52.7587 7.8418C52.9322 8.0957 53.1438 8.28825 53.3934 8.41943C53.6431 8.55062 53.9288 8.61621 54.2504 8.61621C54.572 8.61621 54.8576 8.55062 55.1073 8.41943C55.357 8.28825 55.5665 8.0957 55.7357 7.8418C55.905 7.58366 56.0341 7.26839 56.1229 6.896C56.2118 6.51937 56.2562 6.08773 56.2562 5.60107ZM67.0726 0.757812V10H65.1683L61.455 3.80469V10H59.5507V0.757812H61.455L65.1747 6.95947V0.757812H67.0726ZM74.931 8.51465V10H70.0116V8.51465H74.931ZM70.6337 0.757812V10H68.7294V0.757812H70.6337ZM74.2899 4.52197V5.96924H70.0116V4.52197H74.2899ZM74.9247 0.757812V2.24951H70.0116V0.757812H74.9247ZM78.3435 3.51299H77.5247L77.5171 3.00645H78.2026C78.322 3.00391 78.4324 2.98613 78.534 2.95312C78.6355 2.92012 78.7168 2.87061 78.7777 2.80459C78.8387 2.73857 78.8691 2.65732 78.8691 2.56084C78.8691 2.43643 78.8475 2.33867 78.8044 2.26758C78.7638 2.19395 78.6939 2.14189 78.5949 2.11143C78.4984 2.07842 78.3664 2.06191 78.1988 2.06191H77.6999V4.79648H77.1324V1.55918H78.1988C78.4502 1.55918 78.6685 1.59727 78.8539 1.67344C79.0392 1.74961 79.1814 1.8626 79.2805 2.0124C79.382 2.15967 79.4328 2.34248 79.4328 2.56084C79.4328 2.69795 79.4011 2.81855 79.3376 2.92266C79.2741 3.02676 79.1802 3.11689 79.0557 3.19307C78.9339 3.26924 78.7828 3.33145 78.6025 3.37969C78.5949 3.37969 78.586 3.38857 78.5759 3.40635C78.5682 3.42412 78.5606 3.43301 78.553 3.43301C78.5098 3.4584 78.4819 3.47744 78.4692 3.49014C78.4591 3.50029 78.4476 3.50664 78.4349 3.50918C78.4248 3.51172 78.3943 3.51299 78.3435 3.51299ZM78.3055 3.51299L78.3854 3.09023C78.7841 3.09023 79.0557 3.18037 79.2005 3.36064C79.3477 3.53838 79.4214 3.76436 79.4214 4.03857V4.25186C79.4214 4.3458 79.4252 4.43594 79.4328 4.52227C79.443 4.60605 79.4607 4.67715 79.4861 4.73555V4.79648H78.9034C78.878 4.73047 78.8628 4.63652 78.8577 4.51465C78.8552 4.39277 78.8539 4.30391 78.8539 4.24805V4.04238C78.8539 3.86211 78.812 3.72881 78.7282 3.64248C78.6444 3.55615 78.5035 3.51299 78.3055 3.51299ZM76.0089 3.22354C76.0089 3.55869 76.066 3.871 76.1803 4.16045C76.2971 4.4499 76.4583 4.70254 76.6639 4.91836C76.8696 5.13418 77.1083 5.30303 77.38 5.4249C77.6516 5.54424 77.9424 5.60391 78.2521 5.60391C78.5619 5.60391 78.8514 5.54424 79.1205 5.4249C79.3896 5.30303 79.627 5.13418 79.8327 4.91836C80.0409 4.70254 80.2021 4.4499 80.3164 4.16045C80.4332 3.871 80.4916 3.55869 80.4916 3.22354C80.4916 2.88838 80.4332 2.57734 80.3164 2.29043C80.2021 2.00098 80.0409 1.74834 79.8327 1.53252C79.627 1.3167 79.3896 1.14912 79.1205 1.02979C78.8514 0.910449 78.5619 0.850781 78.2521 0.850781C77.9424 0.850781 77.6516 0.910449 77.38 1.02979C77.1083 1.14912 76.8696 1.3167 76.6639 1.53252C76.4583 1.74834 76.2971 2.00098 76.1803 2.29043C76.066 2.57734 76.0089 2.88838 76.0089 3.22354ZM75.548 3.22354C75.548 2.81982 75.6179 2.44531 75.7575 2.1C75.8972 1.75469 76.0914 1.45381 76.3402 1.19736C76.589 0.938379 76.876 0.737793 77.201 0.595605C77.5285 0.450879 77.8789 0.378515 78.2521 0.378515C78.6254 0.378515 78.9745 0.450879 79.2995 0.595605C79.627 0.737793 79.9139 0.938379 80.1602 1.19736C80.4091 1.45381 80.6033 1.75469 80.743 2.1C80.8851 2.44531 80.9562 2.81982 80.9562 3.22354C80.9562 3.62725 80.8851 4.00176 80.743 4.34707C80.6033 4.69238 80.4091 4.99453 80.1602 5.25352C79.9139 5.5125 79.627 5.71436 79.2995 5.85908C78.9745 6.00381 78.6254 6.07617 78.2521 6.07617C77.8789 6.07617 77.5285 6.00381 77.201 5.85908C76.876 5.71436 76.589 5.5125 76.3402 5.25352C76.0914 4.99453 75.8972 4.69238 75.7575 4.34707C75.6179 4.00176 75.548 3.62725 75.548 3.22354ZM88.1832 6.70557H85.8282V5.22021H88.1832C88.5472 5.22021 88.8434 5.16097 89.0719 5.04248C89.3004 4.91976 89.4676 4.75049 89.5734 4.53467C89.6792 4.31885 89.732 4.07552 89.732 3.80469C89.732 3.52962 89.6792 3.2736 89.5734 3.03662C89.4676 2.79964 89.3004 2.60921 89.0719 2.46533C88.8434 2.32145 88.5472 2.24951 88.1832 2.24951H86.4884V10H84.5841V0.757812H88.1832C88.9069 0.757812 89.5268 0.888997 90.0431 1.15137C90.5636 1.40951 90.9614 1.76709 91.2364 2.22412C91.5115 2.68115 91.649 3.20378 91.649 3.79199C91.649 4.38867 91.5115 4.90495 91.2364 5.34082C90.9614 5.77669 90.5636 6.11312 90.0431 6.3501C89.5268 6.58708 88.9069 6.70557 88.1832 6.70557ZM94.9879 0.757812V10H93.09V0.757812H94.9879ZM104.294 0.757812V10H102.389L98.6759 3.80469V10H96.7716V0.757812H98.6759L102.396 6.95947V0.757812H104.294ZM107.855 0.757812V10H105.95V0.757812H107.855ZM113.39 0.757812L109.727 5.32178L107.613 7.59424L107.271 5.7915L108.699 3.83643L111.054 0.757812H113.39ZM111.225 10L108.502 5.72803L109.911 4.54736L113.479 10H111.225ZM124.974 0.757812V10H123.07L119.357 3.80469V10H117.452V0.757812H119.357L123.076 6.95947V0.757812H124.974ZM132.833 8.51465V10H127.913V8.51465H132.833ZM128.535 0.757812V10H126.631V0.757812H128.535ZM132.192 4.52197V5.96924H127.913V4.52197H132.192ZM132.826 0.757812V2.24951H127.913V0.757812H132.826ZM135.511 0.757812L137.251 3.98242L138.99 0.757812H141.167L138.482 5.34082L141.237 10H139.041L137.251 6.71191L135.461 10H133.252L136.013 5.34082L133.321 0.757812H135.511ZM146.328 0.757812V10H144.43V0.757812H146.328ZM149.172 0.757812V2.24951H141.63V0.757812H149.172ZM160.477 5.16943V8.83203C160.333 9.00553 160.111 9.19385 159.81 9.39697C159.51 9.59587 159.123 9.76725 158.649 9.91113C158.175 10.055 157.601 10.127 156.928 10.127C156.332 10.127 155.788 10.0296 155.297 9.83496C154.806 9.63607 154.383 9.34619 154.027 8.96533C153.676 8.58447 153.405 8.11898 153.215 7.56885C153.025 7.01449 152.929 6.38184 152.929 5.6709V5.09326C152.929 4.38232 153.02 3.74967 153.202 3.19531C153.388 2.64095 153.653 2.17334 153.996 1.79248C154.339 1.41162 154.747 1.12174 155.221 0.922852C155.695 0.723958 156.222 0.624512 156.801 0.624512C157.605 0.624512 158.266 0.755697 158.782 1.01807C159.298 1.2762 159.692 1.6359 159.963 2.09717C160.238 2.5542 160.407 3.07894 160.47 3.67139H158.623C158.577 3.35824 158.488 3.08529 158.357 2.85254C158.225 2.61979 158.037 2.43783 157.792 2.30664C157.55 2.17546 157.237 2.10986 156.852 2.10986C156.535 2.10986 156.251 2.17546 156.002 2.30664C155.756 2.43359 155.549 2.62191 155.38 2.87158C155.21 3.12126 155.081 3.43018 154.992 3.79834C154.903 4.1665 154.859 4.59391 154.859 5.08057V5.6709C154.859 6.15332 154.906 6.58073 154.999 6.95312C155.092 7.32129 155.229 7.63232 155.411 7.88623C155.597 8.1359 155.826 8.32422 156.097 8.45117C156.368 8.57812 156.683 8.6416 157.043 8.6416C157.343 8.6416 157.593 8.61621 157.792 8.56543C157.995 8.51465 158.158 8.45329 158.28 8.38135C158.407 8.30518 158.505 8.23324 158.572 8.16553V6.52783H156.833V5.16943H160.477ZM168.214 8.51465V10H163.295V8.51465H168.214ZM163.917 0.757812V10H162.013V0.757812H163.917ZM167.573 4.52197V5.96924H163.295V4.52197H167.573ZM168.208 0.757812V2.24951H163.295V0.757812H168.208ZM176.847 0.757812V10H174.943L171.23 3.80469V10H169.325V0.757812H171.23L174.949 6.95947V0.757812H176.847ZM180.806 3.51299H179.987L179.979 3.00645H180.665C180.784 3.00391 180.895 2.98613 180.996 2.95312C181.098 2.92012 181.179 2.87061 181.24 2.80459C181.301 2.73857 181.331 2.65732 181.331 2.56084C181.331 2.43643 181.31 2.33867 181.267 2.26758C181.226 2.19395 181.156 2.14189 181.057 2.11143C180.961 2.07842 180.829 2.06191 180.661 2.06191H180.162V4.79648H179.595V1.55918H180.661C180.912 1.55918 181.131 1.59727 181.316 1.67344C181.501 1.74961 181.644 1.8626 181.743 2.0124C181.844 2.15967 181.895 2.34248 181.895 2.56084C181.895 2.69795 181.863 2.81855 181.8 2.92266C181.736 3.02676 181.642 3.11689 181.518 3.19307C181.396 3.26924 181.245 3.33145 181.065 3.37969C181.057 3.37969 181.048 3.38857 181.038 3.40635C181.03 3.42412 181.023 3.43301 181.015 3.43301C180.972 3.4584 180.944 3.47744 180.931 3.49014C180.921 3.50029 180.91 3.50664 180.897 3.50918C180.887 3.51172 180.856 3.51299 180.806 3.51299ZM180.768 3.51299L180.848 3.09023C181.246 3.09023 181.518 3.18037 181.663 3.36064C181.81 3.53838 181.884 3.76436 181.884 4.03857V4.25186C181.884 4.3458 181.887 4.43594 181.895 4.52227C181.905 4.60605 181.923 4.67715 181.948 4.73555V4.79648H181.366C181.34 4.73047 181.325 4.63652 181.32 4.51465C181.317 4.39277 181.316 4.30391 181.316 4.24805V4.04238C181.316 3.86211 181.274 3.72881 181.19 3.64248C181.107 3.55615 180.966 3.51299 180.768 3.51299ZM178.471 3.22354C178.471 3.55869 178.528 3.871 178.642 4.16045C178.759 4.4499 178.92 4.70254 179.126 4.91836C179.332 5.13418 179.57 5.30303 179.842 5.4249C180.114 5.54424 180.405 5.60391 180.714 5.60391C181.024 5.60391 181.314 5.54424 181.583 5.4249C181.852 5.30303 182.089 5.13418 182.295 4.91836C182.503 4.70254 182.664 4.4499 182.779 4.16045C182.895 3.871 182.954 3.55869 182.954 3.22354C182.954 2.88838 182.895 2.57734 182.779 2.29043C182.664 2.00098 182.503 1.74834 182.295 1.53252C182.089 1.3167 181.852 1.14912 181.583 1.02979C181.314 0.910449 181.024 0.850781 180.714 0.850781C180.405 0.850781 180.114 0.910449 179.842 1.02979C179.57 1.14912 179.332 1.3167 179.126 1.53252C178.92 1.74834 178.759 2.00098 178.642 2.29043C178.528 2.57734 178.471 2.88838 178.471 3.22354ZM178.01 3.22354C178.01 2.81982 178.08 2.44531 178.22 2.1C178.359 1.75469 178.554 1.45381 178.802 1.19736C179.051 0.938379 179.338 0.737793 179.663 0.595605C179.991 0.450879 180.341 0.378515 180.714 0.378515C181.088 0.378515 181.437 0.450879 181.762 0.595605C182.089 0.737793 182.376 0.938379 182.622 1.19736C182.871 1.45381 183.065 1.75469 183.205 2.1C183.347 2.44531 183.418 2.81982 183.418 3.22354C183.418 3.62725 183.347 4.00176 183.205 4.34707C183.065 4.69238 182.871 4.99453 182.622 5.25352C182.376 5.5125 182.089 5.71436 181.762 5.85908C181.437 6.00381 181.088 6.07617 180.714 6.07617C180.341 6.07617 179.991 6.00381 179.663 5.85908C179.338 5.71436 179.051 5.5125 178.802 5.25352C178.554 4.99453 178.359 4.69238 178.22 4.34707C178.08 4.00176 178.01 3.62725 178.01 3.22354ZM2.82801 14.7578V24H0.923714V14.7578H2.82801ZM6.50965 18.7061V20.1914H2.3075V18.7061H6.50965ZM6.95399 14.7578V16.2495H2.3075V14.7578H6.95399ZM10.0834 14.7578V24H8.18543V14.7578H10.0834ZM15.4852 19.9438H13.1112L13.0985 18.6362H15.0917C15.4429 18.6362 15.7307 18.5918 15.955 18.5029C16.1792 18.4098 16.3464 18.2765 16.4564 18.103C16.5707 17.9253 16.6278 17.7095 16.6278 17.4556C16.6278 17.1678 16.5728 16.9351 16.4628 16.7573C16.357 16.5796 16.1898 16.4505 15.9613 16.3701C15.737 16.2897 15.4472 16.2495 15.0917 16.2495H13.7714V24H11.8671V14.7578H15.0917C15.6291 14.7578 16.1094 14.8086 16.5326 14.9102C16.96 15.0117 17.3218 15.1662 17.618 15.3735C17.9143 15.5809 18.1407 15.8433 18.2972 16.1606C18.4538 16.4738 18.5321 16.8462 18.5321 17.2778C18.5321 17.6587 18.4454 18.0099 18.2719 18.3315C18.1026 18.6532 17.8339 18.9155 17.4657 19.1187C17.1018 19.3218 16.6257 19.4339 16.0375 19.4551L15.4852 19.9438ZM15.4027 24H12.5907L13.3334 22.5146H15.4027C15.737 22.5146 16.01 22.4618 16.2216 22.356C16.4332 22.2459 16.5897 22.0978 16.6913 21.9116C16.7929 21.7254 16.8436 21.5117 16.8436 21.2705C16.8436 20.9997 16.7971 20.7648 16.704 20.5659C16.6151 20.367 16.4712 20.2147 16.2723 20.1089C16.0735 19.9989 15.8111 19.9438 15.4852 19.9438H13.6508L13.6635 18.6362H15.9486L16.3866 19.1504C16.9494 19.1419 17.4022 19.2414 17.745 19.4487C18.092 19.6519 18.3438 19.9163 18.5004 20.2422C18.6612 20.568 18.7416 20.9172 18.7416 21.2896C18.7416 21.882 18.6125 22.3813 18.3544 22.7876C18.0962 23.1896 17.7175 23.4922 17.2181 23.6953C16.723 23.8984 16.1179 24 15.4027 24ZM26.3715 22.5146V24H21.452V22.5146H26.3715ZM22.0741 14.7578V24H20.1698V14.7578H22.0741ZM25.7304 18.522V19.9692H21.452V18.522H25.7304ZM26.3651 14.7578V16.2495H21.452V14.7578H26.3651ZM27.4823 14.7578H30.9291C31.6358 14.7578 32.243 14.8636 32.7509 15.0752C33.2629 15.2868 33.6565 15.5999 33.9315 16.0146C34.2066 16.4294 34.3441 16.9393 34.3441 17.5444C34.3441 18.0396 34.2595 18.4648 34.0902 18.8203C33.9252 19.1715 33.6903 19.4657 33.3856 19.7026C33.0852 19.9354 32.7318 20.1216 32.3256 20.2612L31.7225 20.5786H28.7264L28.7138 19.0933H30.9418C31.2761 19.0933 31.5533 19.034 31.7733 18.9155C31.9934 18.797 32.1584 18.632 32.2684 18.4204C32.3827 18.2088 32.4398 17.9634 32.4398 17.6841C32.4398 17.3879 32.3848 17.1318 32.2748 16.916C32.1648 16.7002 31.9976 16.5352 31.7733 16.4209C31.549 16.3066 31.2676 16.2495 30.9291 16.2495H29.3866V24H27.4823V14.7578ZM32.6493 24L30.5419 19.8804L32.5541 19.8677L34.6869 23.9111V24H32.6493ZM43.1356 19.1694V22.832C42.9917 23.0055 42.7696 23.1938 42.4691 23.397C42.1687 23.5959 41.7815 23.7673 41.3075 23.9111C40.8335 24.055 40.2601 24.127 39.5873 24.127C38.9906 24.127 38.4468 24.0296 37.9559 23.835C37.4651 23.6361 37.0419 23.3462 36.6864 22.9653C36.3352 22.5845 36.0643 22.119 35.8739 21.5688C35.6835 21.0145 35.5883 20.3818 35.5883 19.6709V19.0933C35.5883 18.3823 35.6792 17.7497 35.8612 17.1953C36.0474 16.641 36.3119 16.1733 36.6547 15.7925C36.9974 15.4116 37.4058 15.1217 37.8798 14.9229C38.3537 14.724 38.8806 14.6245 39.4603 14.6245C40.2644 14.6245 40.9245 14.7557 41.4408 15.0181C41.9571 15.2762 42.3506 15.6359 42.6215 16.0972C42.8965 16.5542 43.0658 17.0789 43.1293 17.6714H41.2821C41.2356 17.3582 41.1467 17.0853 41.0155 16.8525C40.8843 16.6198 40.696 16.4378 40.4506 16.3066C40.2094 16.1755 39.8962 16.1099 39.5111 16.1099C39.1937 16.1099 38.9102 16.1755 38.6605 16.3066C38.4151 16.4336 38.2077 16.6219 38.0385 16.8716C37.8692 17.1213 37.7401 17.4302 37.6513 17.7983C37.5624 18.1665 37.518 18.5939 37.518 19.0806V19.6709C37.518 20.1533 37.5645 20.5807 37.6576 20.9531C37.7507 21.3213 37.8882 21.6323 38.0702 21.8862C38.2564 22.1359 38.4849 22.3242 38.7557 22.4512C39.0266 22.5781 39.3418 22.6416 39.7015 22.6416C40.002 22.6416 40.2517 22.6162 40.4506 22.5654C40.6537 22.5146 40.8166 22.4533 40.9393 22.3813C41.0663 22.3052 41.1636 22.2332 41.2313 22.1655V20.5278H39.4921V19.1694H43.1356ZM50.6132 22.5146V24H45.9603V22.5146H50.6132ZM46.5761 14.7578V24H44.6718V14.7578H46.5761ZM55.5897 16.3384L53.0761 24H51.0512L54.4852 14.7578H55.7738L55.5897 16.3384ZM57.6781 24L55.1581 16.3384L54.955 14.7578H56.2562L59.7094 24H57.6781ZM57.5639 20.5596V22.0513H52.6825V20.5596H57.5639ZM65.3778 21.5815C65.3778 21.4165 65.3524 21.2684 65.3016 21.1372C65.2551 21.0018 65.1662 20.8791 65.035 20.769C64.9039 20.6548 64.7198 20.5426 64.4828 20.4326C64.2458 20.3226 63.939 20.2083 63.5624 20.0898C63.1434 19.9544 62.7457 19.8021 62.369 19.6328C61.9966 19.4635 61.6666 19.2668 61.3788 19.0425C61.0953 18.814 60.871 18.5495 60.7059 18.249C60.5451 17.9486 60.4647 17.5994 60.4647 17.2017C60.4647 16.8166 60.5494 16.4674 60.7186 16.1543C60.8879 15.8369 61.1249 15.5661 61.4296 15.3418C61.7343 15.1133 62.094 14.9377 62.5087 14.8149C62.9276 14.6922 63.3868 14.6309 63.8861 14.6309C64.5674 14.6309 65.162 14.7536 65.6698 14.999C66.1776 15.2445 66.5712 15.5809 66.8505 16.0083C67.134 16.4357 67.2758 16.9245 67.2758 17.4746H65.3842C65.3842 17.2038 65.327 16.9668 65.2128 16.7637C65.1028 16.5563 64.9335 16.3934 64.705 16.2749C64.4807 16.1564 64.1972 16.0972 63.8544 16.0972C63.5243 16.0972 63.2492 16.1479 63.0292 16.2495C62.8091 16.3468 62.6441 16.4801 62.5341 16.6494C62.424 16.8145 62.369 17.0007 62.369 17.208C62.369 17.3646 62.4071 17.5063 62.4833 17.6333C62.5637 17.7603 62.6822 17.8787 62.8388 17.9888C62.9953 18.0988 63.1879 18.2025 63.4164 18.2998C63.6449 18.3971 63.9094 18.4924 64.2098 18.5854C64.7134 18.7378 65.1556 18.9092 65.5365 19.0996C65.9216 19.29 66.2432 19.5037 66.5014 19.7407C66.7595 19.9777 66.9541 20.2464 67.0853 20.5469C67.2165 20.8473 67.2821 21.188 67.2821 21.5688C67.2821 21.9709 67.2038 22.3306 67.0472 22.6479C66.8907 22.9653 66.6643 23.234 66.368 23.4541C66.0718 23.6742 65.7185 23.8413 65.308 23.9556C64.8975 24.0698 64.4384 24.127 63.9305 24.127C63.4735 24.127 63.0228 24.0677 62.5785 23.9492C62.1342 23.8265 61.73 23.6424 61.3661 23.397C61.0064 23.1515 60.7186 22.8384 60.5028 22.4575C60.287 22.0767 60.1791 21.626 60.1791 21.1055H62.0897C62.0897 21.3932 62.1342 21.6366 62.223 21.8354C62.3119 22.0343 62.4367 22.1951 62.5975 22.3179C62.7626 22.4406 62.9572 22.5295 63.1815 22.5845C63.41 22.6395 63.6597 22.667 63.9305 22.667C64.2606 22.667 64.5315 22.6204 64.743 22.5273C64.9589 22.4342 65.1176 22.3052 65.2191 22.1401C65.3249 21.9751 65.3778 21.7889 65.3778 21.5815ZM70.8787 17.513H70.0598L70.0522 17.0064H70.7378C70.8571 17.0039 70.9676 16.9861 71.0691 16.9531C71.1707 16.9201 71.2519 16.8706 71.3129 16.8046C71.3738 16.7386 71.4043 16.6573 71.4043 16.5608C71.4043 16.4364 71.3827 16.3387 71.3395 16.2676C71.2989 16.1939 71.2291 16.1419 71.1301 16.1114C71.0336 16.0784 70.9015 16.0619 70.734 16.0619H70.235V18.7965H69.6676V15.5592H70.734C70.9853 15.5592 71.2037 15.5973 71.389 15.6734C71.5744 15.7496 71.7166 15.8626 71.8156 16.0124C71.9172 16.1597 71.968 16.3425 71.968 16.5608C71.968 16.6979 71.9362 16.8186 71.8727 16.9227C71.8093 17.0268 71.7153 17.1169 71.5909 17.1931C71.469 17.2692 71.318 17.3314 71.1377 17.3797C71.1301 17.3797 71.1212 17.3886 71.111 17.4063C71.1034 17.4241 71.0958 17.433 71.0882 17.433C71.045 17.4584 71.0171 17.4774 71.0044 17.4901C70.9942 17.5003 70.9828 17.5066 70.9701 17.5092C70.9599 17.5117 70.9295 17.513 70.8787 17.513ZM70.8406 17.513L70.9206 17.0902C71.3192 17.0902 71.5909 17.1804 71.7356 17.3606C71.8829 17.5384 71.9565 17.7644 71.9565 18.0386V18.2519C71.9565 18.3458 71.9603 18.4359 71.968 18.5223C71.9781 18.6061 71.9959 18.6771 72.0213 18.7355V18.7965H71.4386C71.4132 18.7305 71.3979 18.6365 71.3929 18.5146C71.3903 18.3928 71.389 18.3039 71.389 18.248V18.0424C71.389 17.8621 71.3472 17.7288 71.2634 17.6425C71.1796 17.5562 71.0387 17.513 70.8406 17.513ZM68.544 17.2235C68.544 17.5587 68.6012 17.871 68.7154 18.1604C68.8322 18.4499 68.9934 18.7025 69.1991 18.9184C69.4048 19.1342 69.6434 19.303 69.9151 19.4249C70.1868 19.5442 70.4775 19.6039 70.7873 19.6039C71.0971 19.6039 71.3865 19.5442 71.6556 19.4249C71.9248 19.303 72.1622 19.1342 72.3679 18.9184C72.5761 18.7025 72.7373 18.4499 72.8515 18.1604C72.9683 17.871 73.0267 17.5587 73.0267 17.2235C73.0267 16.8884 72.9683 16.5773 72.8515 16.2904C72.7373 16.001 72.5761 15.7483 72.3679 15.5325C72.1622 15.3167 71.9248 15.1491 71.6556 15.0298C71.3865 14.9104 71.0971 14.8508 70.7873 14.8508C70.4775 14.8508 70.1868 14.9104 69.9151 15.0298C69.6434 15.1491 69.4048 15.3167 69.1991 15.5325C68.9934 15.7483 68.8322 16.001 68.7154 16.2904C68.6012 16.5773 68.544 16.8884 68.544 17.2235ZM68.0832 17.2235C68.0832 16.8198 68.153 16.4453 68.2927 16.1C68.4323 15.7547 68.6265 15.4538 68.8754 15.1974C69.1242 14.9384 69.4111 14.7378 69.7361 14.5956C70.0637 14.4509 70.414 14.3785 70.7873 14.3785C71.1605 14.3785 71.5097 14.4509 71.8347 14.5956C72.1622 14.7378 72.4491 14.9384 72.6954 15.1974C72.9442 15.4538 73.1385 15.7547 73.2781 16.1C73.4203 16.4453 73.4914 16.8198 73.4914 17.2235C73.4914 17.6272 73.4203 18.0018 73.2781 18.3471C73.1385 18.6924 72.9442 18.9945 72.6954 19.2535C72.4491 19.5125 72.1622 19.7144 71.8347 19.8591C71.5097 20.0038 71.1605 20.0762 70.7873 20.0762C70.414 20.0762 70.0637 20.0038 69.7361 19.8591C69.4111 19.7144 69.1242 19.5125 68.8754 19.2535C68.6265 18.9945 68.4323 18.6924 68.2927 18.3471C68.153 18.0018 68.0832 17.6272 68.0832 17.2235ZM80.8771 16.3384L78.3634 24H76.3385L79.7726 14.7578H81.0611L80.8771 16.3384ZM82.9654 24L80.4454 16.3384L80.2423 14.7578H81.5436L84.9967 24H82.9654ZM82.8512 20.5596V22.0513H77.9698V20.5596H82.8512ZM88.5768 22.6987C88.8011 22.6987 89 22.6564 89.1735 22.5718C89.347 22.4829 89.4824 22.3602 89.5797 22.2036C89.6813 22.0428 89.7342 21.8545 89.7384 21.6387H91.4586C91.4544 22.1211 91.3253 22.5506 91.0714 22.9272C90.8175 23.2996 90.4768 23.5938 90.0494 23.8096C89.622 24.0212 89.1438 24.127 88.6149 24.127C88.0817 24.127 87.6162 24.0381 87.2184 23.8604C86.8248 23.6826 86.4969 23.4372 86.2345 23.124C85.9721 22.8066 85.7753 22.4385 85.6442 22.0195C85.513 21.5964 85.4474 21.1436 85.4474 20.6611V20.4771C85.4474 19.9904 85.513 19.5376 85.6442 19.1187C85.7753 18.6955 85.9721 18.3273 86.2345 18.0142C86.4969 17.6968 86.8248 17.4492 87.2184 17.2715C87.6119 17.0938 88.0732 17.0049 88.6022 17.0049C89.165 17.0049 89.658 17.1128 90.0812 17.3286C90.5086 17.5444 90.8429 17.8534 91.0841 18.2554C91.3295 18.6532 91.4544 19.125 91.4586 19.6709H89.7384C89.7342 19.4424 89.6855 19.235 89.5924 19.0488C89.5035 18.8626 89.3723 18.7145 89.1988 18.6045C89.0296 18.4902 88.8201 18.4331 88.5704 18.4331C88.3038 18.4331 88.0859 18.4902 87.9166 18.6045C87.7473 18.7145 87.6162 18.8669 87.5231 19.0615C87.43 19.252 87.3644 19.4699 87.3263 19.7153C87.2924 19.9565 87.2755 20.2104 87.2755 20.4771V20.6611C87.2755 20.9277 87.2924 21.1838 87.3263 21.4292C87.3601 21.6746 87.4236 21.8926 87.5167 22.083C87.614 22.2734 87.7473 22.4237 87.9166 22.5337C88.0859 22.6437 88.3059 22.6987 88.5768 22.6987ZM92.2267 20.6357V20.5024C92.2267 19.9989 92.2986 19.5355 92.4425 19.1123C92.5864 18.6849 92.7959 18.3146 93.0709 18.0015C93.346 17.6883 93.6845 17.445 94.0865 17.2715C94.4886 17.0938 94.9498 17.0049 95.4703 17.0049C95.9908 17.0049 96.4542 17.0938 96.8605 17.2715C97.2667 17.445 97.6074 17.6883 97.8824 18.0015C98.1617 18.3146 98.3733 18.6849 98.5172 19.1123C98.6611 19.5355 98.733 19.9989 98.733 20.5024V20.6357C98.733 21.1351 98.6611 21.5985 98.5172 22.0259C98.3733 22.4491 98.1617 22.8193 97.8824 23.1367C97.6074 23.4499 97.2688 23.6932 96.8668 23.8667C96.4648 24.0402 96.0035 24.127 95.483 24.127C94.9625 24.127 94.4991 24.0402 94.0929 23.8667C93.6909 23.6932 93.3502 23.4499 93.0709 23.1367C92.7959 22.8193 92.5864 22.4491 92.4425 22.0259C92.2986 21.5985 92.2267 21.1351 92.2267 20.6357ZM94.0548 20.5024V20.6357C94.0548 20.9235 94.0802 21.1922 94.131 21.4419C94.1818 21.6916 94.2622 21.9116 94.3722 22.1021C94.4864 22.2882 94.6346 22.4342 94.8165 22.54C94.9985 22.6458 95.2207 22.6987 95.483 22.6987C95.7369 22.6987 95.9549 22.6458 96.1368 22.54C96.3188 22.4342 96.4648 22.2882 96.5748 22.1021C96.6848 21.9116 96.7653 21.6916 96.816 21.4419C96.871 21.1922 96.8986 20.9235 96.8986 20.6357V20.5024C96.8986 20.2231 96.871 19.9608 96.816 19.7153C96.7653 19.4657 96.6827 19.2456 96.5685 19.0552C96.4584 18.8605 96.3125 18.7082 96.1305 18.5981C95.9485 18.4881 95.7285 18.4331 95.4703 18.4331C95.2122 18.4331 94.9921 18.4881 94.8102 18.5981C94.6324 18.7082 94.4864 18.8605 94.3722 19.0552C94.2622 19.2456 94.1818 19.4657 94.131 19.7153C94.0802 19.9608 94.0548 20.2231 94.0548 20.5024ZM103.919 22.356V17.1318H105.747V24H104.027L103.919 22.356ZM104.122 20.9468L104.662 20.9341C104.662 21.3911 104.609 21.8164 104.503 22.21C104.397 22.5993 104.239 22.9378 104.027 23.2256C103.815 23.5091 103.549 23.7313 103.227 23.8921C102.906 24.0487 102.527 24.127 102.091 24.127C101.757 24.127 101.448 24.0804 101.164 23.9873C100.885 23.89 100.644 23.7397 100.441 23.5366C100.242 23.3293 100.085 23.0648 99.9708 22.7432C99.8608 22.4173 99.8058 22.0259 99.8058 21.5688V17.1318H101.634V21.5815C101.634 21.7847 101.657 21.9561 101.704 22.0957C101.755 22.2354 101.824 22.3496 101.913 22.4385C102.002 22.5273 102.106 22.5908 102.224 22.6289C102.347 22.667 102.482 22.686 102.63 22.686C103.007 22.686 103.303 22.6099 103.519 22.4575C103.739 22.3052 103.894 22.0978 103.983 21.8354C104.076 21.5688 104.122 21.2726 104.122 20.9468ZM110.857 22.1021C110.857 21.9709 110.819 21.8524 110.743 21.7466C110.667 21.6408 110.525 21.5435 110.317 21.4546C110.114 21.3615 109.82 21.2769 109.435 21.2007C109.088 21.1245 108.764 21.0293 108.464 20.915C108.168 20.7965 107.91 20.6548 107.69 20.4897C107.474 20.3247 107.304 20.13 107.182 19.9058C107.059 19.6772 106.998 19.417 106.998 19.125C106.998 18.8372 107.059 18.5664 107.182 18.3125C107.309 18.0586 107.489 17.8343 107.721 17.6396C107.958 17.4408 108.246 17.2863 108.585 17.1763C108.927 17.062 109.312 17.0049 109.74 17.0049C110.337 17.0049 110.849 17.1001 111.276 17.2905C111.708 17.481 112.038 17.7433 112.266 18.0776C112.499 18.4077 112.615 18.7843 112.615 19.2075H110.787C110.787 19.0298 110.749 18.8711 110.673 18.7314C110.601 18.5876 110.487 18.4754 110.33 18.395C110.178 18.3104 109.979 18.2681 109.734 18.2681C109.53 18.2681 109.355 18.304 109.207 18.376C109.059 18.4437 108.944 18.5368 108.864 18.6553C108.788 18.7695 108.75 18.8965 108.75 19.0361C108.75 19.1419 108.771 19.2371 108.813 19.3218C108.86 19.4022 108.934 19.4762 109.035 19.5439C109.137 19.6117 109.268 19.6751 109.429 19.7344C109.594 19.7894 109.797 19.8402 110.038 19.8867C110.533 19.9883 110.976 20.1216 111.365 20.2866C111.754 20.4474 112.063 20.6675 112.292 20.9468C112.52 21.2218 112.634 21.5837 112.634 22.0322C112.634 22.3369 112.567 22.6162 112.431 22.8701C112.296 23.124 112.101 23.3462 111.847 23.5366C111.593 23.7228 111.289 23.8688 110.933 23.9746C110.582 24.0762 110.186 24.127 109.746 24.127C109.107 24.127 108.566 24.0127 108.121 23.7842C107.681 23.5557 107.347 23.2658 107.118 22.9146C106.894 22.5591 106.782 22.1951 106.782 21.8228H108.515C108.523 22.0724 108.587 22.2734 108.705 22.4258C108.828 22.5781 108.982 22.6882 109.169 22.7559C109.359 22.8236 109.564 22.8574 109.784 22.8574C110.021 22.8574 110.218 22.8257 110.375 22.7622C110.531 22.6945 110.65 22.6056 110.73 22.4956C110.815 22.3813 110.857 22.2502 110.857 22.1021ZM117.186 17.1318V18.4268H113.187V17.1318H117.186ZM114.177 15.437H116.005V21.9307C116.005 22.1296 116.03 22.2819 116.081 22.3877C116.136 22.4935 116.217 22.5675 116.322 22.6099C116.428 22.6479 116.561 22.667 116.722 22.667C116.837 22.667 116.938 22.6628 117.027 22.6543C117.12 22.6416 117.198 22.6289 117.262 22.6162L117.268 23.9619C117.112 24.0127 116.942 24.0529 116.76 24.0825C116.578 24.1121 116.377 24.127 116.157 24.127C115.755 24.127 115.404 24.0614 115.104 23.9302C114.807 23.7948 114.579 23.5789 114.418 23.2827C114.257 22.9865 114.177 22.5972 114.177 22.1147V15.437ZM120.156 17.1318V24H118.322V17.1318H120.156ZM118.208 15.3418C118.208 15.0752 118.301 14.8551 118.487 14.6816C118.673 14.5081 118.923 14.4214 119.236 14.4214C119.545 14.4214 119.792 14.5081 119.979 14.6816C120.169 14.8551 120.264 15.0752 120.264 15.3418C120.264 15.6084 120.169 15.8285 119.979 16.002C119.792 16.1755 119.545 16.2622 119.236 16.2622C118.923 16.2622 118.673 16.1755 118.487 16.002C118.301 15.8285 118.208 15.6084 118.208 15.3418ZM124.505 22.6987C124.729 22.6987 124.928 22.6564 125.101 22.5718C125.275 22.4829 125.41 22.3602 125.507 22.2036C125.609 22.0428 125.662 21.8545 125.666 21.6387H127.386C127.382 22.1211 127.253 22.5506 126.999 22.9272C126.745 23.2996 126.405 23.5938 125.977 23.8096C125.55 24.0212 125.072 24.127 124.543 24.127C124.009 24.127 123.544 24.0381 123.146 23.8604C122.753 23.6826 122.425 23.4372 122.162 23.124C121.9 22.8066 121.703 22.4385 121.572 22.0195C121.441 21.5964 121.375 21.1436 121.375 20.6611V20.4771C121.375 19.9904 121.441 19.5376 121.572 19.1187C121.703 18.6955 121.9 18.3273 122.162 18.0142C122.425 17.6968 122.753 17.4492 123.146 17.2715C123.54 17.0938 124.001 17.0049 124.53 17.0049C125.093 17.0049 125.586 17.1128 126.009 17.3286C126.436 17.5444 126.771 17.8534 127.012 18.2554C127.257 18.6532 127.382 19.125 127.386 19.6709H125.666C125.662 19.4424 125.613 19.235 125.52 19.0488C125.431 18.8626 125.3 18.7145 125.127 18.6045C124.957 18.4902 124.748 18.4331 124.498 18.4331C124.232 18.4331 124.014 18.4902 123.844 18.6045C123.675 18.7145 123.544 18.8669 123.451 19.0615C123.358 19.252 123.292 19.4699 123.254 19.7153C123.22 19.9565 123.203 20.2104 123.203 20.4771V20.6611C123.203 20.9277 123.22 21.1838 123.254 21.4292C123.288 21.6746 123.351 21.8926 123.444 22.083C123.542 22.2734 123.675 22.4237 123.844 22.5337C124.014 22.6437 124.234 22.6987 124.505 22.6987ZM133.823 14.7578V24H131.925V14.7578H133.823ZM137.282 18.5981V24H135.454V17.1318H137.168L137.282 18.5981ZM137.016 20.3247H136.521C136.521 19.8169 136.586 19.3599 136.717 18.9536C136.849 18.5431 137.033 18.194 137.27 17.9062C137.507 17.6143 137.788 17.3921 138.114 17.2397C138.444 17.0832 138.812 17.0049 139.218 17.0049C139.54 17.0049 139.834 17.0514 140.101 17.1445C140.367 17.2376 140.596 17.3857 140.786 17.5889C140.981 17.792 141.129 18.0607 141.231 18.395C141.336 18.7293 141.389 19.1377 141.389 19.6201V24H139.548V19.6138C139.548 19.3091 139.506 19.0721 139.422 18.9028C139.337 18.7336 139.212 18.6151 139.047 18.5474C138.886 18.4754 138.687 18.4395 138.45 18.4395C138.205 18.4395 137.991 18.4881 137.809 18.5854C137.631 18.6828 137.483 18.8182 137.365 18.9917C137.251 19.161 137.164 19.3599 137.105 19.5884C137.045 19.8169 137.016 20.0623 137.016 20.3247ZM146.493 22.1021C146.493 21.9709 146.455 21.8524 146.379 21.7466C146.302 21.6408 146.161 21.5435 145.953 21.4546C145.75 21.3615 145.456 21.2769 145.071 21.2007C144.724 21.1245 144.4 21.0293 144.1 20.915C143.804 20.7965 143.545 20.6548 143.325 20.4897C143.109 20.3247 142.94 20.13 142.818 19.9058C142.695 19.6772 142.633 19.417 142.633 19.125C142.633 18.8372 142.695 18.5664 142.818 18.3125C142.944 18.0586 143.124 17.8343 143.357 17.6396C143.594 17.4408 143.882 17.2863 144.22 17.1763C144.563 17.062 144.948 17.0049 145.376 17.0049C145.972 17.0049 146.484 17.1001 146.912 17.2905C147.343 17.481 147.673 17.7433 147.902 18.0776C148.135 18.4077 148.251 18.7843 148.251 19.2075H146.423C146.423 19.0298 146.385 18.8711 146.309 18.7314C146.237 18.5876 146.123 18.4754 145.966 18.395C145.814 18.3104 145.615 18.2681 145.369 18.2681C145.166 18.2681 144.991 18.304 144.842 18.376C144.694 18.4437 144.58 18.5368 144.5 18.6553C144.423 18.7695 144.385 18.8965 144.385 19.0361C144.385 19.1419 144.407 19.2371 144.449 19.3218C144.495 19.4022 144.569 19.4762 144.671 19.5439C144.773 19.6117 144.904 19.6751 145.065 19.7344C145.23 19.7894 145.433 19.8402 145.674 19.8867C146.169 19.9883 146.611 20.1216 147.001 20.2866C147.39 20.4474 147.699 20.6675 147.927 20.9468C148.156 21.2218 148.27 21.5837 148.27 22.0322C148.27 22.3369 148.202 22.6162 148.067 22.8701C147.932 23.124 147.737 23.3462 147.483 23.5366C147.229 23.7228 146.924 23.8688 146.569 23.9746C146.218 24.0762 145.822 24.127 145.382 24.127C144.743 24.127 144.201 24.0127 143.757 23.7842C143.317 23.5557 142.983 23.2658 142.754 22.9146C142.53 22.5591 142.418 22.1951 142.418 21.8228H144.151C144.159 22.0724 144.222 22.2734 144.341 22.4258C144.464 22.5781 144.618 22.6882 144.804 22.7559C144.995 22.8236 145.2 22.8574 145.42 22.8574C145.657 22.8574 145.854 22.8257 146.01 22.7622C146.167 22.6945 146.285 22.6056 146.366 22.4956C146.45 22.3813 146.493 22.2502 146.493 22.1021ZM153.52 22.356V17.1318H155.348V24H153.628L153.52 22.356ZM153.723 20.9468L154.262 20.9341C154.262 21.3911 154.209 21.8164 154.104 22.21C153.998 22.5993 153.839 22.9378 153.628 23.2256C153.416 23.5091 153.149 23.7313 152.828 23.8921C152.506 24.0487 152.127 24.127 151.692 24.127C151.357 24.127 151.048 24.0804 150.765 23.9873C150.485 23.89 150.244 23.7397 150.041 23.5366C149.842 23.3293 149.686 23.0648 149.571 22.7432C149.461 22.4173 149.406 22.0259 149.406 21.5688V17.1318H151.234V21.5815C151.234 21.7847 151.258 21.9561 151.304 22.0957C151.355 22.2354 151.425 22.3496 151.514 22.4385C151.603 22.5273 151.706 22.5908 151.825 22.6289C151.948 22.667 152.083 22.686 152.231 22.686C152.608 22.686 152.904 22.6099 153.12 22.4575C153.34 22.3052 153.494 22.0978 153.583 21.8354C153.676 21.5688 153.723 21.2726 153.723 20.9468ZM158.674 14.25V24H156.839V14.25H158.674ZM163.892 22.4512V19.3916C163.892 19.1715 163.856 18.9832 163.784 18.8267C163.712 18.6659 163.6 18.541 163.447 18.4521C163.299 18.3633 163.107 18.3188 162.87 18.3188C162.667 18.3188 162.491 18.3548 162.343 18.4268C162.195 18.4945 162.081 18.5939 162 18.7251C161.92 18.8521 161.88 19.0023 161.88 19.1758H160.051C160.051 18.8838 160.119 18.6066 160.255 18.3442C160.39 18.0819 160.587 17.8512 160.845 17.6523C161.103 17.4492 161.41 17.2905 161.765 17.1763C162.125 17.062 162.527 17.0049 162.971 17.0049C163.505 17.0049 163.978 17.0938 164.393 17.2715C164.808 17.4492 165.134 17.7158 165.371 18.0713C165.612 18.4268 165.733 18.8711 165.733 19.4043V22.3433C165.733 22.7199 165.756 23.0288 165.802 23.27C165.849 23.507 165.917 23.7144 166.005 23.8921V24H164.158C164.069 23.8138 164.002 23.5811 163.955 23.3018C163.913 23.0182 163.892 22.7347 163.892 22.4512ZM164.133 19.8169L164.146 20.8516H163.124C162.882 20.8516 162.673 20.8791 162.495 20.9341C162.318 20.9891 162.172 21.0674 162.057 21.1689C161.943 21.2663 161.858 21.3805 161.803 21.5117C161.753 21.6429 161.727 21.7868 161.727 21.9434C161.727 22.0999 161.763 22.2417 161.835 22.3687C161.907 22.4914 162.011 22.5887 162.146 22.6606C162.282 22.7284 162.44 22.7622 162.622 22.7622C162.897 22.7622 163.136 22.7072 163.339 22.5972C163.543 22.4871 163.699 22.3517 163.809 22.1909C163.923 22.0301 163.983 21.8778 163.987 21.7339L164.469 22.5083C164.402 22.6818 164.309 22.8617 164.19 23.0479C164.076 23.234 163.93 23.4097 163.752 23.5747C163.574 23.7355 163.361 23.8688 163.111 23.9746C162.861 24.0762 162.565 24.127 162.222 24.127C161.786 24.127 161.391 24.0402 161.035 23.8667C160.684 23.689 160.405 23.4456 160.197 23.1367C159.994 22.8236 159.893 22.4681 159.893 22.0703C159.893 21.7106 159.96 21.3911 160.096 21.1118C160.231 20.8325 160.43 20.5977 160.693 20.4072C160.959 20.2126 161.291 20.0666 161.689 19.9692C162.087 19.8677 162.548 19.8169 163.073 19.8169H164.133ZM170.506 17.1318V18.4268H166.507V17.1318H170.506ZM167.497 15.437H169.325V21.9307C169.325 22.1296 169.351 22.2819 169.401 22.3877C169.457 22.4935 169.537 22.5675 169.643 22.6099C169.748 22.6479 169.882 22.667 170.043 22.667C170.157 22.667 170.258 22.6628 170.347 22.6543C170.44 22.6416 170.519 22.6289 170.582 22.6162L170.589 23.9619C170.432 24.0127 170.263 24.0529 170.081 24.0825C169.899 24.1121 169.698 24.127 169.478 24.127C169.076 24.127 168.724 24.0614 168.424 23.9302C168.128 23.7948 167.899 23.5789 167.738 23.2827C167.578 22.9865 167.497 22.5972 167.497 22.1147V15.437ZM173.477 17.1318V24H171.642V17.1318H173.477ZM171.528 15.3418C171.528 15.0752 171.621 14.8551 171.807 14.6816C171.993 14.5081 172.243 14.4214 172.556 14.4214C172.865 14.4214 173.113 14.5081 173.299 14.6816C173.489 14.8551 173.585 15.0752 173.585 15.3418C173.585 15.6084 173.489 15.8285 173.299 16.002C173.113 16.1755 172.865 16.2622 172.556 16.2622C172.243 16.2622 171.993 16.1755 171.807 16.002C171.621 15.8285 171.528 15.6084 171.528 15.3418ZM174.695 20.6357V20.5024C174.695 19.9989 174.767 19.5355 174.911 19.1123C175.055 18.6849 175.265 18.3146 175.54 18.0015C175.815 17.6883 176.153 17.445 176.555 17.2715C176.957 17.0938 177.419 17.0049 177.939 17.0049C178.46 17.0049 178.923 17.0938 179.329 17.2715C179.735 17.445 180.076 17.6883 180.351 18.0015C180.63 18.3146 180.842 18.6849 180.986 19.1123C181.13 19.5355 181.202 19.9989 181.202 20.5024V20.6357C181.202 21.1351 181.13 21.5985 180.986 22.0259C180.842 22.4491 180.63 22.8193 180.351 23.1367C180.076 23.4499 179.738 23.6932 179.336 23.8667C178.934 24.0402 178.472 24.127 177.952 24.127C177.431 24.127 176.968 24.0402 176.562 23.8667C176.16 23.6932 175.819 23.4499 175.54 23.1367C175.265 22.8193 175.055 22.4491 174.911 22.0259C174.767 21.5985 174.695 21.1351 174.695 20.6357ZM176.524 20.5024V20.6357C176.524 20.9235 176.549 21.1922 176.6 21.4419C176.651 21.6916 176.731 21.9116 176.841 22.1021C176.955 22.2882 177.103 22.4342 177.285 22.54C177.467 22.6458 177.689 22.6987 177.952 22.6987C178.206 22.6987 178.424 22.6458 178.606 22.54C178.788 22.4342 178.934 22.2882 179.044 22.1021C179.154 21.9116 179.234 21.6916 179.285 21.4419C179.34 21.1922 179.367 20.9235 179.367 20.6357V20.5024C179.367 20.2231 179.34 19.9608 179.285 19.7153C179.234 19.4657 179.151 19.2456 179.037 19.0552C178.927 18.8605 178.781 18.7082 178.599 18.5981C178.417 18.4881 178.197 18.4331 177.939 18.4331C177.681 18.4331 177.461 18.4881 177.279 18.5981C177.101 18.7082 176.955 18.8605 176.841 19.0552C176.731 19.2456 176.651 19.4657 176.6 19.7153C176.549 19.9608 176.524 20.2231 176.524 20.5024ZM184.115 18.5981V24H182.287V17.1318H184.001L184.115 18.5981ZM183.849 20.3247H183.354C183.354 19.8169 183.419 19.3599 183.55 18.9536C183.682 18.5431 183.866 18.194 184.103 17.9062C184.34 17.6143 184.621 17.3921 184.947 17.2397C185.277 17.0832 185.645 17.0049 186.051 17.0049C186.373 17.0049 186.667 17.0514 186.934 17.1445C187.2 17.2376 187.429 17.3857 187.619 17.5889C187.814 17.792 187.962 18.0607 188.064 18.395C188.169 18.7293 188.222 19.1377 188.222 19.6201V24H186.381V19.6138C186.381 19.3091 186.339 19.0721 186.255 18.9028C186.17 18.7336 186.045 18.6151 185.88 18.5474C185.719 18.4754 185.52 18.4395 185.283 18.4395C185.038 18.4395 184.824 18.4881 184.642 18.5854C184.464 18.6828 184.316 18.8182 184.198 18.9917C184.084 19.161 183.997 19.3599 183.938 19.5884C183.878 19.8169 183.849 20.0623 183.849 20.3247Z" fill="#333333"/>
</svg>
